<svg width="46" height="32" viewBox="0 0 46 32" fill="none" xmlns="http://www.w3.org/2000/svg">
<path d="M45.5231 8.16395V5.78847C45.5231 3.0674 43.3172 0.861542 40.5962 0.861542H5.40385C2.68278 0.861542 0.476929 3.0674 0.476929 5.78847V8.16395C0.476929 8.40686 0.673918 8.60385 0.916833 8.60385H45.0832C45.3261 8.60385 45.5231 8.40686 45.5231 8.16395Z" fill="url(#paint0_linear_28_146)"/>
<path d="M0.476929 11.8591V26.9038C0.476929 29.6249 2.68278 31.8308 5.40385 31.8308H40.5962C43.3172 31.8308 45.5231 29.6249 45.5231 26.9038V11.8591C45.5231 11.6162 45.3261 11.4192 45.0832 11.4192H0.916833C0.673918 11.4192 0.476929 11.6162 0.476929 11.8591ZM11.7385 23.3846C11.7385 24.162 11.1082 24.7923 10.3308 24.7923H8.92308C8.14568 24.7923 7.51539 24.162 7.51539 23.3846V21.9769C7.51539 21.1995 8.14568 20.5692 8.92308 20.5692H10.3308C11.1082 20.5692 11.7385 21.1995 11.7385 21.9769V23.3846Z" fill="url(#paint1_linear_28_146)"/>
<defs>
<linearGradient id="paint0_linear_28_146" x1="-14.3883" y1="-14.4682" x2="30.9034" y2="71.9617" gradientUnits="userSpaceOnUse">
<stop offset="0.151042" stop-color="#45B5B0"/>
<stop offset="1" stop-color="#001A18"/>
</linearGradient>
<linearGradient id="paint1_linear_28_146" x1="-14.3883" y1="-14.4682" x2="30.9034" y2="71.9617" gradientUnits="userSpaceOnUse">
<stop offset="0.151042" stop-color="#45B5B0"/>
<stop offset="1" stop-color="#001A18"/>
</linearGradient>
</defs>
</svg>
