<svg width="46" height="44" viewBox="0 0 46 44" fill="none" xmlns="http://www.w3.org/2000/svg">
<path fill-rule="evenodd" clip-rule="evenodd" d="M20.4207 0.244326L26.2986 3.63788L7.24205 14.6402V22.7929C7.24205 23.1187 7.40353 23.3984 7.6857 23.5613L12.103 26.1116C12.244 26.1931 12.4055 26.1931 12.5466 26.1116C12.6877 26.0302 12.7684 25.8903 12.7684 25.7275V17.8308L31.825 6.82854L37.7028 10.2221C38.2671 10.5479 38.5901 11.1073 38.5901 11.7588V21.9569C36.9943 21.4186 35.3058 21.1283 33.6193 21.0254V20.3417C33.6193 19.5968 33.1941 18.9288 32.5191 18.6137C31.8444 18.2986 31.0591 18.4013 30.488 18.8792L23.7221 24.542C23.1608 25.0117 22.8541 25.6967 22.8776 26.4281C22.901 27.1627 23.2484 27.8219 23.8409 28.2566L30.584 33.2038C31.1664 33.631 31.9299 33.6938 32.5742 33.3674C33.2191 33.0406 33.6194 32.3891 33.6194 31.6661V30.9113C35.0228 31.0786 36.4121 31.5101 37.5529 32.336C37.7742 32.4962 37.984 32.6707 38.1793 32.8582C38.0487 33.0113 37.8889 33.144 37.703 33.2513L20.4207 43.2291C19.8565 43.5548 19.2105 43.5548 18.6462 43.2291L1.36423 33.2513C0.79988 32.9255 0.476927 32.3661 0.476927 31.7145V11.7589C0.476927 11.1073 0.79988 10.5479 1.36423 10.2222L18.6463 0.244326C19.2106 -0.0814421 19.8565 -0.0814421 20.4207 0.244326ZM32.1662 29.374C41.6559 29.374 44.3452 38.4377 36.5505 42.5116C36.5077 42.5338 36.4895 42.5849 36.5091 42.6288C36.5274 42.6698 36.5708 42.6915 36.6144 42.6806C49.5648 39.4952 48.6594 22.4348 32.1662 22.4348V20.3417C32.1662 20.1612 32.0678 20.0067 31.9043 19.9303C31.7407 19.8539 31.5592 19.8776 31.4207 19.9935L24.6547 25.6565C24.4335 25.8416 24.3207 26.0936 24.3299 26.3819C24.3391 26.6703 24.4678 26.9145 24.7004 27.0851L31.4436 32.0323C31.5851 32.1361 31.7609 32.1506 31.9174 32.0713C32.0738 31.992 32.1662 31.8416 32.1662 31.6662V29.374Z" fill="url(#paint0_linear_28_153)"/>
<defs>
<linearGradient id="paint0_linear_28_153" x1="-14.3883" y1="-21.5193" x2="59.4265" y2="78.8258" gradientUnits="userSpaceOnUse">
<stop offset="0.151042" stop-color="#45B5B0"/>
<stop offset="1" stop-color="#001A18"/>
</linearGradient>
</defs>
</svg>
