<svg width="46" height="46" viewBox="0 0 46 46" fill="none" xmlns="http://www.w3.org/2000/svg">
<path d="M44.4887 15.8926C44.0312 14.3676 42.6648 13.09 41.4348 13.038C40.9059 13.0175 40.3761 13.0414 39.8511 13.1093C37.6991 5.81462 30.9597 0.476898 23 0.476898C15.0403 0.476898 8.30094 5.81462 6.14627 13.1093C5.6213 13.0414 5.09156 13.0175 4.5626 13.038C3.33086 13.09 1.96627 14.3676 1.50876 15.8926C1.11285 16.791 0.352685 22.1665 0.494335 23.9396C0.352685 25.7127 1.11021 31.0883 1.5114 31.9867C1.97243 33.5116 3.33526 34.7884 4.56524 34.8412C5.58416 34.8729 6.60218 34.7543 7.58653 34.4892C8.57088 34.2387 9.52169 33.8712 10.4187 33.3946C11.4832 32.798 12.2038 31.3804 12.2029 30.1626C12.1493 29.4067 11.9654 25.2745 12.0129 23.9396C11.9654 22.6048 12.1493 18.4726 12.2029 17.7167C12.2029 16.4989 11.4832 15.0769 10.4187 14.4847L10.1794 14.3615C11.8 8.78618 16.9337 4.70061 23 4.70061C29.0664 4.70061 34.2001 8.78618 35.8198 14.3615L35.5805 14.4847C34.5159 15.0778 33.7954 16.4989 33.7963 17.7176C33.8499 18.4734 34.0338 22.6056 33.9863 23.9405C34.0338 25.2754 33.8499 29.4076 33.7963 30.1635C33.7963 31.3813 34.5159 32.7989 35.5805 33.3955L35.7794 33.4984C34.9362 35.2529 33.708 36.7944 32.1864 38.0081C30.6647 39.2218 28.8887 40.0763 26.9909 40.508C26.6008 39.8697 26.0053 39.383 25.3021 39.128C24.5988 38.8729 23.8298 38.8648 23.1213 39.1047C22.4128 39.3447 21.807 39.8186 21.4035 40.4486C21 41.0785 20.8227 41.827 20.9008 42.571C20.9789 43.315 21.3078 44.0104 21.8333 44.5427C22.3589 45.0751 23.0499 45.4128 23.7928 45.5004C24.5356 45.588 25.2862 45.4202 25.9211 45.0247C26.556 44.6291 27.0375 44.0293 27.2865 43.3238C32.2355 42.3216 36.3486 38.9752 38.4214 34.4936C39.4034 34.7566 40.4188 34.8735 41.4348 34.8403C42.6666 34.7884 44.0312 33.5107 44.4887 31.9858C44.8872 31.0874 45.6474 25.7118 45.5057 23.9388C45.6474 22.1666 44.8863 16.791 44.4887 15.8926Z" fill="url(#paint0_linear_28_139)"/>
<path d="M21.287 23.4909C21.5945 23.1871 21.8408 22.8272 22.0129 22.4306C22.1765 22.047 22.2581 21.5642 22.2575 20.9822C22.2575 20.1938 22.0836 19.5004 21.7357 18.902C21.3969 18.3125 20.9014 17.8282 20.3043 17.5029C19.672 17.162 18.9628 16.9893 18.2446 17.0014C17.407 17.0014 16.6739 17.1618 16.0451 17.4827C15.2303 17.8835 14.6005 18.5818 14.2855 19.4335C14.2237 19.6024 14.2036 19.7836 14.2269 19.9618C14.2502 20.1401 14.3161 20.3101 14.4192 20.4574C14.5222 20.6046 14.6593 20.7249 14.8188 20.8078C14.9782 20.8908 15.1553 20.934 15.3351 20.9338H15.4072C15.6326 20.9309 15.852 20.8608 16.0373 20.7326C16.2227 20.6044 16.3657 20.4239 16.448 20.214C16.4756 20.149 16.5067 20.0855 16.5413 20.024C16.6993 19.7436 16.9284 19.5099 17.2056 19.3464C17.5063 19.1714 17.8493 19.0825 18.1971 19.0895C18.526 19.0819 18.8505 19.1654 19.135 19.3306C19.3976 19.4894 19.6109 19.7183 19.7509 19.9914C19.9019 20.2879 19.9777 20.617 19.9717 20.9497C19.9623 21.2335 19.8838 21.5108 19.743 21.7575C19.591 22.0461 19.33 22.3532 18.9599 22.6788L14.4799 26.6552C14.3395 26.7798 14.2272 26.9328 14.1503 27.1041C14.0734 27.2753 14.0337 27.4609 14.0338 27.6487C14.0331 27.8237 14.0671 27.9971 14.1336 28.1589C14.2002 28.3207 14.2982 28.4678 14.4218 28.5916C14.5454 28.7154 14.6924 28.8136 14.8541 28.8804C15.0158 28.9472 15.1891 28.9814 15.3641 28.9809H21.214C21.4908 28.9809 21.7562 28.8709 21.9518 28.6752C22.1475 28.4795 22.2575 28.2141 22.2575 27.9373C22.2576 27.8002 22.2307 27.6644 22.1783 27.5376C22.1259 27.4109 22.0491 27.2958 21.9522 27.1988C21.8553 27.1018 21.7402 27.0248 21.6135 26.9723C21.4869 26.9198 21.3511 26.8928 21.214 26.8928H17.4818L20.1046 24.5926C20.5726 24.1814 20.9668 23.8142 21.287 23.4909Z" fill="url(#paint1_linear_28_139)"/>
<path d="M30.9184 25.0942V23.2824C30.9182 22.9838 30.7994 22.6976 30.5882 22.4865C30.3771 22.2755 30.0907 22.157 29.7922 22.157C29.4938 22.157 29.2076 22.2755 28.9965 22.4866C28.7855 22.6977 28.6669 22.9839 28.6669 23.2824V25.0942H26.1076L29.0356 18.888C29.1183 18.7126 29.1554 18.5191 29.1433 18.3255C29.1313 18.1319 29.0705 17.9445 28.9667 17.7807C28.8629 17.6169 28.7193 17.482 28.5494 17.3885C28.3795 17.295 28.1887 17.246 27.9948 17.246C27.7767 17.2461 27.5631 17.3082 27.379 17.425C27.1949 17.5419 27.0478 17.7087 26.9548 17.906L23.725 24.751C23.6184 24.9769 23.5631 25.2237 23.5631 25.4735C23.5631 25.9222 23.7414 26.3526 24.0587 26.67C24.376 26.9873 24.8063 27.1656 25.255 27.1656H28.6687V27.8695C28.6687 28.168 28.7873 28.4543 28.9983 28.6653C29.2093 28.8764 29.4955 28.995 29.794 28.995C30.0925 28.9945 30.3786 28.8755 30.5895 28.6642C30.8003 28.4528 30.9186 28.1663 30.9184 27.8678V27.1638H30.9263C31.2009 27.1638 31.4643 27.0547 31.6585 26.8605C31.8527 26.6662 31.9618 26.4028 31.9618 26.1281C31.9618 25.8535 31.8527 25.59 31.6585 25.3958C31.4643 25.2016 31.2009 25.0924 30.9263 25.0924L30.9184 25.0942Z" fill="url(#paint2_linear_28_139)"/>
<defs>
<linearGradient id="paint0_linear_28_139" x1="-14.3883" y1="-21.821" x2="62.8659" y2="79.5329" gradientUnits="userSpaceOnUse">
<stop offset="0.151042" stop-color="#45B5B0"/>
<stop offset="1" stop-color="#001A18"/>
</linearGradient>
<linearGradient id="paint1_linear_28_139" x1="-14.3883" y1="-21.821" x2="62.8659" y2="79.5329" gradientUnits="userSpaceOnUse">
<stop offset="0.151042" stop-color="#45B5B0"/>
<stop offset="1" stop-color="#001A18"/>
</linearGradient>
<linearGradient id="paint2_linear_28_139" x1="-14.3883" y1="-21.821" x2="62.8659" y2="79.5329" gradientUnits="userSpaceOnUse">
<stop offset="0.151042" stop-color="#45B5B0"/>
<stop offset="1" stop-color="#001A18"/>
</linearGradient>
</defs>
</svg>
