<svg width="479" height="249" viewBox="0 0 479 249" fill="none" xmlns="http://www.w3.org/2000/svg">
<path opacity="0.3" d="M33.5366 248.92V246.502C62.2684 246.037 90.4423 228.463 103.46 202.8C116.478 177.137 114.153 144.128 97.695 120.51C86.816 105.075 70.8229 93.9166 55.3877 83.1306C49.9017 79.3182 44.3227 75.4129 38.9296 71.3217C0.52759 42.125 -4.02858 19.5301 3.68902 9.11595C14.0102 -4.83153 47.4841 -2.50695 91.4651 29.0143C94.6266 31.2459 97.788 33.6635 101.042 35.9881C123.916 52.818 147.627 70.1129 175.429 71.5077C191.236 72.3445 206.857 67.6024 222.013 63.1392C236.24 58.9549 250.931 54.5847 265.995 54.5847C266.181 54.5847 266.366 54.5847 266.459 54.5847C309.604 54.8637 342.613 88.8955 372.832 123.764C400.82 156.122 434.201 190.433 476.415 190.433C476.973 190.433 477.531 190.433 478.089 190.433L478.182 192.851C477.624 192.851 476.973 192.851 476.415 192.851C433.178 192.851 399.425 158.075 371.066 125.252C341.218 90.8482 308.674 57.1882 266.552 56.9093C266.366 56.9093 266.273 56.9093 266.088 56.9093C251.396 56.9093 236.891 61.1865 222.85 65.3708C207.508 69.9269 191.701 74.6691 175.429 73.8322C146.883 72.4375 122.893 54.8637 99.7406 37.8477C96.5792 35.5232 93.4178 33.1986 90.2563 30.874C47.763 0.747463 15.033 -2.13501 5.64167 10.5107C-1.98295 20.8318 5.82763 43.0548 40.5104 69.369C45.8104 73.3673 51.3894 77.2726 56.8754 81.0849C72.4966 91.9639 88.6756 103.215 99.7406 119.022C116.757 143.291 119.174 177.415 105.692 203.823C92.209 230.323 63.1982 248.455 33.5366 248.92Z" fill="url(#paint0_linear_113_447)"/>
<defs>
<linearGradient id="paint0_linear_113_447" x1="-157.086" y1="-121.763" x2="144.66" y2="640.849" gradientUnits="userSpaceOnUse">
<stop offset="0.151042" stop-color="#45B5B0"/>
<stop offset="1" stop-color="#001A18"/>
</linearGradient>
</defs>
</svg>
