<svg width="56" height="134" viewBox="0 0 56 134" fill="none" xmlns="http://www.w3.org/2000/svg">
<path d="M0.828918 -0.761866C0.928918 -1.06187 1.12892 -1.26187 1.32892 -1.66187C1.62892 -1.66187 1.92892 -1.66187 2.22892 -1.66187C3.22892 -0.161865 3.12892 1.13813 2.02892 2.53813C1.62892 1.83813 1.22892 1.23813 0.828918 0.638135C0.828918 0.238135 0.828918 -0.261866 0.828918 -0.761866Z" fill="#6097A9" fill-opacity="0.3"/>
<path d="M52.7289 51.638C53.7289 50.738 54.1289 50.638 55.1289 51.538C55.2289 53.438 55.4289 55.438 55.5289 57.438C55.6289 58.438 55.2289 59.338 54.6289 60.138C54.0289 60.338 53.6289 60.038 53.2289 59.438C52.7289 58.638 52.4289 57.738 52.4289 56.838C52.6289 55.038 52.6289 53.238 52.7289 51.638Z" fill="#6097A9" fill-opacity="0.3"/>
<path d="M37.5289 18.138C35.7289 16.438 34.8289 12.438 35.8289 10.338C36.0289 10.238 36.3289 10.138 36.5289 10.038C37.4289 9.83798 38.1289 10.138 38.3289 11.038C38.6289 12.338 38.9289 13.738 38.8289 15.038C38.7289 16.138 38.4289 17.238 37.5289 18.138Z" fill="#6097A9" fill-opacity="0.3"/>
<path d="M40.4289 100.638C40.9289 102.438 41.5289 104.138 41.8289 105.838C42.1289 107.238 42.0289 108.738 40.9289 110.038C40.6289 109.838 40.2289 109.738 40.0289 109.438C39.3289 108.338 38.8289 107.238 38.9289 105.938C39.0289 104.538 39.0289 103.238 39.1289 101.838C39.1289 101.538 39.1289 101.138 39.2289 100.638C39.6289 100.638 40.0289 100.638 40.4289 100.638Z" fill="#6097A9" fill-opacity="0.3"/>
<path d="M15.4289 115.238C15.7289 115.038 16.0289 114.938 16.4289 114.638C16.7289 114.938 17.0289 115.238 17.2289 115.538C17.5289 116.338 17.7289 117.138 17.9289 117.938C18.1289 118.538 18.2289 119.138 18.3289 119.738C18.5289 121.038 18.2289 122.238 17.4289 123.538C17.0289 123.138 16.6289 122.838 16.4289 122.438C15.7289 121.238 15.3289 120.038 15.4289 118.638C15.5289 117.638 15.4289 116.438 15.4289 115.238Z" fill="#6097A9" fill-opacity="0.3"/>
<path d="M51.1289 39.8381C51.6289 39.6381 51.9289 39.5381 52.2289 39.3381C52.4289 39.4381 52.6289 39.5381 53.0289 39.7381C53.1289 41.4381 53.3289 43.2381 53.4289 45.0381C53.4289 46.0381 53.2289 46.5381 52.4289 47.4381C51.3289 46.7381 50.6289 45.2381 50.8289 44.0381C50.9289 43.7381 50.9289 43.5381 50.9289 43.2381C51.0289 42.1381 51.0289 41.0381 51.1289 39.8381Z" fill="#6097A9" fill-opacity="0.3"/>
<path d="M32.5289 107.838C32.7289 108.438 33.0289 109.038 33.2289 109.738C33.6289 111.338 33.9289 112.938 34.1289 114.538C34.3289 115.738 34.0289 116.938 33.2289 118.138C32.8289 117.838 32.5289 117.638 32.4289 117.438C31.8289 116.438 31.5289 115.338 31.7289 114.138C31.9289 112.938 31.8289 111.738 31.8289 110.538C31.8289 109.938 31.8289 109.338 31.8289 108.738C31.8289 108.538 31.9289 108.238 32.0289 108.038C32.2289 107.938 32.4289 107.938 32.5289 107.838Z" fill="#6097A9" fill-opacity="0.3"/>
<path d="M21.5289 34.538C22.0289 34.538 22.3289 34.438 22.8289 34.438C23.6289 35.838 23.7289 37.338 24.1289 38.738C24.4289 40.138 24.2289 41.438 23.6289 42.838C23.2289 42.538 22.9289 42.338 22.7289 42.038C22.3289 41.138 21.7289 40.238 21.6289 39.238C21.4289 37.738 21.5289 36.138 21.5289 34.538Z" fill="#6097A9" fill-opacity="0.3"/>
<path d="M47.1289 51.138C47.6289 50.938 47.9289 50.838 48.2289 50.738C48.8289 50.838 49.0289 51.238 49.2289 51.738C49.7289 53.338 50.0289 55.038 49.9289 56.738C49.9289 57.338 49.6289 57.938 49.4289 58.738C48.9289 58.538 48.5289 58.438 48.4289 58.138C48.0289 57.538 47.6289 56.838 47.5289 56.138C47.2289 54.538 47.2289 52.838 47.1289 51.138Z" fill="#6097A9" fill-opacity="0.3"/>
<path d="M33.6289 71.9381C32.3289 70.7381 31.7289 65.0381 32.7289 62.9381C33.0289 62.9381 33.3289 62.9381 33.8289 62.8381C33.9289 63.1381 34.1289 63.4381 34.2289 63.8381C34.8289 67.6381 34.6289 70.8381 33.6289 71.9381Z" fill="#6097A9" fill-opacity="0.3"/>
<path d="M13.8289 15.5381C15.1289 18.4381 15.5289 21.2381 14.5289 24.4381C14.1289 23.9381 13.7289 23.6381 13.6289 23.2381C13.0289 21.9381 12.5289 20.5381 12.6289 18.9381C12.7289 17.9381 12.6289 16.8381 12.6289 15.7381C13.0289 15.6381 13.3289 15.5381 13.8289 15.5381Z" fill="#6097A9" fill-opacity="0.3"/>
<path d="M25.1289 6.03812C24.0289 5.33812 23.7289 4.33812 23.5289 3.43812C23.1289 1.93812 23.1289 0.238122 23.0289 -1.26188C22.9289 -2.16188 23.3289 -2.26188 24.4289 -2.16188C25.1289 0.438122 26.5289 3.03812 25.1289 6.03812Z" fill="#6097A9" fill-opacity="0.3"/>
<path d="M50.3289 64.1382C50.7289 64.1382 50.9289 64.1382 51.4289 64.1382C51.6289 64.8382 51.8289 65.6382 51.9289 66.3382C52.1289 67.4382 52.4289 68.5382 52.5289 69.6382C52.5289 70.5382 52.3289 71.5382 51.5289 72.3382C50.6289 71.7382 50.1289 70.9382 50.1289 69.9382C50.0289 68.3382 50.1289 66.7382 50.1289 65.1382C50.0289 64.7382 50.2289 64.4382 50.3289 64.1382Z" fill="#6097A9" fill-opacity="0.3"/>
<path d="M30.0289 42.1381C29.2289 42.0381 29.1289 41.3381 28.8289 40.9381C28.2289 39.8381 28.3289 38.6381 28.4289 37.4381C28.4289 36.9381 28.6289 36.3381 28.6289 35.8381C28.7289 34.9381 28.9289 34.8381 29.9289 34.8381C31.2289 36.7381 31.3289 40.2381 30.0289 42.1381Z" fill="#6097A9" fill-opacity="0.3"/>
<path d="M48.8289 84.9381C49.3289 84.7381 49.7289 84.9381 49.8289 85.3381C50.1289 87.3381 50.8289 89.2381 50.8289 91.2381C50.8289 92.0381 50.6289 92.6381 50.0289 93.4381C49.0289 92.7381 48.7289 91.7381 48.6289 90.6381C48.5289 89.0381 48.6289 87.5381 48.6289 85.9381C48.6289 85.6381 48.7289 85.2381 48.8289 84.9381Z" fill="#6097A9" fill-opacity="0.3"/>
<path d="M26.5289 75.0381C27.8289 76.9381 28.4289 80.5381 26.9289 82.4381C26.7289 82.2381 26.4289 82.0381 26.2289 81.8381C25.2289 80.6381 24.9289 79.2381 25.1289 77.6381C25.2289 77.0381 25.3289 76.4381 25.4289 75.5381C25.7289 75.4381 26.1289 75.2381 26.5289 75.0381Z" fill="#6097A9" fill-opacity="0.3"/>
<path d="M32.7289 43.138C32.9289 43.038 33.1289 42.938 33.2289 42.938C33.3289 42.938 33.5289 42.938 33.8289 42.938C34.5289 45.638 35.7289 48.238 34.7289 51.238C32.9289 50.138 32.3289 47.038 32.7289 43.138Z" fill="#6097A9" fill-opacity="0.3"/>
<path d="M44.2289 44.0381C42.3289 43.1381 42.0289 40.1381 43.0289 37.2381C43.2289 37.1381 43.4289 37.0381 43.6289 37.0381C43.8289 37.0381 44.0289 37.0381 44.1289 37.0381C45.1289 38.2381 45.7289 42.3381 44.2289 44.0381Z" fill="#6097A9" fill-opacity="0.3"/>
<path d="M22.0289 121.438C22.3289 121.438 22.6289 121.438 22.9289 121.438C23.4289 122.838 23.9289 124.238 24.2289 125.638C24.5289 126.838 24.4289 128.238 23.4289 129.238C22.3289 128.638 21.8289 127.638 21.8289 126.538C21.8289 124.938 21.9289 123.238 22.0289 121.438Z" fill="#6097A9" fill-opacity="0.3"/>
<path d="M52.0289 75.3381C52.2289 75.5381 52.4289 75.6381 52.5289 75.8381C52.8289 77.7381 53.0289 79.7381 53.2289 81.7381C53.3289 82.5381 52.9289 83.3381 52.4289 84.0381C51.4289 83.6381 51.0289 82.7381 51.0289 81.8381C50.9289 80.5381 51.1289 79.1381 51.3289 77.7381C51.4289 76.9381 51.6289 76.1381 51.7289 75.3381C51.7289 75.4381 51.8289 75.3381 52.0289 75.3381Z" fill="#6097A9" fill-opacity="0.3"/>
<path d="M3.12893 69.238C2.22893 68.338 1.72893 67.438 1.52893 66.338C1.32893 64.938 1.22893 63.538 1.02893 62.038C1.02893 61.738 1.02893 61.338 1.02893 60.938C1.32893 60.838 1.62893 60.738 1.92893 60.738C3.12893 63.438 4.72893 65.938 3.12893 69.238Z" fill="#6097A9" fill-opacity="0.3"/>
<path d="M8.52893 64.7381C6.92893 63.6381 6.32893 61.0381 6.82893 57.6381C7.22893 57.6381 7.72893 57.5381 8.32893 57.5381C9.12893 59.9381 9.82893 62.2381 8.52893 64.7381Z" fill="#6097A9" fill-opacity="0.3"/>
<path d="M23.7289 16.2382C21.9289 14.2382 21.8289 11.8382 22.4289 9.23818C22.9289 9.23818 23.4289 9.13818 24.0289 9.13818C24.6289 11.5382 24.9289 13.9382 23.7289 16.2382Z" fill="#6097A9" fill-opacity="0.3"/>
<path d="M7.52889 41.938C7.22889 41.538 6.92889 41.138 6.72889 40.838C5.92889 38.838 5.82889 36.838 6.22889 34.738C6.32889 34.438 6.32889 34.138 6.32889 33.738C6.52889 33.638 6.72889 33.538 7.02889 33.438C8.32889 36.138 8.82889 38.938 7.52889 41.938Z" fill="#6097A9" fill-opacity="0.3"/>
<path d="M54.5289 73.838C53.5289 73.038 53.0289 71.938 53.0289 70.838C53.0289 69.538 53.3289 68.338 53.4289 67.038C53.4289 66.938 53.5289 66.838 53.6289 66.638C53.9289 66.638 54.2289 66.538 54.5289 66.438C54.6289 66.638 54.7289 66.738 54.7289 66.838C54.9289 68.438 55.2289 69.938 55.4289 71.538C55.6289 72.238 55.2289 73.038 54.5289 73.838Z" fill="#6097A9" fill-opacity="0.3"/>
<path d="M36.3289 92.1381C35.3289 90.9381 34.8289 89.6381 35.0289 88.2381C35.1289 87.2381 35.3289 86.1381 35.4289 85.1381C35.5289 84.7381 35.6289 84.3381 36.1289 84.4381C37.5289 86.0381 37.7289 90.0381 36.3289 92.1381Z" fill="#6097A9" fill-opacity="0.3"/>
<path d="M30.6289 10.9381C29.0289 9.63809 28.4289 5.63809 29.4289 3.43809C29.9289 3.23809 30.2289 3.33809 30.4289 3.93809C31.1289 5.93809 31.7289 8.03809 31.1289 10.1381C31.0289 10.3381 31.0289 10.5381 30.9289 10.6381C30.8289 10.7381 30.7289 10.8381 30.6289 10.9381Z" fill="#6097A9" fill-opacity="0.3"/>
<path d="M46.9289 38.438C47.3289 38.438 47.6289 38.438 47.9289 38.438C48.6289 39.538 48.8289 40.938 49.1289 42.138C49.3289 43.238 49.0289 44.238 48.2289 45.038C47.2289 44.638 46.8289 43.638 46.7289 42.738C46.5289 41.538 46.7289 40.238 46.7289 39.038C46.7289 38.938 46.8289 38.738 46.9289 38.438Z" fill="#6097A9" fill-opacity="0.3"/>
<path d="M36.6289 105.838C36.4289 105.638 36.1289 105.538 35.9289 105.338C35.2289 104.138 34.6289 102.938 35.0289 101.438C35.2289 100.638 35.0289 99.7381 35.0289 98.8381C35.4289 98.8381 35.7289 98.8381 36.0289 98.8381C37.4289 101.138 37.9289 104.338 36.6289 105.838Z" fill="#6097A9" fill-opacity="0.3"/>
<path d="M42.5289 17.0381C43.7289 18.6381 44.4289 23.0381 43.0289 24.3381C41.9289 23.5381 41.7289 22.3381 41.5289 21.1381C41.4289 20.2381 41.5289 19.2381 41.5289 18.3381C41.5289 17.6381 41.7289 17.1381 42.5289 17.0381Z" fill="#6097A9" fill-opacity="0.3"/>
<path d="M25.4289 89.438C25.8289 89.338 25.9289 89.238 26.0289 89.238C26.2289 89.238 26.3289 89.238 26.6289 89.238C27.5289 91.938 27.9289 94.538 27.3289 97.438C26.2289 96.738 26.0289 95.638 25.8289 94.738C25.5289 93.138 25.5289 91.338 25.4289 89.438Z" fill="#6097A9" fill-opacity="0.3"/>
<path d="M45.8289 103.638C44.7289 103.138 44.4289 102.238 44.4289 101.238C44.3289 99.9382 44.4289 98.5382 44.4289 97.2382C44.6289 97.0382 44.8289 96.8382 45.1289 96.6382C45.3289 96.8382 45.6289 96.8382 45.7289 97.0382C46.3289 99.1382 47.3289 101.238 45.8289 103.638Z" fill="#6097A9" fill-opacity="0.3"/>
<path d="M17.2289 75.5381C17.0289 75.3381 16.7289 75.1381 16.6289 74.9381C16.0289 74.0381 15.6289 73.0381 15.7289 71.8381C15.7289 71.0381 15.7289 70.2381 15.7289 69.5381C15.7289 68.7381 16.0289 68.5381 16.9289 68.3381C17.5289 70.6381 18.6289 72.9381 17.2289 75.5381Z" fill="#6097A9" fill-opacity="0.3"/>
<path d="M44.9289 83.038C45.3289 83.038 45.6289 82.938 45.8289 82.938C46.9289 83.638 46.9289 88.538 45.8289 90.038C44.1289 87.838 44.5289 85.538 44.9289 83.038Z" fill="#6097A9" fill-opacity="0.3"/>
<path d="M49.8289 36.7381C48.8289 36.2381 48.4289 35.3381 48.3289 34.3381C48.2289 32.9381 48.3289 31.6381 48.3289 30.1381C48.6289 30.0381 48.9289 29.9381 49.2289 29.8381C50.5289 32.3381 51.2289 35.3381 49.8289 36.7381Z" fill="#6097A9" fill-opacity="0.3"/>
<path d="M23.0289 107.738C22.1289 106.438 21.7289 105.238 21.8289 103.838C21.9289 102.638 21.9289 101.438 22.0289 100.238C22.0289 99.9382 22.1289 99.7382 22.2289 99.1382C22.5289 99.5382 22.8289 99.7382 22.9289 99.9382C23.4289 101.938 24.0289 103.838 23.9289 105.838C23.7289 106.538 23.7289 107.138 23.0289 107.738Z" fill="#6097A9" fill-opacity="0.3"/>
<path d="M24.6289 59.938C25.3289 59.738 25.6289 59.938 25.8289 60.438C26.6289 62.138 27.1289 63.938 26.8289 65.838C26.7289 66.138 26.6289 66.438 26.4289 66.938C24.1289 64.938 24.6289 62.438 24.6289 59.938Z" fill="#6097A9" fill-opacity="0.3"/>
<path d="M12.7289 -0.761817C13.0289 -0.761817 13.3289 -0.861816 13.6289 -0.861816C14.1289 0.838184 14.7289 2.43818 14.7289 4.23818C14.7289 4.93818 14.6289 5.63818 13.8289 6.13818C12.9289 5.33818 12.5289 4.33818 12.5289 3.13818C12.4289 1.83818 12.5289 0.638183 12.7289 -0.761817Z" fill="#6097A9" fill-opacity="0.3"/>
<path d="M6.1289 2.83813C6.4289 2.83813 6.6289 2.83813 6.8289 2.83813C8.0289 5.23813 8.4289 9.13813 7.7289 10.6381C7.2289 10.5381 7.0289 10.1381 6.9289 9.63813C6.1289 7.53814 5.9289 5.23813 6.1289 2.83813Z" fill="#6097A9" fill-opacity="0.3"/>
<path d="M20.4289 68.8381C21.3289 68.7381 21.3289 69.4381 21.4289 69.7381C21.9289 71.9381 22.4289 74.1381 21.4289 76.6381C21.1289 76.2381 20.8289 75.9381 20.6289 75.6381C20.2289 74.5381 19.7289 73.5381 20.1289 72.2381C20.3289 71.5381 20.1289 70.7381 20.2289 70.0381C20.1289 69.6381 20.3289 69.2381 20.4289 68.8381Z" fill="#6097A9" fill-opacity="0.3"/>
<path d="M27.4289 49.1381C27.8289 49.0381 28.1289 49.0381 28.3289 49.0381C29.2289 49.8381 30.3289 53.3381 29.2289 55.9381C28.9289 55.7381 28.6289 55.5381 28.5289 55.2381C28.0289 54.3381 27.6289 53.4381 27.6289 52.3381C27.6289 51.6381 27.5289 51.0381 27.4289 50.3381C27.4289 50.0381 27.4289 49.6381 27.4289 49.1381Z" fill="#6097A9" fill-opacity="0.3"/>
<path d="M38.1289 21.538C38.5289 21.538 38.8289 21.438 39.1289 21.438C40.6289 23.738 40.6289 25.938 39.3289 27.338C37.8289 26.438 37.6289 25.438 38.1289 21.538Z" fill="#6097A9" fill-opacity="0.3"/>
<path d="M44.0289 27.6382C44.3289 27.6382 44.5289 27.6382 44.7289 27.6382C45.7289 28.3382 45.7289 32.4382 44.8289 33.9382C43.4289 33.3382 42.8289 29.4382 44.0289 27.6382Z" fill="#6097A9" fill-opacity="0.3"/>
<path d="M41.3289 68.738C40.3289 68.238 40.0289 67.338 39.9289 66.438C39.9289 65.038 40.0289 63.638 40.1289 62.238C40.1289 61.938 40.4289 61.738 40.6289 61.438C41.8289 62.838 42.1289 67.038 41.3289 68.738Z" fill="#6097A9" fill-opacity="0.3"/>
<path d="M26.6289 118.638C26.9289 118.638 27.3289 118.538 27.7289 118.438C28.1289 119.538 28.5289 120.438 28.7289 121.438C28.9289 122.438 28.6289 123.438 27.9289 124.238C26.8289 123.838 26.2289 122.738 26.2289 121.438C26.3289 120.638 26.4289 119.638 26.6289 118.638Z" fill="#6097A9" fill-opacity="0.3"/>
<path d="M42.5289 84.638C40.9289 82.038 41.5289 79.438 42.0289 76.738C42.2289 76.938 42.5289 77.038 42.5289 77.238C42.7289 77.938 42.9289 78.638 43.0289 79.338C43.1289 80.538 43.2289 81.838 43.3289 83.038C43.3289 83.738 43.1289 84.138 42.5289 84.638Z" fill="#6097A9" fill-opacity="0.3"/>
<path d="M47.5289 74.738C47.9289 74.738 48.3289 74.738 48.6289 74.738C49.5289 76.838 49.6289 79.138 48.3289 80.238C47.1289 79.438 46.7289 78.338 47.0289 76.938C47.1289 76.538 47.1289 76.138 47.2289 75.838C47.2289 75.438 47.4289 75.138 47.5289 74.738Z" fill="#6097A9" fill-opacity="0.3"/>
<path d="M20.2289 11.3381C19.0289 10.5381 18.8289 9.43814 18.7289 8.43814C18.6289 7.03814 18.7289 5.73813 18.7289 4.33813C19.0289 4.33813 19.3289 4.33813 19.7289 4.33813C20.1289 5.83813 20.4289 7.33814 20.7289 8.73814C20.9289 9.63814 20.5289 10.4381 20.2289 11.3381Z" fill="#6097A9" fill-opacity="0.3"/>
<path d="M26.2289 108.638C26.5289 108.638 26.9289 108.638 27.1289 108.638C28.1289 109.238 28.2289 113.238 27.3289 114.538C26.0289 113.838 25.2289 110.038 26.2289 108.638Z" fill="#6097A9" fill-opacity="0.3"/>
<path d="M37.5289 32.6381C38.0289 32.5381 38.4289 32.5381 38.7289 32.5381C40.1289 34.5381 40.2289 36.5381 38.9289 38.2381C37.0289 36.7381 37.6289 34.7381 37.5289 32.6381Z" fill="#6097A9" fill-opacity="0.3"/>
<path d="M38.7289 60.0381C37.2289 59.1381 36.8289 56.3381 37.7289 54.0381C37.9289 54.0381 38.1289 54.0381 38.2289 54.0381C38.3289 54.0381 38.5289 54.1381 38.7289 54.1381C39.1289 56.0381 39.8289 57.9381 38.7289 60.0381Z" fill="#6097A9" fill-opacity="0.3"/>
<path d="M14.9289 54.938C13.6289 54.038 13.0289 50.038 13.8289 47.738C15.1289 48.638 15.8289 52.838 14.9289 54.938Z" fill="#6097A9" fill-opacity="0.3"/>
<path d="M28.1289 20.2381C27.1289 19.5381 26.7289 18.6381 26.6289 17.6381C26.5289 16.6381 26.6289 15.6381 26.6289 14.5381C27.1289 14.4381 27.4289 14.4381 27.7289 14.3381C28.9289 17.2381 29.0289 18.4381 28.1289 20.2381Z" fill="#6097A9" fill-opacity="0.3"/>
<path d="M34.3289 34.0381C32.7289 32.1381 33.0289 29.9381 33.1289 27.6381C33.4289 27.6381 33.6289 27.5381 34.0289 27.5381C35.0289 29.6381 35.1289 31.8381 34.3289 34.0381Z" fill="#6097A9" fill-opacity="0.3"/>
<path d="M16.9289 -6.06183C17.5289 -6.26183 17.8289 -5.96183 17.9289 -5.56183C18.1289 -4.26183 18.3289 -2.86183 18.4289 -1.56183C18.4289 -0.861829 18.3289 -0.161828 18.2289 0.538172C17.7289 0.438172 17.5289 0.138172 17.4289 -0.361828C16.8289 -2.16183 16.2289 -4.06183 16.9289 -6.06183Z" fill="#6097A9" fill-opacity="0.3"/>
<path d="M44.6289 62.5381C43.7289 61.8381 43.4289 60.9381 43.4289 59.9381C43.4289 58.8381 43.5289 57.7381 43.6289 56.7381C43.6289 56.5381 43.9289 56.3381 44.1289 56.0381C45.3289 58.0381 45.5289 61.2381 44.6289 62.5381Z" fill="#6097A9" fill-opacity="0.3"/>
<path d="M22.5289 118.138C21.7289 117.638 21.3289 116.838 21.3289 116.038C21.2289 114.838 21.3289 113.538 21.3289 112.238C21.6289 112.238 21.8289 112.238 21.9289 112.138C23.4289 114.938 23.8289 116.538 22.5289 118.138Z" fill="#6097A9" fill-opacity="0.3"/>
<path d="M43.2289 95.638C42.3289 95.138 42.1289 94.338 42.0289 93.538C41.9289 92.338 41.9289 91.238 42.0289 90.038C42.0289 89.438 42.1289 89.438 43.0289 89.238C43.3289 91.338 44.4289 93.338 43.2289 95.638Z" fill="#6097A9" fill-opacity="0.3"/>
<path d="M29.3289 99.5381C29.6289 99.4381 29.9289 99.4381 30.2289 99.3381C31.2289 101.338 31.3289 103.338 30.5289 105.638C30.1289 105.138 29.9289 104.838 29.7289 104.438C29.0289 102.938 29.3289 101.238 29.3289 99.5381Z" fill="#6097A9" fill-opacity="0.3"/>
<path d="M15.2289 56.738C15.9289 57.838 16.3289 59.138 16.4289 60.338C16.5289 61.038 16.5289 62.038 15.8289 62.738C14.9289 62.138 14.7289 61.138 14.5289 60.238C14.4289 59.338 14.4289 58.338 14.5289 57.438C14.5289 57.138 14.7289 56.938 14.8289 56.738C15.0289 56.738 15.1289 56.738 15.2289 56.738Z" fill="#6097A9" fill-opacity="0.3"/>
<path d="M42.9289 54.4381C41.8289 53.7381 41.6289 52.6381 41.5289 51.5381C41.4289 50.5381 41.1289 49.4381 41.8289 48.5381C43.3289 49.2381 43.9289 52.3381 42.9289 54.4381Z" fill="#6097A9" fill-opacity="0.3"/>
<path d="M17.3289 128.438C17.8289 130.338 18.3289 132.038 17.3289 133.738C16.4289 133.438 15.7289 132.438 15.8289 131.338C15.9289 130.438 16.1289 129.438 16.3289 128.538C16.7289 128.438 17.0289 128.438 17.3289 128.438Z" fill="#6097A9" fill-opacity="0.3"/>
<path d="M31.9289 84.8381C30.7289 83.7381 30.1289 79.4381 31.1289 78.0381C32.2289 79.1381 32.7289 83.2381 31.9289 84.8381Z" fill="#6097A9" fill-opacity="0.3"/>
<path d="M19.6289 26.738C17.8289 24.738 18.2289 22.538 18.2289 20.238C19.2289 20.638 19.4289 21.538 19.6289 22.338C20.1289 23.738 20.3289 25.138 19.6289 26.738Z" fill="#6097A9" fill-opacity="0.3"/>
<path d="M20.5289 65.3382C19.4289 64.1382 19.1289 61.5382 19.8289 60.1382C20.0289 60.1382 20.3289 60.1382 20.5289 60.1382C21.4289 60.7382 21.5289 63.5382 20.5289 65.3382Z" fill="#6097A9" fill-opacity="0.3"/>
<path d="M22.8289 54.1381C21.3289 52.6381 21.4289 51.0381 21.9289 49.1381C22.1289 49.1381 22.4289 49.0381 22.7289 49.0381C23.6289 50.7381 24.0289 52.3381 22.8289 54.1381Z" fill="#6097A9" fill-opacity="0.3"/>
<path d="M44.9289 66.5381C45.6289 68.6381 46.6289 70.7381 45.8289 73.2381C44.8289 72.6381 44.7289 71.8381 44.6289 71.0381C44.5289 69.5381 44.6289 68.0381 44.6289 66.5381C44.7289 66.5381 44.8289 66.5381 44.9289 66.5381Z" fill="#6097A9" fill-opacity="0.3"/>
<path d="M36.7289 72.1382C38.0289 73.5382 38.1289 76.2382 36.9289 77.2382C35.6289 75.8382 35.4289 73.0382 36.7289 72.1382Z" fill="#6097A9" fill-opacity="0.3"/>
<path d="M28.5289 32.038C27.3289 30.738 27.3289 29.338 27.4289 27.938C27.4289 27.438 27.4289 26.938 28.0289 26.738C29.2289 27.738 29.5289 30.438 28.5289 32.038Z" fill="#6097A9" fill-opacity="0.3"/>
<path d="M17.3289 46.6381C16.3289 45.3381 15.9289 42.9381 16.5289 41.5381C17.7289 41.9381 18.2289 45.1381 17.3289 46.6381Z" fill="#6097A9" fill-opacity="0.3"/>
<path d="M33.2289 23.5381C32.1289 21.9381 32.1289 20.3381 32.5289 18.5381C33.6289 19.5381 34.0289 22.1381 33.2289 23.5381Z" fill="#6097A9" fill-opacity="0.3"/>
</svg>
