<svg width="740" height="311" viewBox="0 0 740 311" fill="none" xmlns="http://www.w3.org/2000/svg">
<path d="M12.5428 310.274C12.5428 233.68 0 79.7459 0 2.69255C2.29957 2.23253 4.36917 1.5425 6.66874 1.08248C15.867 -0.757598 24.8353 -0.0675683 33.8036 1.77251C48.0609 4.99265 61.1684 10.5129 73.5861 17.8732C88.5333 26.8436 102.331 37.6541 114.978 49.6146C127.396 61.5751 139.584 73.7656 151.771 85.9561C161.889 96.0766 171.778 105.967 182.815 115.167C188.794 119.998 194.773 124.598 201.672 128.048C206.041 130.348 210.64 131.958 215.469 132.878C222.138 134.028 228.117 132.648 232.716 127.358C235.935 123.678 239.155 119.768 241.914 115.857C247.663 108.037 253.412 99.7567 260.081 92.6264C268.129 83.886 276.868 76.2957 286.756 69.8554C309.062 55.3648 332.747 52.3747 358.042 60.655C369.77 64.5652 380.578 70.3155 390.696 77.2158C403.114 85.9561 414.152 96.0766 424.5 106.887C433.238 116.087 441.976 125.518 450.715 134.488C456.464 140.468 462.672 145.989 468.881 151.509C471.641 154.039 474.86 156.109 477.85 157.949C487.278 163.929 497.626 165.77 508.434 163.239C513.723 162.089 518.782 160.249 523.841 158.409C528.44 156.799 533.039 154.959 537.408 153.119C561.784 143.229 587.079 141.389 613.064 145.989C639.279 150.589 662.505 161.399 684.121 176.81C705.277 191.991 723.213 210.621 738.62 231.552C739.08 232.012 739.31 232.702 739.77 233.392C493.257 232.932 259.286 310.274 12.5428 310.274Z" fill="url(#paint0_linear_113_433)"/>
<defs>
<linearGradient id="paint0_linear_113_433" x1="369.885" y1="0" x2="369.885" y2="310.274" gradientUnits="userSpaceOnUse">
<stop stop-color="#FFF9E6"/>
<stop offset="1" stop-color="#F9E9C3"/>
</linearGradient>
</defs>
</svg>
