<svg width="282" height="415" viewBox="0 0 282 415" fill="none" xmlns="http://www.w3.org/2000/svg">
<path d="M5.84261 414.083C-1.95739 375.183 -6.15739 331.983 21.3426 306.783C42.6426 287.183 73.0426 287.783 102.443 288.283C129.943 288.783 158.443 289.283 179.443 273.483C212.743 248.483 208.743 197.883 203.343 169.983C202.143 163.583 200.743 157.183 199.343 150.783C192.643 119.683 185.743 87.3827 196.243 57.4827C208.243 23.0827 244.843 -1.61733 281.143 0.0826684L281.043 2.58267C279.943 2.58267 278.843 2.48267 277.643 2.48267C243.543 2.48267 210.043 25.9827 198.743 58.1827C188.543 87.4827 195.343 119.283 201.943 150.083C203.343 156.383 204.743 162.983 205.943 169.383C211.443 197.883 215.443 249.683 181.043 275.483C159.243 291.883 130.343 291.283 102.443 290.783C72.2426 290.283 43.6426 289.683 23.1426 308.583C-3.35739 333.083 0.842605 375.383 8.44261 413.583L5.84261 414.083Z" fill="#F7F7F7"/>
</svg>
