<svg width="30" height="30" viewBox="0 0 30 30" fill="none" xmlns="http://www.w3.org/2000/svg">
<path d="M30 23.5711C30 24.5505 29.2061 25.3446 28.2267 25.3446H1.77334C0.793945 25.3446 0 24.5505 0 23.5711V6.42867C0 5.44928 0.793945 4.65527 1.77334 4.65527H28.2267C29.2061 4.65527 30 5.44928 30 6.42867V23.5711Z" fill="#306FC5"/>
<path opacity="0.15" d="M1.26076 23.5711V6.42867C1.26076 5.44928 2.05482 4.65527 3.03422 4.65527H1.77328C0.793945 4.65527 0 5.44922 0 6.42867V23.5712C0 24.5506 0.793945 25.3446 1.77334 25.3446H3.03428C2.05488 25.3446 1.26076 24.5505 1.26076 23.5711Z" fill="#202121"/>
<path d="M4.37051 12.9348H5.26688L4.81881 11.7939L4.37051 12.9348Z" fill="white"/>
<path d="M9.13745 16.7642V17.2939H10.645V17.8644H9.13745V18.4757H10.8079L11.582 17.6199L10.8487 16.7642H9.13745Z" fill="white"/>
<path d="M20.912 11.7939L20.423 12.9348H21.3602L20.912 11.7939Z" fill="white"/>
<path d="M13.4969 18.8013V16.479L12.4376 17.6199L13.4969 18.8013Z" fill="white"/>
<path d="M15.4933 17.131C15.4526 16.8866 15.2894 16.7642 15.0449 16.7642H14.1895V17.4975H15.0859C15.3303 17.4976 15.4933 17.3754 15.4933 17.131Z" fill="white"/>
<path d="M18.3451 17.4164C18.4266 17.3755 18.4675 17.2532 18.4675 17.1312C18.5083 16.9684 18.4266 16.8867 18.3451 16.846C18.2638 16.8052 18.1414 16.8052 18.0194 16.8052H17.2043V17.4571H18.0193C18.1414 17.4571 18.2638 17.4571 18.3451 17.4164Z" fill="white"/>
<path d="M24.2119 10.7344V11.2233L23.9677 10.7344H22.0529V11.2233L21.8084 10.7344H19.2008C18.7527 10.7344 18.3858 10.8159 18.0601 10.9789V10.7344H16.2267V10.7752V10.9789C16.023 10.816 15.7786 10.7344 15.4526 10.7344H8.89306L8.4447 11.753L7.99664 10.7344H6.52998H5.91878V11.2233L5.71505 10.7344H5.67427H3.92238L3.1074 12.6492L2.17042 14.7271L2.1532 14.7679H2.17042H4.24833H4.27435L4.28912 14.7271L4.53369 14.1161H5.06332L5.30777 14.7679H7.67062V14.7271V14.279L7.87447 14.7679H9.05589L9.25951 14.279V14.7271V14.7679H10.1966H14.882H14.9228V13.7085H15.0045C15.0859 13.7085 15.0859 13.7085 15.0859 13.8308V14.7271H18.0194V14.4827C18.2638 14.6051 18.6303 14.7271 19.1193 14.7271H20.3417L20.5861 14.0754H21.1564L21.4008 14.7271H23.7638V14.3198V14.1161L24.1307 14.7271H24.2119H24.2528H26.0455V10.7344H24.212H24.2119ZM10.4004 14.1569H9.99293H9.74853V13.9126V11.916L9.70775 12.0094V12.0083L8.75994 14.1569H8.72994H8.51203H8.15947L7.18171 11.916V14.1569H5.79656L5.51138 13.5458H4.12599L3.84076 14.1569H3.12457L4.32984 11.3048H5.34832L6.48908 14.0346V11.3048H6.73347H7.56849L7.58771 11.3457H7.58912L8.10316 12.4645L8.4723 13.3027L8.48537 13.2605L9.30017 11.3049H10.4004V14.1569H10.4004ZM13.2118 11.916H11.6228V12.4456H13.171V13.016H11.6228V13.5865H13.2118V14.1975H10.9302V11.3049H13.2118V11.916ZM16.1177 12.9666C16.1188 12.9675 16.1201 12.9681 16.1214 12.969C16.1368 12.9853 16.15 13.0017 16.1613 13.0173C16.2393 13.1196 16.3024 13.2718 16.3056 13.4949C16.3058 13.4988 16.306 13.5026 16.3062 13.5064C16.3062 13.5087 16.3066 13.5106 16.3066 13.5129C16.3066 13.5142 16.3065 13.5152 16.3065 13.5164C16.3075 13.5388 16.308 13.5618 16.308 13.5865V14.157H15.697V13.8309C15.697 13.6679 15.697 13.4234 15.5746 13.2605C15.5361 13.222 15.4972 13.1966 15.4547 13.1786C15.3937 13.139 15.278 13.1384 15.0859 13.1384H14.3523V14.157H13.6598V11.3049H15.2082C15.5746 11.3049 15.8192 11.3049 16.023 11.4271C16.2226 11.547 16.3432 11.7458 16.3478 12.0606C16.3383 12.4942 16.06 12.7321 15.8599 12.8123C15.8599 12.8123 15.9959 12.8397 16.1177 12.9666ZM17.4897 14.1569H16.797V11.3048H17.4897V14.1569ZM25.4345 14.1569H24.5381L23.2343 11.9974V13.7901L23.2301 13.7859V14.1587H22.5418V14.157H21.8491L21.6046 13.5458H20.1785L19.9341 14.1976H19.16C18.8343 14.1976 18.4266 14.1162 18.1822 13.8717C17.9378 13.6273 17.8157 13.3013 17.8157 12.7717C17.8157 12.3643 17.897 11.9566 18.1822 11.6308C18.3858 11.3862 18.7526 11.3049 19.2007 11.3049H19.8527V11.916H19.2007C18.9562 11.916 18.8343 11.9566 18.671 12.079C18.549 12.2012 18.4674 12.4456 18.4674 12.7308C18.4674 13.0568 18.5082 13.2605 18.671 13.4234C18.7935 13.5458 18.9563 13.5866 19.16 13.5866H19.4452L20.3821 11.3458H20.7898H21.4008L22.5417 14.0755V13.9363V13.0161V12.9347V11.3459H23.5602L24.7415 13.3421V11.3459H25.4344V14.157H25.4345V14.1569Z" fill="white"/>
<path d="M15.5368 12.4928C15.5487 12.48 15.5594 12.4656 15.5686 12.4491C15.6055 12.3907 15.6478 12.2854 15.625 12.1418C15.6241 12.1287 15.6217 12.1165 15.6189 12.1047C15.6181 12.1014 15.6182 12.0985 15.6173 12.0953L15.6169 12.0953C15.5966 12.0255 15.5449 11.9826 15.4933 11.9566C15.4116 11.916 15.2894 11.916 15.1672 11.916H14.3522V12.568H15.1672C15.2894 12.568 15.4117 12.568 15.4933 12.5271C15.5055 12.5209 15.5164 12.5125 15.5269 12.5029L15.527 12.5035C15.5271 12.5034 15.5313 12.4991 15.5368 12.4928Z" fill="white"/>
<path d="M27.8382 18.231C27.8382 17.9458 27.7568 17.6605 27.6346 17.4568V15.6235H27.6327V15.5011C27.6327 15.5011 25.925 15.5011 25.6708 15.5011C25.4168 15.5011 25.1085 15.7455 25.1085 15.7455V15.5011H23.2344C22.949 15.5011 22.5826 15.5827 22.4194 15.7455V15.5011H19.0786V15.6235V15.7454C18.8344 15.5419 18.3858 15.501 18.1823 15.501H15.9821V15.6234V15.7454C15.7785 15.5418 15.2893 15.501 15.0448 15.501H12.6006L12.03 16.1122L11.5004 15.501H11.3298H11.0522H7.83368V15.6234V15.9452V19.6162H11.419L12.0081 19.0269L12.5188 19.6162H12.5597H14.6256H14.7192H14.76H14.8005V19.2088V18.6792H15.0044C15.2893 18.6792 15.6562 18.6792 15.9414 18.5568V19.5752V19.6569H17.7748V19.5752V18.5975H17.8561C17.9785 18.5975 17.9785 18.5975 17.9785 18.7198V19.5752V19.6569H23.5193C23.8863 19.6569 24.2527 19.5752 24.4564 19.4123V19.5752V19.6569H26.2084C26.5749 19.6569 26.9419 19.6162 27.1863 19.4531C27.5614 19.2281 27.7979 18.8297 27.833 18.3546C27.8347 18.3405 27.8367 18.3264 27.838 18.3123L27.8356 18.31C27.8371 18.2837 27.8382 18.2576 27.8382 18.231ZM15.0044 17.9866H14.1894V18.1085V18.3531V18.5976V19.0458H12.8502L12.0708 18.1494L12.0681 18.1523L12.03 18.1085L11.1337 19.0458H8.52626V16.1938H11.1745L11.898 16.9863L12.0501 17.1523L12.0708 17.1309L12.9265 16.1939H15.0858C15.5048 16.1939 15.9741 16.2973 16.1519 16.7237C16.1733 16.8081 16.1857 16.902 16.1857 17.0087C16.1857 17.8235 15.6153 17.9866 15.0044 17.9866ZM19.0786 17.9457C19.16 18.0677 19.2008 18.2309 19.2008 18.4755V19.0457H18.5083V18.6792C18.5083 18.5159 18.5083 18.2309 18.3859 18.1085C18.3046 17.9866 18.1414 17.9866 17.8972 17.9866H17.1639V19.0458H16.4713V16.1531H18.0194C18.3451 16.1531 18.6303 16.1531 18.8344 16.2752C19.0379 16.3975 19.2008 16.6013 19.2008 16.9272C19.2008 17.3753 18.9157 17.6197 18.712 17.7013C18.9157 17.7825 19.0379 17.8642 19.0786 17.9457ZM21.89 16.764H20.3008V17.2937H21.8491V17.8642H20.3008V18.4346H21.89V19.0457H19.6084V16.153H21.89V16.764ZM23.601 19.0458H22.2972V18.4347H23.601C23.723 18.4347 23.8047 18.4347 23.8864 18.3531C23.9272 18.3123 23.9676 18.231 23.9676 18.1494C23.9676 18.0677 23.9272 17.9866 23.8864 17.9458C23.8455 17.9051 23.7639 17.8643 23.6417 17.8643C22.9898 17.8235 22.2157 17.8643 22.2157 16.968C22.2157 16.5606 22.4601 16.1123 23.1936 16.1123H24.538V16.8049H23.2751C23.1529 16.8049 23.0713 16.8049 22.9897 16.8456C22.9084 16.8865 22.9084 16.968 22.9084 17.0494C22.9084 17.1717 22.9897 17.2125 23.0712 17.2529C23.1529 17.2938 23.2343 17.2938 23.3157 17.2938H23.6824C24.0491 17.2938 24.2935 17.3753 24.4565 17.5383C24.5788 17.6606 24.6603 17.8643 24.6603 18.1494C24.6603 18.7604 24.2936 19.0458 23.601 19.0458ZM27.1049 18.7604C26.9421 18.9236 26.6567 19.0458 26.2492 19.0458H24.9457V18.4347H26.2491C26.3714 18.4347 26.4531 18.4347 26.5345 18.3531C26.5751 18.3123 26.616 18.231 26.616 18.1494C26.616 18.0677 26.5751 17.9866 26.5345 17.9458C26.4937 17.9051 26.4123 17.8643 26.29 17.8643C25.6383 17.8235 24.864 17.8643 24.864 16.9681C24.864 16.5809 25.0856 16.2311 25.6319 16.1272C25.6973 16.1181 25.7663 16.1123 25.8419 16.1123H27.1865V16.8049H26.29H25.9642H25.9234C25.8011 16.8049 25.7197 16.8049 25.6383 16.8456C25.5973 16.8865 25.5565 16.968 25.5565 17.0494C25.5565 17.1717 25.5973 17.2125 25.7197 17.2529C25.8011 17.2938 25.8826 17.2938 25.9642 17.2938H26.0047H26.3307C26.5088 17.2938 26.6434 17.3157 26.7667 17.359C26.8795 17.3999 27.2531 17.567 27.3367 18.0032C27.3439 18.0489 27.3493 18.0966 27.3493 18.1494C27.3493 18.3939 27.2678 18.5976 27.1049 18.7604Z" fill="white"/>
</svg>
