<svg width="30" height="30" viewBox="0 0 30 30" fill="none" xmlns="http://www.w3.org/2000/svg">
<path d="M30 23.5712C30 24.5506 29.2061 25.3446 28.2267 25.3446H1.77334C0.793945 25.3446 0 24.5505 0 23.5712V6.42867C0 5.44922 0.793945 4.65527 1.77334 4.65527H28.2266C29.2061 4.65527 29.9999 5.44928 29.9999 6.42867L30 23.5712Z" fill="#E7E8E3"/>
<path d="M25.6768 12.5801L24.2318 15.442L23.6202 16.6125L22.8934 15.2133L21.5637 12.5801H20.1525L22.9241 17.8024L21.8459 19.8386H23.2172L26.9672 12.5801H25.6768Z" fill="#4A9E19"/>
<path opacity="0.15" d="M1.26076 23.5712V6.42867C1.26076 5.44922 2.05482 4.65527 3.03422 4.65527H1.77328C0.793945 4.65527 0 5.44934 0 6.42867V23.5712C0 24.5506 0.793945 25.3446 1.77334 25.3446H3.03428C2.05488 25.3446 1.26076 24.5505 1.26076 23.5712Z" fill="#202121"/>
<path d="M8.90189 15.4029C8.94226 15.4029 9.30531 12.2578 5.95832 12.2578C5.95094 12.2578 5.94379 12.258 5.9364 12.258C5.93014 12.258 5.92416 12.2578 5.91795 12.2578L5.91742 12.2583C3.77166 12.2739 3.10668 13.4982 2.91742 14.409C2.91678 14.4098 2.91601 14.4105 2.91525 14.4114C2.81904 14.8598 2.6374 16.1521 3.46293 17.0961C3.46316 17.0963 3.46334 17.0965 3.46346 17.0967C3.8998 17.5877 4.62678 17.9838 5.83738 17.9838C5.84353 17.9838 5.84928 17.9835 5.85531 17.9835C5.86269 17.9835 5.86996 17.9838 5.87746 17.9838C8.61976 17.9838 8.74064 16.25 8.74064 16.25H8.70027H7.4906H7.45023C7.45023 16.25 7.22389 17.1166 5.96986 17.1377C5.93951 17.1378 5.9091 17.1379 5.87752 17.137C4.19793 17.137 4.06978 15.5097 4.06346 15.408C4.06334 15.4047 4.06322 15.403 4.06322 15.403H8.53914H8.90189V15.4029ZM4.1033 14.5964C4.1033 14.5964 4.14508 13.8098 4.80625 13.3639C4.83935 13.3439 4.87351 13.3245 4.90984 13.3063C4.90451 13.3072 4.89941 13.3082 4.89408 13.3091C5.14668 13.1625 5.47926 13.0642 5.91795 13.0642C7.65197 13.0642 7.65197 14.5965 7.65197 14.5965L4.1033 14.5964Z" fill="#C60C1E"/>
<path d="M12.5495 12.3014C12.5031 12.2994 12.4566 12.2984 12.41 12.2984C10.9073 12.2984 10.3356 13.1512 10.3144 13.1839V10.1611H10.3133H8.94223H8.93268V14.7173V17.9032H10.0311H10.2383L10.3144 17.44C10.6146 17.7016 11.2168 18.0646 12.2488 18.0646C12.7813 18.029 13.2824 17.9074 13.7146 17.6965C14.6249 17.2775 15.2453 16.4105 15.2732 15.1611C15.2732 13.4033 13.9866 12.3647 12.5495 12.3014ZM13.701 16.1832C13.4627 16.6691 12.9892 17.1574 12.0473 17.1774C10.152 17.2178 10.152 15.1612 10.152 15.1612C10.152 15.1612 10.1206 14.3778 10.5904 13.7875C10.7061 13.6523 10.85 13.5298 11.0287 13.4331C11.119 13.3874 12.7418 12.5949 13.6709 14.1128C13.9354 14.6451 13.9024 15.2419 13.9024 15.2419C13.9024 15.2419 13.911 15.7053 13.701 16.1832Z" fill="#064C91"/>
<path d="M20.8379 17.8227C20.8379 17.7831 20.7989 17.3908 20.7976 16.5716C20.7986 16.001 20.8168 15.4862 20.8153 15.0527C20.8157 14.825 20.8114 14.6178 20.7975 14.4354C20.7571 13.8306 20.8379 12.2985 18.2167 12.1773C18.2167 12.1773 15.7167 12.1369 15.4344 13.75H15.6267H16.7806C16.8067 13.6869 16.868 13.5587 16.9721 13.4311C17.0715 13.317 17.392 13.0267 18.0751 13.0234C18.0955 13.0235 18.1153 13.0234 18.1363 13.0241C18.6598 13.0409 18.9986 13.1573 19.2164 13.3427C19.2184 13.3443 19.2203 13.3455 19.2225 13.3472C19.2237 13.3483 19.2247 13.3494 19.226 13.3506C19.2568 13.3776 19.2847 13.4063 19.3108 13.4361L19.3113 13.4356C19.3113 13.4356 19.3529 13.4768 19.3997 13.5559C19.4041 13.563 19.409 13.5699 19.4132 13.5771C19.4124 13.5767 19.4116 13.5764 19.4109 13.5761C19.4511 13.6481 19.4933 13.7461 19.5158 13.8726C19.5158 13.8727 19.5158 13.8728 19.5158 13.873C19.5512 14.0314 19.5474 14.1529 19.5474 14.1529V14.3965C19.3525 14.4038 18.4972 14.4354 18.1765 14.4354C17.6643 14.4354 16.1619 14.487 15.4632 15.1939C15.2599 15.384 15.1163 15.624 15.0716 15.9273C14.8297 17.5403 16.241 18.0242 17.37 18.0242C17.3759 18.0242 17.3814 18.0239 17.3872 18.0239C17.395 18.0239 17.4028 18.0242 17.4105 18.0242C18.5104 18.0242 19.1509 17.7171 19.6306 17.1418L19.6685 17.8627H19.7089H20.7974H20.8378C20.8378 17.8627 20.8365 17.8492 20.8344 17.8227H20.8379ZM17.612 17.2178C17.612 17.2178 16.4023 17.2178 16.3216 16.2501C16.2409 15.2017 18.1765 15.2822 18.1765 15.2822H19.5474C19.5879 15.2822 19.8298 17.2582 17.612 17.2178Z" fill="#F48D1C"/>
</svg>
