<svg width="260" height="80" viewBox="0 0 260 80" fill="none" xmlns="http://www.w3.org/2000/svg">
<g opacity="0.8">
<path d="M23.3305 18.8936C25.2658 22.9961 27.3085 27.3146 29.2438 31.3092H84.2911C84.8287 27.8544 85.2587 23.2121 85.5813 18.8936H23.3305Z" fill="#00BAFF"/>
<path d="M86.2264 7.23364H19.3525C20.1051 8.74511 20.9652 10.3645 21.7178 12.1999H85.7963C86.0113 10.2566 86.1189 8.52919 86.2264 7.23364Z" fill="#00BAFF"/>
<path d="M37.6299 44.0488C43.6507 45.5602 81.7108 39.8382 83.216 37.3551C83.3235 37.1392 83.5385 36.5994 83.646 36.0596H31.0715C33.5444 40.378 35.8022 43.5089 37.6299 44.0488Z" fill="#00BAFF"/>
<path d="M98.4831 1.61943C92.9999 1.61943 90.9571 7.9892 90.097 15.5466H85.7964H21.7179H19.2451C14.2994 6.90958 8.81617 0 1.61271 0C0.7526 0 0 0.755736 0 1.61943C0 2.48313 0.7526 3.23887 1.61271 3.23887C6.66589 3.23887 11.289 8.63698 15.3745 15.5466H14.7295C13.7618 15.5466 13.1167 16.3023 13.1167 17.166C13.1167 18.1377 13.8693 18.7854 14.7295 18.7854H17.2023C18.9225 21.9163 20.5352 25.1552 22.0404 28.2861C22.4705 29.2578 23.0081 30.2294 23.4381 31.0931H22.9005C21.9329 31.0931 21.2878 31.8489 21.2878 32.7126C21.2878 33.6842 22.0404 34.332 22.9005 34.332H25.1583C29.889 43.5088 34.4046 50.5263 40.3179 50.5263C50.5317 50.5263 71.9271 47.7193 83.0011 44.0486C74.83 51.1741 58.7028 54.305 46.1236 56.7881C33.9745 59.1633 28.0612 60.4588 27.4162 64.0216C27.2011 65.1012 27.5237 66.0729 28.2763 66.9366C30.2115 69.0958 35.0497 69.4197 37.845 69.4197V71.471C36.2323 72.1188 35.0497 73.7382 35.0497 75.5735C35.0497 78.0567 37.0924 80 39.4578 80C41.9306 80 43.8658 77.9487 43.8658 75.5735C43.8658 73.7382 42.6832 72.1188 41.0705 71.471V69.4197H77.7329V71.471C76.1201 72.1188 74.9375 73.7382 74.9375 75.5735C74.9375 78.0567 76.9803 80 79.3456 80C81.8184 80 83.7537 77.9487 83.7537 75.5735C83.7537 73.7382 82.571 72.1188 80.9583 71.471V69.4197H89.6669C90.6346 69.4197 91.2797 68.664 91.2797 67.8003C91.2797 66.8286 90.5271 66.1808 89.6669 66.1808H79.3456H39.4578H39.3502C34.9422 66.3968 30.9641 65.641 30.6416 64.7773C31.3942 63.2659 40.2104 61.5385 46.6612 60.2429C64.5086 56.7881 88.5918 52.0378 91.3872 36.5992C91.3872 36.4912 91.3872 36.3833 91.4947 36.3833V36.2753C91.6022 35.8435 91.7097 35.3036 91.7097 34.7638H93.1074C94.075 34.7638 94.7201 34.0081 94.7201 33.1444C94.7201 32.1727 93.9675 31.525 93.1074 31.525H92.0323C92.1398 29.7976 92.3548 27.8542 92.4623 25.695C92.5698 23.6437 92.7849 21.3765 92.8924 19.2173H94.075C95.0427 19.2173 95.6877 18.4615 95.6877 17.5978C95.6877 16.6262 94.9351 15.9784 94.075 15.9784H93.3224C94.075 10.2564 95.4727 5.39811 98.3756 5.39811C99.3432 5.39811 99.9883 4.64238 99.9883 3.77868C100.096 2.37517 99.4507 1.61943 98.4831 1.61943ZM29.0289 34.6559H31.0716H83.6461H88.3768C88.2693 35.0877 88.2693 35.5196 88.1617 35.8435C88.1617 35.9514 88.0542 36.1673 88.0542 36.2753C87.8392 37.4629 87.5167 38.3266 87.0866 38.7584C83.3236 42.5371 54.8323 47.5034 40.4254 47.5034C36.5549 47.5034 32.7919 41.6734 29.0289 34.6559ZM89.2369 25.2632C89.1294 27.2065 89.0219 29.3657 88.8068 31.309H84.2912H29.2439H27.3086C26.556 29.9055 25.911 28.3941 25.1583 26.9906C23.8682 24.2915 22.4705 21.5924 21.0728 18.8934H23.3306H85.5814H89.7745C89.5594 21.0526 89.4519 23.1039 89.2369 25.2632Z" fill="url(#paint0_linear_115_89)"/>
<path d="M120.055 31.1447V30.037C120.055 29.2616 120.443 28.8739 121.218 28.8739H125.926C126.702 28.8739 127.089 29.2616 127.089 30.037V30.4801C127.089 31.8832 127.366 32.8432 127.92 33.3601C128.474 33.877 129.489 34.1355 130.966 34.1355H133.569C135.009 34.1355 136.006 33.8586 136.56 33.3047C137.151 32.7509 137.446 31.717 137.446 30.2032V29.5386C137.446 28.4678 137.003 27.6555 136.117 27.1016C135.268 26.5109 134.197 26.1601 132.905 26.0493C131.612 25.9386 130.209 25.7355 128.695 25.4401C127.218 25.1078 125.834 24.7016 124.542 24.2216C123.249 23.7047 122.16 22.7262 121.274 21.2862C120.425 19.8093 120 17.9262 120 15.637V13.6986C120 10.8186 120.812 8.58471 122.437 6.99702C124.062 5.40932 126.314 4.61548 129.194 4.61548H134.732C137.649 4.61548 139.92 5.40932 141.545 6.99702C143.169 8.58471 143.982 10.8186 143.982 13.6986V14.7509C143.982 15.5262 143.594 15.9139 142.818 15.9139H138.111C137.335 15.9139 136.948 15.5262 136.948 14.7509V14.4186C136.948 12.9786 136.671 12.0001 136.117 11.4832C135.563 10.9662 134.548 10.7078 133.071 10.7078H130.911C129.397 10.7078 128.363 11.0032 127.809 11.5939C127.292 12.1478 127.034 13.2555 127.034 14.917V15.9693C127.034 17.7047 128.548 18.7016 131.575 18.9601C134.714 19.2186 137.502 19.8462 139.938 20.8432C141.231 21.397 142.302 22.3939 143.151 23.8339C144.037 25.237 144.48 27.0462 144.48 29.2616V31.1447C144.48 34.0247 143.668 36.2586 142.043 37.8462C140.418 39.4339 138.166 40.2278 135.286 40.2278H129.249C126.369 40.2278 124.117 39.4339 122.492 37.8462C120.868 36.2586 120.055 34.0247 120.055 31.1447Z" fill="url(#paint1_linear_115_89)"/>
<path d="M156.114 40.2278H151.407C150.631 40.2278 150.243 39.8401 150.243 39.0647V13.1447C150.243 12.3693 150.631 11.9816 151.407 11.9816H156.114C156.89 11.9816 157.277 12.3693 157.277 13.1447V14.9724H157.499C157.942 14.0862 158.68 13.3662 159.714 12.8124C160.785 12.2586 162.003 11.9816 163.37 11.9816H164.92C168.133 11.9816 170.44 13.1632 171.843 15.5262C173.099 13.1632 175.259 11.9816 178.323 11.9816H179.93C182.773 11.9816 184.914 12.757 186.354 14.3078C187.831 15.8586 188.57 18.0924 188.57 21.0093V39.0647C188.57 39.8401 188.182 40.2278 187.407 40.2278H182.699C181.923 40.2278 181.536 39.8401 181.536 39.0647V21.3416C181.536 20.1601 181.296 19.3293 180.816 18.8493C180.336 18.3324 179.505 18.0739 178.323 18.0739H176.939C174.391 18.0739 173.117 19.4955 173.117 22.3386V39.0647C173.117 39.8401 172.711 40.2278 171.899 40.2278H167.247C166.471 40.2278 166.083 39.8401 166.083 39.0647V21.3416C166.083 20.1601 165.825 19.3293 165.308 18.8493C164.828 18.3324 163.997 18.0739 162.816 18.0739H161.099C158.551 18.0739 157.277 19.477 157.277 22.2832V39.0647C157.277 39.8401 156.89 40.2278 156.114 40.2278Z" fill="url(#paint2_linear_115_89)"/>
<path d="M204.346 40.2278H203.017C200.1 40.2278 197.848 39.4524 196.26 37.9016C194.672 36.3509 193.878 34.117 193.878 31.2001V21.0093C193.878 18.0924 194.672 15.8586 196.26 14.3078C197.848 12.757 200.1 11.9816 203.017 11.9816H215.811C216.623 11.9816 217.029 12.3693 217.029 13.1447V39.0647C217.029 39.8401 216.623 40.2278 215.811 40.2278H211.158C210.383 40.2278 209.995 39.8401 209.995 39.0647V37.237H209.774C209.368 38.2339 208.648 38.9909 207.614 39.5078C206.58 39.9878 205.491 40.2278 204.346 40.2278ZM209.995 29.9262V18.6832C209.995 18.277 209.774 18.0739 209.331 18.0739H204.124C202.943 18.0739 202.112 18.3324 201.632 18.8493C201.152 19.3293 200.912 20.1601 200.912 21.3416V30.8678C200.912 32.0493 201.152 32.8986 201.632 33.4155C202.112 33.8955 202.943 34.1355 204.124 34.1355H206.174C208.721 34.1355 209.995 32.7324 209.995 29.9262Z" fill="url(#paint3_linear_115_89)"/>
<path d="M228.969 40.2278H224.261C223.486 40.2278 223.098 39.8401 223.098 39.0647V13.1447C223.098 12.3693 223.486 11.9816 224.261 11.9816H228.969C229.744 11.9816 230.132 12.3693 230.132 13.1447V15.0278H230.353C230.76 14.0309 231.48 13.2739 232.513 12.757C233.547 12.2401 234.636 11.9816 235.781 11.9816H237.775C238.513 11.9816 238.883 12.3693 238.883 13.1447V16.9662C238.883 17.4093 238.79 17.7232 238.606 17.9078C238.458 18.0555 238.181 18.1109 237.775 18.0739H233.953C231.406 18.0739 230.132 19.5139 230.132 22.3939V39.0647C230.132 39.8401 229.744 40.2278 228.969 40.2278Z" fill="url(#paint4_linear_115_89)"/>
<path d="M243.016 18.0739H240.801C240.358 18.0739 240.044 18.0001 239.859 17.8524C239.712 17.7047 239.638 17.4093 239.638 16.9662V13.1447C239.638 12.3693 240.025 11.9816 240.801 11.9816H243.016C243.422 11.9816 243.625 11.7786 243.625 11.3724V6.11086C243.625 5.33548 244.032 4.94779 244.844 4.94779H249.496C250.272 4.94779 250.659 5.33548 250.659 6.11086V11.3724C250.659 11.7786 250.881 11.9816 251.324 11.9816H255.644C256.419 11.9816 256.807 12.3693 256.807 13.1447V16.9662C256.807 17.3724 256.715 17.6678 256.53 17.8524C256.382 18.0001 256.087 18.0739 255.644 18.0739H251.324C250.881 18.0739 250.659 18.277 250.659 18.6832V30.9232C250.659 32.0678 250.918 32.8986 251.435 33.4155C251.952 33.8955 252.801 34.1355 253.982 34.1355H256.198C256.973 34.1355 257.361 34.5232 257.361 35.2986V39.1201C257.361 39.5262 257.268 39.8216 257.084 40.0062C256.936 40.1539 256.641 40.2278 256.198 40.2278H252.819C249.902 40.2278 247.632 39.4524 246.007 37.9016C244.419 36.3509 243.625 34.1355 243.625 31.2555V18.6832C243.625 18.277 243.422 18.0739 243.016 18.0739Z" fill="url(#paint5_linear_115_89)"/>
<path d="M120 64.9099V63.7529C120 63.4154 120.173 63.2467 120.52 63.2467H122.191C122.537 63.2467 122.711 63.4154 122.711 63.7529V64.693C122.711 66.8624 123.812 67.9471 126.016 67.9471H129.283C131.487 67.9471 132.588 66.8383 132.588 64.6207V63.3913C132.588 61.6558 131.115 60.5229 128.169 59.9926C126.932 59.7757 125.694 59.5226 124.456 59.2333C123.218 58.9441 122.166 58.3897 121.3 57.5701C120.433 56.7265 120 55.5815 120 54.1353V52.3636C120 50.7004 120.483 49.3987 121.448 48.4587C122.438 47.4945 123.788 47.0124 125.496 47.0124H129.617C131.301 47.0124 132.638 47.4945 133.628 48.4587C134.618 49.3987 135.113 50.7004 135.113 52.3636V53.2675C135.113 53.6291 134.952 53.8098 134.63 53.8098H132.922C132.6 53.8098 132.44 53.6291 132.44 53.2675V52.6167C132.44 50.4232 131.338 49.3264 129.135 49.3264H125.978C123.775 49.3264 122.674 50.4714 122.674 52.7613V54.2076C122.674 55.4369 123.503 56.2805 125.162 56.7385C125.904 56.9314 126.721 57.1121 127.612 57.2809C128.503 57.4255 129.395 57.6304 130.286 57.8955C131.202 58.1366 132.031 58.4499 132.774 58.8356C133.516 59.1972 134.111 59.7636 134.556 60.535C135.027 61.2822 135.262 62.1982 135.262 63.2829V64.9099C135.262 66.5731 134.767 67.8868 133.776 68.851C132.786 69.791 131.449 70.2611 129.766 70.2611H125.496C123.812 70.2611 122.476 69.791 121.485 68.851C120.495 67.8868 120 66.5731 120 64.9099Z" fill="white"/>
<path d="M142.677 70.2611H141.006C140.659 70.2611 140.486 70.0923 140.486 69.7549V45.3492C140.486 45.0117 140.659 44.843 141.006 44.843H142.677C143.023 44.843 143.197 45.0117 143.197 45.3492V53.7375H143.345C143.964 52.46 145.227 51.8212 147.133 51.8212H149.212C150.896 51.8212 152.208 52.2913 153.148 53.2313C154.089 54.1714 154.559 55.4851 154.559 57.1724V69.7549C154.559 70.0923 154.386 70.2611 154.039 70.2611H152.368C152.022 70.2611 151.849 70.0923 151.849 69.7549V57.2809C151.849 55.1838 150.809 54.1353 148.729 54.1353H146.65C145.536 54.1353 144.682 54.4245 144.088 55.003C143.494 55.5815 143.197 56.4011 143.197 57.4617V69.7549C143.197 70.0923 143.023 70.2611 142.677 70.2611Z" fill="white"/>
<path d="M167.805 70.2611H164.612C162.904 70.2611 161.555 69.791 160.564 68.851C159.599 67.9109 159.116 66.5972 159.116 64.9099V57.1724C159.116 55.4851 159.599 54.1714 160.564 53.2313C161.555 52.2913 162.904 51.8212 164.612 51.8212H167.805C169.514 51.8212 170.85 52.2913 171.816 53.2313C172.806 54.1714 173.301 55.4851 173.301 57.1724V64.9099C173.301 66.5972 172.806 67.9109 171.816 68.851C170.85 69.791 169.514 70.2611 167.805 70.2611ZM164.909 67.9471H167.508C169.588 67.9471 170.627 66.9106 170.627 64.8376V57.2447C170.627 55.1717 169.588 54.1353 167.508 54.1353H164.909C162.83 54.1353 161.79 55.1717 161.79 57.2447V64.8376C161.79 66.9106 162.83 67.9471 164.909 67.9471Z" fill="white"/>
<path d="M180.245 75.5399H178.574C178.227 75.5399 178.054 75.3712 178.054 75.0337V52.3274C178.054 51.99 178.227 51.8212 178.574 51.8212H180.245C180.592 51.8212 180.765 51.99 180.765 52.3274V53.7375H180.913C181.532 52.46 182.795 51.8212 184.701 51.8212H186.929C188.612 51.8212 189.912 52.2913 190.828 53.2313C191.769 54.1714 192.239 55.4851 192.239 57.1724V64.9099C192.239 66.5972 191.769 67.9109 190.828 68.851C189.912 69.791 188.612 70.2611 186.929 70.2611H184.701C182.795 70.2611 181.532 69.6223 180.913 68.3448H180.765V75.0337C180.765 75.3712 180.592 75.5399 180.245 75.5399ZM184.218 67.9471H186.409C188.513 67.9471 189.565 66.8985 189.565 64.8014V57.2809C189.565 55.1838 188.513 54.1353 186.409 54.1353H184.218C183.104 54.1353 182.25 54.4245 181.656 55.003C181.062 55.5815 180.765 56.4011 180.765 57.4617V64.6207C180.765 65.6812 181.062 66.5008 181.656 67.0793C182.25 67.6578 183.104 67.9471 184.218 67.9471Z" fill="white"/>
<path d="M199.174 75.5399H197.503C197.157 75.5399 196.983 75.3712 196.983 75.0337V52.3274C196.983 51.99 197.157 51.8212 197.503 51.8212H199.174C199.521 51.8212 199.694 51.99 199.694 52.3274V53.7375H199.843C200.461 52.46 201.724 51.8212 203.63 51.8212H205.858C207.541 51.8212 208.841 52.2913 209.757 53.2313C210.698 54.1714 211.168 55.4851 211.168 57.1724V64.9099C211.168 66.5972 210.698 67.9109 209.757 68.851C208.841 69.791 207.541 70.2611 205.858 70.2611H203.63C201.724 70.2611 200.461 69.6223 199.843 68.3448H199.694V75.0337C199.694 75.3712 199.521 75.5399 199.174 75.5399ZM203.147 67.9471H205.338C207.442 67.9471 208.495 66.8985 208.495 64.8014V57.2809C208.495 55.1838 207.442 54.1353 205.338 54.1353H203.147C202.033 54.1353 201.179 54.4245 200.585 55.003C199.991 55.5815 199.694 56.4011 199.694 57.4617V64.6207C199.694 65.6812 199.991 66.5008 200.585 67.0793C201.179 67.6578 202.033 67.9471 203.147 67.9471Z" fill="white"/>
<path d="M216.098 48.7841V45.3854C216.098 45.0479 216.259 44.8792 216.581 44.8792H218.289C218.636 44.8792 218.809 45.0479 218.809 45.3854V48.7841C218.809 49.1215 218.636 49.2903 218.289 49.2903H216.581C216.259 49.2903 216.098 49.1215 216.098 48.7841ZM216.098 69.7549V52.3274C216.098 51.99 216.259 51.8212 216.581 51.8212H218.289C218.636 51.8212 218.809 51.99 218.809 52.3274V69.7549C218.809 70.0923 218.636 70.2611 218.289 70.2611H216.618C216.271 70.2611 216.098 70.0923 216.098 69.7549Z" fill="white"/>
<path d="M226.299 70.2611H224.628C224.281 70.2611 224.108 70.0923 224.108 69.7549V52.3274C224.108 51.99 224.281 51.8212 224.628 51.8212H226.299C226.645 51.8212 226.819 51.99 226.819 52.3274V53.7375H226.967C227.586 52.46 228.849 51.8212 230.755 51.8212H232.834C234.518 51.8212 235.83 52.2913 236.77 53.2313C237.711 54.1714 238.181 55.4851 238.181 57.1724V69.7549C238.181 70.0923 238.008 70.2611 237.661 70.2611H235.99C235.644 70.2611 235.471 70.0923 235.471 69.7549V57.2809C235.471 55.1838 234.431 54.1353 232.351 54.1353H230.272C229.158 54.1353 228.304 54.4245 227.71 55.003C227.116 55.5815 226.819 56.4011 226.819 57.4617V69.7549C226.819 70.0923 226.645 70.2611 226.299 70.2611Z" fill="white"/>
<path d="M250.276 69.2849H248.197C246.513 69.2849 245.201 68.8148 244.261 67.8747C243.32 66.9347 242.85 65.621 242.85 63.9337V57.1724C242.85 55.4851 243.332 54.1714 244.298 53.2313C245.288 52.2913 246.637 51.8212 248.345 51.8212H256.403C256.75 51.8212 256.923 51.99 256.923 52.3274V70.2611C256.923 71.9243 256.428 73.2259 255.438 74.166C254.472 75.1302 253.135 75.6122 251.427 75.6122H244.595C244.224 75.6122 244.038 75.4435 244.038 75.1061V73.7683C244.038 73.4308 244.224 73.2621 244.595 73.2621H251.093C253.173 73.2621 254.212 72.2256 254.212 70.1526V67.3686H254.064C253.42 68.6461 252.158 69.2849 250.276 69.2849ZM254.212 63.6444V54.4607C254.212 54.2437 254.089 54.1353 253.841 54.1353H248.68C246.6 54.1353 245.56 55.1838 245.56 57.2809V63.8252C245.56 65.9223 246.6 66.9708 248.68 66.9708H250.759C251.873 66.9708 252.727 66.6816 253.321 66.1031C253.915 65.5246 254.212 64.705 254.212 63.6444Z" fill="white"/>
<path d="M110 66.1539C109.615 66.1539 109.231 65.9417 109.231 65.7295V14.2706C109.231 14.0584 109.615 13.8462 110 13.8462C110.385 13.8462 110.769 14.0584 110.769 14.2706V65.7295C110.769 65.9417 110.385 66.1539 110 66.1539Z" fill="url(#paint6_linear_115_89)"/>
</g>
<defs>
<linearGradient id="paint0_linear_115_89" x1="50" y1="0" x2="50" y2="80" gradientUnits="userSpaceOnUse">
<stop stop-color="#FFF9E6"/>
<stop offset="1" stop-color="#F9E9C3"/>
</linearGradient>
<linearGradient id="paint1_linear_115_89" x1="188.68" y1="4.61548" x2="188.68" y2="40.2278" gradientUnits="userSpaceOnUse">
<stop stop-color="#FFF9E6"/>
<stop offset="1" stop-color="#F9E9C3"/>
</linearGradient>
<linearGradient id="paint2_linear_115_89" x1="188.68" y1="4.61548" x2="188.68" y2="40.2278" gradientUnits="userSpaceOnUse">
<stop stop-color="#FFF9E6"/>
<stop offset="1" stop-color="#F9E9C3"/>
</linearGradient>
<linearGradient id="paint3_linear_115_89" x1="188.68" y1="4.61548" x2="188.68" y2="40.2278" gradientUnits="userSpaceOnUse">
<stop stop-color="#FFF9E6"/>
<stop offset="1" stop-color="#F9E9C3"/>
</linearGradient>
<linearGradient id="paint4_linear_115_89" x1="188.68" y1="4.61548" x2="188.68" y2="40.2278" gradientUnits="userSpaceOnUse">
<stop stop-color="#FFF9E6"/>
<stop offset="1" stop-color="#F9E9C3"/>
</linearGradient>
<linearGradient id="paint5_linear_115_89" x1="188.68" y1="4.61548" x2="188.68" y2="40.2278" gradientUnits="userSpaceOnUse">
<stop stop-color="#FFF9E6"/>
<stop offset="1" stop-color="#F9E9C3"/>
</linearGradient>
<linearGradient id="paint6_linear_115_89" x1="110" y1="13.8462" x2="110" y2="66.1539" gradientUnits="userSpaceOnUse">
<stop stop-color="#FFF9E6"/>
<stop offset="1" stop-color="#F9E9C3"/>
</linearGradient>
</defs>
</svg>
