<svg width="30" height="30" viewBox="0 0 30 30" fill="none" xmlns="http://www.w3.org/2000/svg">
<path d="M30 23.5712C30 24.5506 29.2061 25.3446 28.2267 25.3446H1.77334C0.793945 25.3446 0 24.5505 0 23.5712V6.42867C0 5.44922 0.793945 4.65527 1.77334 4.65527H28.2266C29.2061 4.65527 29.9999 5.44928 29.9999 6.42867L30 23.5712Z" fill="#0E407F"/>
<path d="M25.6512 18.943V18.6807H25.5829L25.5039 18.8607L25.4253 18.6807H25.3568V18.943H25.4053V18.7454L25.4792 18.9159H25.5295L25.6034 18.7449V18.943H25.6515H25.6512ZM25.2179 18.943V18.7256H25.3053V18.6813H25.0819V18.7256H25.1693V18.943H25.2174H25.2179Z" fill="#F79410"/>
<path d="M17.8871 20.0681H11.9756V9.44434H17.8872L17.8871 20.0681Z" fill="#FF5F00"/>
<path d="M12.3504 14.7565C12.3504 12.6014 13.3594 10.6817 14.9307 9.4446C13.7413 8.50676 12.2702 7.99777 10.7556 8.00001C7.02449 8.00001 4 11.0249 4 14.7565C4 18.488 7.02449 21.5129 10.7556 21.5129C12.2703 21.5152 13.7414 21.0062 14.9308 20.0684C13.3596 18.8314 12.3504 16.9116 12.3504 14.7565Z" fill="#EB001B"/>
<path d="M25.8623 14.7565C25.8623 18.488 22.8378 21.5129 19.1067 21.5129C17.5919 21.5152 16.1206 21.0062 14.931 20.0684C16.5027 18.8312 17.5117 16.9116 17.5117 14.7565C17.5117 12.6013 16.5027 10.6817 14.931 9.4446C16.1206 8.50679 17.5918 7.99781 19.1066 8.00001C22.8377 8.00001 25.8622 11.0249 25.8622 14.7565" fill="#F79E1B"/>
<path d="M25.4289 15.3805V15.4242H25.4697C25.4773 15.4244 25.4849 15.4224 25.4915 15.4187C25.4942 15.4168 25.4963 15.4143 25.4978 15.4113C25.4992 15.4084 25.4999 15.4052 25.4997 15.4019C25.4999 15.3987 25.4992 15.3956 25.4978 15.3927C25.4963 15.3899 25.4942 15.3874 25.4915 15.3856C25.485 15.3817 25.4774 15.3797 25.4697 15.3801H25.4289V15.3805ZM25.4701 15.3496C25.4876 15.3485 25.5049 15.3535 25.5191 15.3638C25.5248 15.3684 25.5293 15.3744 25.5323 15.3811C25.5352 15.3878 25.5366 15.3951 25.5362 15.4025C25.5365 15.4088 25.5354 15.4151 25.533 15.421C25.5307 15.4268 25.5271 15.4321 25.5225 15.4365C25.5115 15.446 25.4978 15.4517 25.4833 15.4528L25.538 15.5151H25.4959L25.4456 15.4532H25.4293V15.5151H25.3942V15.3497H25.4707L25.4701 15.3496ZM25.4592 15.5721C25.4776 15.5723 25.4959 15.5686 25.5128 15.5612C25.5292 15.5542 25.544 15.5441 25.5566 15.5316C25.5692 15.519 25.5792 15.5042 25.5862 15.4878C25.6005 15.4532 25.6005 15.4143 25.5862 15.3796C25.5791 15.3633 25.5691 15.3485 25.5566 15.3359C25.544 15.3234 25.5292 15.3133 25.5128 15.3063C25.4958 15.2993 25.4776 15.2958 25.4592 15.296C25.4405 15.2958 25.4219 15.2993 25.4045 15.3063C25.3879 15.3132 25.3727 15.3232 25.3598 15.3359C25.3405 15.3557 25.3274 15.3808 25.3222 15.408C25.317 15.4352 25.32 15.4634 25.3307 15.4889C25.3373 15.5053 25.3472 15.5202 25.3598 15.5327C25.3727 15.5453 25.3879 15.5554 25.4045 15.5623C25.4218 15.5696 25.4404 15.5734 25.4592 15.5732M25.4592 15.2562C25.5072 15.2562 25.5533 15.275 25.5876 15.3087C25.6041 15.3249 25.6173 15.3441 25.6263 15.3654C25.6356 15.3873 25.6405 15.4108 25.6405 15.4346C25.6405 15.4583 25.6356 15.4818 25.6263 15.5037C25.6171 15.5249 25.6039 15.5441 25.5876 15.5604C25.5708 15.5765 25.5513 15.5894 25.53 15.5987C25.5076 15.6082 25.4835 15.613 25.4592 15.6129C25.4346 15.6131 25.4102 15.6082 25.3875 15.5987C25.3659 15.5897 25.3462 15.5767 25.3294 15.5604C25.3131 15.5435 25.3002 15.5236 25.2913 15.5018C25.282 15.48 25.2771 15.4565 25.2771 15.4327C25.2771 15.4089 25.282 15.3854 25.2913 15.3636C25.3003 15.3423 25.3135 15.323 25.33 15.3068C25.3465 15.2903 25.3663 15.2773 25.388 15.2686C25.4107 15.259 25.4351 15.2542 25.4597 15.2544M8.72349 14.6176C8.72349 14.3023 8.93006 14.0432 9.26768 14.0432C9.59033 14.0432 9.80805 14.2911 9.80805 14.6176C9.80805 14.9441 9.59033 15.192 9.26768 15.192C8.93006 15.192 8.72349 14.9329 8.72349 14.6176ZM10.1758 14.6176V13.7203H9.78575V13.9389C9.66203 13.7773 9.47436 13.676 9.21915 13.676C8.71638 13.676 8.32182 14.0704 8.32182 14.618C8.32182 15.1657 8.71616 15.5601 9.21915 15.5601C9.47426 15.5601 9.66203 15.4587 9.78575 15.2972V15.5151H10.1754V14.6176H10.1758ZM23.3563 14.6176C23.3563 14.3023 23.5629 14.0432 23.9006 14.0432C24.2236 14.0432 24.441 14.2911 24.441 14.6176C24.441 14.9441 24.2236 15.192 23.9006 15.192C23.563 15.192 23.3563 14.9329 23.3563 14.6176ZM24.8091 14.6176V13H24.4187V13.9389C24.2949 13.7773 24.1073 13.676 23.8521 13.676C23.3493 13.676 22.9547 14.0704 22.9547 14.618C22.9547 15.1657 23.3491 15.5601 23.8521 15.5601C24.1073 15.5601 24.2949 15.4587 24.4187 15.2972V15.5151H24.8091V14.6176ZM15.0173 14.0248C15.2687 14.0248 15.4301 14.1824 15.4713 14.4599H14.5405C14.5822 14.2009 14.7395 14.0248 15.0174 14.0248M15.0252 13.675C14.4994 13.675 14.1317 14.0576 14.1317 14.6171C14.1317 15.1875 14.5142 15.5591 15.0513 15.5591C15.3215 15.5591 15.5689 15.4917 15.7866 15.3077L15.5955 15.0186C15.4451 15.1389 15.2536 15.2063 15.0736 15.2063C14.8222 15.2063 14.5933 15.0899 14.537 14.7669H15.8691C15.8729 14.7184 15.8768 14.6694 15.8768 14.617C15.8729 14.0577 15.5271 13.6749 15.0249 13.6749M19.7346 14.617C19.7346 14.3016 19.9412 14.0426 20.2788 14.0426C20.6014 14.0426 20.8192 14.2905 20.8192 14.617C20.8192 14.9434 20.6014 15.1913 20.2788 15.1913C19.9412 15.1913 19.7345 14.9323 19.7345 14.617M21.1868 14.617V13.7203H20.797V13.9389C20.6728 13.7773 20.4856 13.676 20.2304 13.676C19.7276 13.676 19.333 14.0704 19.333 14.618C19.333 15.1657 19.7274 15.5601 20.2304 15.5601C20.4856 15.5601 20.6728 15.4587 20.797 15.2972V15.5151H21.1869V14.6176L21.1868 14.617ZM17.5317 14.617C17.5317 15.1611 17.9105 15.559 18.4887 15.559C18.7589 15.559 18.9389 15.4989 19.1336 15.3451L18.9462 15.0298C18.7998 15.135 18.646 15.1913 18.4762 15.1913C18.1649 15.1875 17.9359 14.9623 17.9359 14.617C17.9359 14.2716 18.1649 14.0465 18.4762 14.0426C18.6456 14.0426 18.7993 14.0989 18.9462 14.2041L19.1336 13.8888C18.9386 13.735 18.7586 13.6749 18.4887 13.6749C17.9105 13.6749 17.5317 14.0727 17.5317 14.617ZM22.5605 13.6749C22.3355 13.6749 22.1889 13.7802 22.0876 13.9378V13.7203H21.701V15.5141H22.0915V14.5085C22.0915 14.2117 22.219 14.0467 22.474 14.0467C22.5575 14.0455 22.6405 14.0609 22.718 14.0919L22.8382 13.7242C22.7519 13.6902 22.6393 13.6752 22.5603 13.6752M12.1044 13.8629C11.9167 13.7392 11.6581 13.6752 11.3729 13.6752C10.9184 13.6752 10.6258 13.8931 10.6258 14.2495C10.6258 14.542 10.8436 14.7224 11.2448 14.7787L11.429 14.8049C11.6429 14.835 11.7439 14.8913 11.7439 14.9926C11.7439 15.1313 11.6018 15.2104 11.3351 15.2104C11.0649 15.2104 10.8699 15.1241 10.7384 15.0228L10.5551 15.327C10.769 15.4846 11.0392 15.5598 11.3318 15.5598C11.8498 15.5598 12.1501 15.3158 12.1501 14.9742C12.1501 14.6589 11.9138 14.494 11.5234 14.4377L11.3395 14.411C11.1707 14.3892 11.0354 14.3552 11.0354 14.235C11.0354 14.1038 11.1629 14.0249 11.3769 14.0249C11.6059 14.0249 11.8275 14.1112 11.9362 14.1787L12.1051 13.8633L12.1044 13.8629ZM17.1377 13.6756C16.9126 13.6756 16.7661 13.7808 16.6652 13.9384V13.7203H16.2786V15.5141H16.6687V14.5085C16.6687 14.2117 16.7962 14.0467 17.0512 14.0467C17.1347 14.0455 17.2176 14.0609 17.2952 14.0919L17.4154 13.7242C17.3291 13.6902 17.2165 13.6752 17.1375 13.6752M13.8089 13.7203H13.171V13.1761H12.7767V13.7203H12.4128V14.0768H12.7767V14.8951C12.7767 15.3113 12.9382 15.5592 13.3997 15.5592C13.569 15.5592 13.764 15.5067 13.8877 15.4205L13.775 15.0865C13.6586 15.1539 13.5311 15.1879 13.4296 15.1879C13.2346 15.1879 13.171 15.0677 13.171 14.8877V14.0771H13.8089V13.7203ZM7.97687 15.5145V14.3887C7.97687 13.9648 7.70669 13.6795 7.27114 13.6757C7.04216 13.6719 6.80596 13.7431 6.6406 13.9948C6.51687 13.7959 6.32188 13.6757 6.04777 13.6757C5.85617 13.6757 5.66894 13.732 5.52237 13.942V13.7203H5.13196V15.5141H5.52543V14.5195C5.52543 14.2081 5.69812 14.0426 5.96481 14.0426C6.22384 14.0426 6.35489 14.2115 6.35489 14.5155V15.5139H6.74924V14.5192C6.74924 14.2079 6.92925 14.0424 7.18818 14.0424C7.45454 14.0424 7.58165 14.2112 7.58165 14.5153V15.5136L7.97687 15.5145Z" fill="white"/>
</svg>
