<svg width="30" height="30" viewBox="0 0 30 30" fill="none" xmlns="http://www.w3.org/2000/svg">
<path d="M28.125 4.6875H1.875C0.841875 4.6875 0 5.52938 0 6.5625V23.4375C0 24.4725 0.841875 25.3125 1.875 25.3125H28.125C29.16 25.3125 30 24.4725 30 23.4375V6.5625C30 5.52938 29.16 4.6875 28.125 4.6875Z" fill="#ECEFF1"/>
<path d="M21.1012 11.6306C20.3887 10.7925 19.3462 10.3125 18.2437 10.3125H13.125C12.6656 10.3125 12.2756 10.6444 12.2006 11.0963L10.3256 22.3463C10.2806 22.6181 10.3575 22.8956 10.5356 23.1056C10.7119 23.3175 10.9744 23.4375 11.25 23.4375H13.125C13.5844 23.4375 13.9744 23.1056 14.0494 22.6537L14.8556 17.8125H18.2437C20.085 17.8125 21.6412 16.4981 21.9431 14.6831C22.1231 13.5862 21.8156 12.4725 21.1012 11.6306Z" fill="#2196F3"/>
<path d="M19.2262 9.75563C18.5137 8.9175 17.4712 8.4375 16.3687 8.4375H11.25C10.7906 8.4375 10.4006 8.76938 10.3256 9.22125L8.45061 20.4713C8.40561 20.7431 8.48249 21.0206 8.66061 21.2306C8.83686 21.4425 9.09936 21.5625 9.37499 21.5625H11.25C11.7094 21.5625 12.0994 21.2306 12.1744 20.7787L12.9806 15.9375H16.3687C18.21 15.9375 19.7662 14.6231 20.0681 12.8081C20.2481 11.7112 19.9406 10.5975 19.2262 9.75563Z" fill="#1976D2"/>
</svg>
