<svg width="30" height="30" viewBox="0 0 30 30" fill="none" xmlns="http://www.w3.org/2000/svg">
<path d="M30 23.5711C30 24.5505 29.2061 25.3446 28.2267 25.3446H1.77334C0.793945 25.3446 0 24.5505 0 23.5711V6.42867C0 5.44922 0.793945 4.65527 1.77334 4.65527H28.2267C29.2061 4.65527 30 5.44928 30 6.42867V23.5711Z" fill="white"/>
<path d="M6.6586 15.1193L5.95418 11.7402C5.83377 11.2742 5.48338 11.1355 5.04557 11.1172H1.816L1.78723 11.2716C4.3026 11.8814 5.96696 13.3524 6.6586 15.1193Z" fill="#F79F1A"/>
<path d="M14.1418 11.1851H12.0551L10.7519 18.8331H12.8351L14.1418 11.1851Z" fill="#059BBF"/>
<path d="M7.93037 18.8256L11.2122 11.1904H9.00375L6.96216 16.4069L6.74425 15.6193C6.34406 14.6718 5.20031 13.308 3.85757 12.4495L5.72379 18.8282L7.93037 18.8256Z" fill="#059BBF"/>
<path d="M20.0936 16.333C20.1014 15.4647 19.5438 14.8024 18.3424 14.2554C17.6123 13.902 17.1673 13.6664 17.1726 13.3079C17.1726 12.9911 17.5495 12.6509 18.366 12.6509C19.0493 12.6404 19.5413 12.7896 19.9261 12.944L20.1146 13.0304L20.3974 11.3736C19.9838 11.2191 19.3372 11.0542 18.5285 11.0542C16.4685 11.0542 15.0185 12.0908 15.0054 13.5775C14.9923 14.6769 16.042 15.2894 16.8324 15.6557C17.6438 16.0292 17.916 16.2682 17.9108 16.6033C17.9056 17.1155 17.2642 17.3492 16.6648 17.3492C15.8299 17.3492 15.3875 17.234 14.7014 16.9482L14.4348 16.8257L14.142 18.5396C14.6285 18.7522 15.5288 18.938 16.4633 18.9458C18.654 18.9458 20.0779 17.9224 20.0936 16.333Z" fill="#059BBF"/>
<path d="M22.5722 17.6867C22.8104 17.6867 24.9384 17.6893 25.2421 17.6893C25.3049 17.9556 25.496 18.8357 25.496 18.8357H27.4302L25.742 11.1929H24.1323C23.6323 11.1929 23.2608 11.329 23.0408 11.8262L19.9444 18.8357H22.1354C22.1352 18.8357 22.4911 17.8936 22.5722 17.6867ZM24.0013 13.983C23.991 14.0039 24.1741 13.5407 24.2788 13.2527L24.4201 13.9123C24.4201 13.9123 24.8181 15.7393 24.9018 16.1215H23.1716C23.3444 15.6818 24.0013 13.983 24.0013 13.983Z" fill="#059BBF"/>
<path d="M28.2267 4.65527H1.77334C0.793945 4.65527 0 5.44922 0 6.42867V8.26922H30V6.42867C30 5.44922 29.2061 4.65527 28.2267 4.65527Z" fill="#059BBF"/>
<path d="M28.2267 25.3444H1.77334C0.793945 25.3444 0 24.5504 0 23.571V21.7305H30V23.571C30 24.5504 29.2061 25.3444 28.2267 25.3444Z" fill="#F79F1A"/>
<path opacity="0.15" d="M1.26076 23.5711V6.42867C1.26076 5.44922 2.05477 4.65527 3.03422 4.65527H1.77328C0.793945 4.65527 0 5.44922 0 6.42867V23.5712C0 24.5506 0.793945 25.3446 1.77334 25.3446H3.03428C2.05482 25.3446 1.26076 24.5505 1.26076 23.5711Z" fill="#202121"/>
</svg>
