<svg width="249" height="171" viewBox="0 0 249 171" fill="none" xmlns="http://www.w3.org/2000/svg">
<path d="M111.946 0.764404C139.046 0.764404 159.146 3.6644 178.246 10.0644C205.246 19.1644 225.546 33.3644 238.346 53.3644C244.846 63.5644 248.246 74.3644 248.446 85.6644C248.546 95.9644 245.546 105.764 239.846 115.164C231.946 128.264 220.246 139.264 204.746 147.864C184.146 159.364 161.046 166.664 135.546 169.564C122.246 171.064 108.946 170.764 95.7462 169.164C86.2462 168.064 76.8462 166.364 67.8462 163.664C50.8462 158.664 36.8462 150.664 25.4462 140.064C15.4462 130.864 8.64622 120.364 4.94622 108.764C-0.0537825 93.0644 -0.953782 77.1644 2.24622 61.1644C5.84622 43.4644 17.8462 29.5644 37.2462 19.0644C48.5462 12.9644 60.9462 8.6644 74.1462 5.6644C88.5462 2.4644 103.146 0.764404 111.946 0.764404Z" fill="#005164" fill-opacity="0.02"/>
</svg>
