<svg width="121" height="381" viewBox="0 0 121 381" fill="none" xmlns="http://www.w3.org/2000/svg">
<path d="M99.1635 380.142C77.7219 376.274 55.2712 371.481 36.0999 359.878C14.9104 347.097 1.20461 326.412 0.279672 306.063C-0.308923 292.694 4.23166 279.745 8.60408 267.3C9.69718 264.021 10.8744 260.826 11.8834 257.546C22.2258 225.51 23.9916 191.119 17.0967 158.158C15.6672 151.515 13.9014 144.704 12.2197 138.146C6.92238 118.049 1.45686 97.1963 5.91336 76.7636C10.6221 54.8174 27.0187 34.6371 50.8988 21.5198C72.929 9.41159 98.4068 4.28241 120.437 0.498589L120.857 2.6848C98.9113 6.46862 73.7699 11.5137 51.9919 23.4538C28.7004 36.3188 12.6402 55.9106 8.01549 77.2681C3.64307 97.1963 9.10859 117.713 14.3219 137.641C16.0876 144.2 17.8534 151.095 19.2829 157.737C26.2619 191.119 24.4961 225.846 14.0696 258.303C12.9765 261.582 11.8834 264.778 10.7062 268.057C6.33379 280.333 1.87729 293.03 2.46588 305.979C3.39081 325.655 16.6762 345.583 37.193 358.028C56.028 369.463 78.3105 374.172 99.4999 378.04L99.1635 380.142Z" fill="#E5E5E5"/>
</svg>
