<svg width="173" height="193" viewBox="0 0 173 193" fill="none" xmlns="http://www.w3.org/2000/svg">
<path d="M36.5 174C36.8 174.1 38.9 173.7 38.9 173.7C40.4 173.3 40.8 172 41 170.6C41.3 168.6 38.7 167.4 36.5 167.5C32.8 167.8 33.5 173.2 36.5 174Z" fill="#005164" fill-opacity="0.07"/>
<path d="M103.7 155.2C103.8 155.4 104.6 156.6 104.6 156.6C105.3 157.4 106.3 157.2 107.2 156.9C108.5 156.5 108.4 154.5 107.7 153.2C106.4 151 103.3 153.2 103.7 155.2Z" fill="#005164" fill-opacity="0.07"/>
<path d="M167.6 108.8C167.7 109 168.9 109.7 168.9 109.7C169.8 110.1 170.5 109.7 171.2 109.1C172.2 108.3 171.5 106.6 170.4 105.7C168.6 104.3 166.6 107.2 167.6 108.8Z" fill="#005164" fill-opacity="0.07"/>
<path d="M140.6 173.1C140.8 173.2 142.1 173.5 142.1 173.5C143.1 173.6 143.7 172.9 144.1 172.1C144.8 171 143.5 169.6 142.1 169.2C139.9 168.5 139 171.9 140.6 173.1Z" fill="#005164" fill-opacity="0.07"/>
<path d="M46.6 74C46.8 74.3 48.6 75.1 48.6 75.1C50 75.7 51 74.9 52 74C53.4 72.6 52 70.3 50.3 69.2C47.3 67.3 44.8 71.8 46.6 74Z" fill="#005164" fill-opacity="0.07"/>
<path d="M88 69.5C88.2 69.7 90 69.9 90 69.9C91.3 69.9 92 69 92.5 68C93.3 66.5 91.5 64.8 89.8 64.3C86.8 63.5 85.9 68 88 69.5Z" fill="#005164" fill-opacity="0.07"/>
<path d="M89.4 148.3C89.8 148.4 92 148.1 92 148.1C93.6 147.7 94.1 146.3 94.4 144.9C94.8 142.8 92.1 141.4 89.7 141.4C85.8 141.5 86.3 147.3 89.4 148.3Z" fill="#005164" fill-opacity="0.07"/>
<path d="M107.6 119.7C107.8 119.9 109 120.3 109 120.3C109.9 120.5 110.5 119.9 111 119.3C111.8 118.3 110.7 116.9 109.5 116.4C107.5 115.4 106.3 118.4 107.6 119.7Z" fill="#005164" fill-opacity="0.07"/>
<path d="M163.2 150.5C163.6 150.7 165.9 150.7 165.9 150.7C167.6 150.5 168.3 149.2 168.9 147.7C169.7 145.6 167 143.7 164.7 143.4C160.5 142.9 160.2 148.9 163.2 150.5Z" fill="#005164" fill-opacity="0.07"/>
<path d="M27.7 133.4C27.7 133.8 28.8 136 28.8 136.1C29.8 137.6 31.4 137.7 33 137.5C35.4 137.2 35.9 133.9 35.1 131.5C33.6 127.3 27.7 129.8 27.7 133.4Z" fill="#005164" fill-opacity="0.07"/>
<path d="M60.2 179.9C60.2 180.1 60.6 181.4 60.6 181.4C61 182.3 61.9 182.4 62.7 182.4C64 182.4 64.5 180.7 64.2 179.3C63.7 177.1 60.4 178 60.2 179.9Z" fill="#005164" fill-opacity="0.07"/>
<path d="M126.6 126.5C126.9 126.7 129.1 126.8 129.1 126.8C130.7 126.7 131.4 125.5 131.9 124.1C132.7 122.1 130.3 120.3 128 120C124.3 119.4 123.8 125 126.6 126.5Z" fill="#005164" fill-opacity="0.07"/>
<path d="M72 52.2C72 52.5 73.1 53.9 73.1 54C74 55 75.1 54.8 76.2 54.5C77.8 54 77.8 51.6 77 50C75.5 47.2 71.6 49.7 72 52.2Z" fill="#005164" fill-opacity="0.07"/>
<path d="M77.9 160.1C78.1 160.3 79.4 160.7 79.4 160.7C80.4 160.9 81 160.3 81.6 159.6C82.4 158.6 81.3 157.1 80 156.5C77.8 155.4 76.5 158.7 77.9 160.1Z" fill="#005164" fill-opacity="0.07"/>
<path d="M129.3 62.8C129.4 63.1 130.6 64.2 130.7 64.2C131.7 64.9 132.7 64.5 133.7 64C135.1 63.2 134.6 61 133.4 59.7C131.4 57.5 128.4 60.6 129.3 62.8Z" fill="#005164" fill-opacity="0.07"/>
<path d="M138.4 87.3C138.6 87.4 139.9 87.7 139.9 87.7C140.9 87.8 141.4 87.1 141.9 86.3C142.5 85.2 141.2 83.8 139.8 83.4C137.5 82.7 136.8 86.1 138.4 87.3Z" fill="#005164" fill-opacity="0.07"/>
<path d="M151.7 160.1C151.7 160.5 152.6 162.4 152.6 162.4C153.4 163.7 154.8 163.8 156.2 163.7C158.3 163.5 158.8 160.6 158.1 158.5C156.9 154.9 151.8 157 151.7 160.1Z" fill="#005164" fill-opacity="0.07"/>
<path d="M12.1 116.9C12.3 117.2 13.8 118.3 13.8 118.3C15 119 16.1 118.5 17.2 117.7C18.7 116.7 17.9 114.2 16.4 112.9C13.9 110.6 10.8 114.5 12.1 116.9Z" fill="#005164" fill-opacity="0.07"/>
<path d="M106.9 31.2C107 31.4 107.9 32.5 107.9 32.5C108.7 33.2 109.6 33 110.5 32.6C111.8 32.1 111.6 30.1 110.7 28.8C109.3 26.8 106.3 29.1 106.9 31.2Z" fill="#005164" fill-opacity="0.07"/>
<path d="M8.3 133.6C8.4 133.8 9.6 134.6 9.6 134.6C10.5 135.1 11.3 134.6 12 134.1C13.1 133.3 12.4 131.5 11.3 130.6C9.5 129 7.3 131.9 8.3 133.6Z" fill="#005164" fill-opacity="0.07"/>
<path d="M136.4 158.9C136.7 159.2 139.1 159.8 139.1 159.8C140.9 160.1 142 158.9 142.9 157.5C144.3 155.5 142 152.9 139.6 152C135.7 150.4 133.7 156.5 136.4 158.9Z" fill="#005164" fill-opacity="0.07"/>
<path d="M30 43.4C30.1 43.6 31.2 44.1 31.2 44.1C32 44.4 32.7 44 33.3 43.4C34.2 42.6 33.4 41.1 32.3 40.4C30.6 39.3 29 42 30 43.4Z" fill="#005164" fill-opacity="0.07"/>
<path d="M46.7 103.3C46.9 103.4 48.6 103.6 48.6 103.6C49.8 103.6 50.4 102.6 50.9 101.6C51.6 100.1 49.7 98.7 48 98.3C45.1 97.8 44.5 102.1 46.7 103.3Z" fill="#005164" fill-opacity="0.07"/>
<path d="M87.5 191.8C87.8 192.1 90.3 192.7 90.3 192.7C92.1 192.9 93.3 191.7 94.2 190.3C95.5 188.3 93.2 185.6 90.8 184.7C86.6 183.1 84.7 189.4 87.5 191.8Z" fill="#005164" fill-opacity="0.07"/>
<path d="M90.2 43.1C90.3 43.3 91.4 44 91.4 44C92.2 44.4 93 44 93.7 43.5C94.7 42.8 94 41.1 93 40.2C91.3 38.8 89.3 41.5 90.2 43.1Z" fill="#005164" fill-opacity="0.07"/>
<path d="M60.6 109.4C60.7 109.6 61.6 110.6 61.6 110.6C62.3 111.2 63.2 111 64 110.7C65.2 110.2 64.9 108.4 64.1 107.2C62.7 105.3 60 107.6 60.6 109.4Z" fill="#005164" fill-opacity="0.07"/>
<path d="M58.6 164.6C58.8 164.8 60.3 165.1 60.3 165.1C61.4 165.2 62.1 164.5 62.7 163.6C63.5 162.3 62.1 160.7 60.6 160.2C58 159.3 56.8 163.2 58.6 164.6Z" fill="#005164" fill-opacity="0.07"/>
<path d="M84.4 94.8C84.5 95 85.8 95.8 85.8 95.8C86.8 96.3 87.7 95.8 88.5 95.2C89.7 94.3 88.8 92.3 87.6 91.4C85.5 89.7 83.2 92.9 84.4 94.8Z" fill="#005164" fill-opacity="0.07"/>
<path d="M77.2 78.7C77.4 78.8 78.6 78.6 78.6 78.6C79.5 78.4 79.7 77.6 79.9 76.8C80.1 75.7 78.6 74.9 77.4 74.9C75.3 75 75.6 78.1 77.2 78.7Z" fill="#005164" fill-opacity="0.07"/>
<path d="M132.4 112.4C132.8 112.6 135.3 112.5 135.3 112.5C137.1 112.3 137.8 110.8 138.4 109.2C139.2 106.9 136.3 105 133.7 104.8C129.3 104.4 129.1 110.9 132.4 112.4Z" fill="#005164" fill-opacity="0.07"/>
<path d="M85.6 113.8C85.7 114.1 87.2 115.4 87.2 115.4C88.4 116.2 89.6 115.8 90.7 115.2C92.4 114.3 91.7 111.6 90.4 110.1C88.2 107.5 84.5 111.2 85.6 113.8Z" fill="#005164" fill-opacity="0.07"/>
<path d="M134 38.1C134.2 38.2 135.7 38.4 135.8 38.4C136.9 38.4 137.5 37.6 137.9 36.6C138.5 35.3 136.9 33.9 135.4 33.6C132.7 33 132.1 36.9 134 38.1Z" fill="#005164" fill-opacity="0.07"/>
<path d="M106.9 9.00003C107 9.20003 107.9 10 108 10C108.8 10.5 109.5 10.2 110.3 9.80003C111.4 9.20003 110.9 7.50003 110 6.50003C108.5 4.90003 106.2 7.30003 106.9 9.00003Z" fill="#005164" fill-opacity="0.07"/>
<path d="M152 51C152.2 51.2 153.8 51.4 153.8 51.4C154.9 51.5 155.6 50.7 156.1 49.8C156.9 48.5 155.3 46.9 153.8 46.5C151.1 45.7 150.2 49.7 152 51Z" fill="#005164" fill-opacity="0.07"/>
<path d="M107.8 136C107.9 136.3 108.8 137.4 108.8 137.4C109.6 138.2 110.6 138 111.5 137.6C112.9 137.1 112.7 135 111.8 133.7C110.4 131.6 107.3 133.9 107.8 136Z" fill="#005164" fill-opacity="0.07"/>
<path d="M68.4 122.9C68.6 123.2 70.4 124.1 70.4 124.1C71.8 124.6 72.9 123.9 73.8 123C75.2 121.7 74 119.2 72.3 118.1C69.4 116 66.7 120.5 68.4 122.9Z" fill="#005164" fill-opacity="0.07"/>
<path d="M0.1 111.4C0.2 111.7 1.4 113.2 1.4 113.2C2.4 114.2 3.7 113.9 4.9 113.5C6.6 112.8 6.4 110.2 5.3 108.5C3.4 105.7 -0.6 108.7 0.1 111.4Z" fill="#005164" fill-opacity="0.07"/>
<path d="M10.8 74.1C10.9 74.3 11.7 75.2 11.7 75.2C12.4 75.8 13.2 75.6 13.9 75.2C15 74.7 14.7 73 13.9 72C12.7 70.3 10.3 72.4 10.8 74.1Z" fill="#005164" fill-opacity="0.07"/>
<path d="M37.9 90.4C38.2 90.4 40 90 40 90C41.2 89.6 41.6 88.4 41.7 87.2C41.9 85.5 39.6 84.5 37.7 84.8C34.6 85.2 35.4 89.8 37.9 90.4Z" fill="#005164" fill-opacity="0.07"/>
<path d="M70.1 24.5C70.2 24.7 71 25.8 71 25.8C71.7 26.5 72.6 26.3 73.4 26C74.6 25.5 74.4 23.7 73.7 22.5C72.4 20.4 69.6 22.6 70.1 24.5Z" fill="#005164" fill-opacity="0.07"/>
<path d="M129.1 138.1C129 138.4 129.5 140.1 129.5 140.1C130 141.3 131.1 141.6 132.3 141.7C134 141.8 134.8 139.5 134.6 137.7C134 134.7 129.6 135.6 129.1 138.1Z" fill="#005164" fill-opacity="0.07"/>
<path d="M54.6 55.6C54.6 55.8 55 57 55 57C55.4 57.8 56.2 57.9 57.1 57.9C58.3 57.9 58.8 56.2 58.4 54.9C57.9 52.7 54.8 53.7 54.6 55.6Z" fill="#005164" fill-opacity="0.07"/>
<path d="M59.7 39.7C59.7 39.9 60.3 41.2 60.3 41.2C60.8 42 61.7 42.1 62.6 42C63.9 41.9 64.2 40 63.8 38.7C63 36.4 59.7 37.8 59.7 39.7Z" fill="#005164" fill-opacity="0.07"/>
<path d="M149.4 143.4C149.6 143.6 151 144.1 151 144.1C152.1 144.4 152.8 143.7 153.4 143C154.3 141.9 153.2 140.2 151.8 139.5C149.4 138.3 147.9 141.8 149.4 143.4Z" fill="#005164" fill-opacity="0.07"/>
<path d="M116.6 79.1C116.8 79.4 118.5 80.5 118.5 80.5C119.9 81.1 121 80.5 122.1 79.6C123.6 78.4 122.5 75.8 120.9 74.4C118 72.2 115 76.6 116.6 79.1Z" fill="#005164" fill-opacity="0.07"/>
<path d="M164.2 131.3C164.5 131.4 166.5 131.3 166.5 131.3C167.9 131 168.5 129.9 168.8 128.6C169.3 126.8 167 125.4 164.9 125.2C161.4 125.1 161.5 130.2 164.2 131.3Z" fill="#005164" fill-opacity="0.07"/>
<path d="M40 53.2C40.3 53.4 42.3 53.7 42.4 53.7C43.9 53.8 44.7 52.7 45.4 51.5C46.3 49.7 44.3 47.8 42.2 47.2C38.6 46.3 37.5 51.5 40 53.2Z" fill="#005164" fill-opacity="0.07"/>
<path d="M63.7 71.2C63.9 71.4 65.3 71.7 65.4 71.7C66.5 71.8 67.1 71.1 67.6 70.2C68.4 69 67 67.5 65.5 67C63.1 66.2 62 69.9 63.7 71.2Z" fill="#005164" fill-opacity="0.07"/>
<path d="M68.5 143C68.6 143.2 69.6 144.1 69.6 144.1C70.4 144.7 71.2 144.3 72 143.9C73.1 143.3 72.7 141.4 71.7 140.4C70.2 138.7 67.7 141.2 68.5 143Z" fill="#005164" fill-opacity="0.07"/>
<path d="M45.4 154.7C45.6 154.9 47.2 155.4 47.2 155.4C48.4 155.7 49.2 154.9 49.9 154C50.9 152.7 49.5 150.9 47.9 150.1C45.2 148.9 43.7 153 45.4 154.7Z" fill="#005164" fill-opacity="0.07"/>
<path d="M145.7 103.5C146.1 103.7 148.5 103.8 148.5 103.8C150.3 103.7 151.1 102.3 151.7 100.8C152.6 98.6 149.9 96.6 147.4 96.2C143.2 95.5 142.5 101.8 145.7 103.5Z" fill="#005164" fill-opacity="0.07"/>
<path d="M107.2 177.5C107.2 177.7 107.5 178.8 107.5 178.8C107.9 179.6 108.6 179.7 109.4 179.7C110.5 179.7 111 178.2 110.8 177C110.4 174.9 107.5 175.8 107.2 177.5Z" fill="#005164" fill-opacity="0.07"/>
<path d="M72.1 11.9C72.5 12 75 11.5 75 11.5C76.8 10.9 77.2 9.30003 77.4 7.60003C77.7 5.20003 74.5 3.80003 71.9 4.10003C67.5 4.50003 68.5 11 72.1 11.9Z" fill="#005164" fill-opacity="0.07"/>
<path d="M51.4 137.7C51.6 138 53.7 139 53.7 139C55.3 139.5 56.5 138.6 57.5 137.6C59 136 57.4 133.3 55.4 132.1C52.1 129.9 49.4 135.2 51.4 137.7Z" fill="#005164" fill-opacity="0.07"/>
<path d="M126 183.1C126.2 183.3 128 184 128 184C129.3 184.3 130.3 183.5 131.1 182.6C132.3 181.2 130.8 179.1 129 178.2C126 176.7 124.1 181.2 126 183.1Z" fill="#005164" fill-opacity="0.07"/>
<path d="M53.7 88.7C54 89 56 89.7 56 89.7C57.5 90.1 58.6 89.1 59.5 88C60.8 86.4 59.1 84 57.1 83C53.6 81.4 51.5 86.5 53.7 88.7Z" fill="#005164" fill-opacity="0.07"/>
<path d="M27.1 152.9C27 153.3 27.7 155.3 27.7 155.3C28.3 156.7 29.7 157 31.1 157C33.1 157.1 34 154.3 33.6 152.2C32.8 148.5 27.5 149.9 27.1 152.9Z" fill="#005164" fill-opacity="0.07"/>
<path d="M117.5 102.1C117.6 102.4 119.1 103.4 119.2 103.4C120.4 104.1 121.4 103.5 122.4 102.8C123.8 101.8 123 99.4 121.6 98.1C119.1 96.1 116.2 99.8 117.5 102.1Z" fill="#005164" fill-opacity="0.07"/>
<path d="M87.3 3.20003C87.3 3.60003 88 5.50003 88 5.60003C88.7 7.00003 90.1 7.20003 91.5 7.10003C93.5 7.10003 94.3 4.20003 93.7 2.10003C92.8 -1.59997 87.6 0.100028 87.3 3.20003Z" fill="#005164" fill-opacity="0.07"/>
<path d="M101.6 60.9C101.6 61.2 102.1 62.8 102.1 62.8C102.6 63.9 103.7 64.1 104.8 64.1C106.4 64.1 107.1 61.9 106.7 60.2C106.1 57.3 101.9 58.5 101.6 60.9Z" fill="#005164" fill-opacity="0.07"/>
<path d="M29.5 114C29.6 114.3 30.8 115.7 30.9 115.7C31.9 116.6 33.1 116.3 34.2 115.8C35.8 115.1 35.5 112.6 34.4 111C32.5 108.3 28.8 111.4 29.5 114Z" fill="#005164" fill-opacity="0.07"/>
<path d="M101.6 84.5C101.7 84.7 102.8 85.4 102.8 85.4C103.7 85.8 104.4 85.4 105.1 84.9C106.1 84.1 105.4 82.4 104.4 81.6C102.6 80.1 100.6 82.9 101.6 84.5Z" fill="#005164" fill-opacity="0.07"/>
<path d="M148.5 70.7C148.5 71.1 149.3 73.1 149.3 73.2C150.1 74.6 151.5 74.8 153 74.8C155.1 74.7 155.8 71.7 155.3 69.5C154.2 65.7 148.8 67.5 148.5 70.7Z" fill="#005164" fill-opacity="0.07"/>
<path d="M92.5 21.3C92.8 21.4 94.5 21.6 94.6 21.6C95.9 21.5 96.5 20.5 97 19.5C97.7 17.9 95.7 16.4 93.9 16.1C90.7 15.4 90.2 20 92.5 21.3Z" fill="#005164" fill-opacity="0.07"/>
<path d="M113.3 51.6C113.5 51.9 115.1 53.2 115.1 53.2C116.4 54 117.6 53.4 118.7 52.7C120.4 51.6 119.5 48.9 118 47.4C115.4 44.9 112 48.9 113.3 51.6Z" fill="#005164" fill-opacity="0.07"/>
<path d="M22 79.1C22.1 79.3 23 80 23.1 80C23.9 80.4 24.6 80.1 25.2 79.7C26.2 79.1 25.6 77.5 24.7 76.6C23.1 75.1 21.2 77.5 22 79.1Z" fill="#005164" fill-opacity="0.07"/>
<path d="M164 91.6C164.2 91.7 165.4 91.6 165.4 91.6C166.3 91.4 166.6 90.7 166.8 90C167.1 88.9 165.7 88.1 164.4 88C162.3 87.9 162.4 91 164 91.6Z" fill="#005164" fill-opacity="0.07"/>
<path d="M149.2 120.4C149.5 120.6 151.7 121.2 151.7 121.2C153.3 121.4 154.3 120.3 155.1 119.1C156.3 117.3 154.2 115 152.1 114.2C148.3 112.8 146.7 118.3 149.2 120.4Z" fill="#005164" fill-opacity="0.07"/>
<path d="M13.8 149.7C13.9 150 14.9 151.2 14.9 151.2C15.7 152 16.7 151.8 17.7 151.4C19.1 150.9 18.9 148.7 18 147.4C16.5 145 13.2 147.4 13.8 149.7Z" fill="#005164" fill-opacity="0.07"/>
<path d="M101.2 101.2C101.3 101.4 102.2 102.1 102.2 102.1C102.9 102.6 103.6 102.3 104.3 101.9C105.3 101.3 104.8 99.7 104 98.9C102.6 97.4 100.5 99.6 101.2 101.2Z" fill="#005164" fill-opacity="0.07"/>
<path d="M169.1 71.7C169.1 71.9 169.9 72.8 169.9 72.8C170.5 73.4 171.2 73.2 171.9 72.9C172.9 72.5 172.8 70.9 172.1 70C171 68.3 168.7 70.1 169.1 71.7Z" fill="#005164" fill-opacity="0.07"/>
<path d="M16.2 96.2C16.2 96.5 16.8 98.1 16.9 98.1C17.5 99.2 18.6 99.3 19.8 99.2C21.4 99.1 21.9 96.8 21.4 95.1C20.5 92.2 16.3 93.7 16.2 96.2Z" fill="#005164" fill-opacity="0.07"/>
<path d="M46.8 26.9C46.9 27.3 48.5 29.3 48.5 29.3C49.8 30.6 51.4 30.3 53 29.7C55.3 28.9 55 25.4 53.6 23.3C51.2 19.5 46 23.3 46.8 26.9Z" fill="#005164" fill-opacity="0.07"/>
<path d="M81.8 176C81.9 176.3 83.2 177.7 83.2 177.7C84.2 178.6 85.4 178.3 86.6 177.8C88.3 177.1 87.9 174.5 86.8 172.9C84.8 170.3 81 173.4 81.8 176Z" fill="#005164" fill-opacity="0.07"/>
<path d="M86.1 131.7C86.3 131.8 87.9 131.6 87.9 131.6C89 131.4 89.4 130.5 89.6 129.5C90 128.1 88.1 127 86.5 127C83.8 127 84 130.9 86.1 131.7Z" fill="#005164" fill-opacity="0.07"/>
<path d="M122.3 22C122.5 22.4 124.4 24 124.4 24.1C125.9 25.1 127.5 24.5 129 23.7C131.1 22.5 130.2 19.1 128.4 17.1C125.3 13.8 120.8 18.6 122.3 22Z" fill="#005164" fill-opacity="0.07"/>
<path d="M46.2 120.9C46.3 121.1 47.6 121.8 47.6 121.8C48.6 122.2 49.4 121.7 50.1 121.1C51.2 120.2 50.3 118.3 49 117.4C47 115.9 45 119.1 46.2 120.9Z" fill="#005164" fill-opacity="0.07"/>
<path d="M29 64.8C29.1 65.2 30.6 67.1 30.6 67.2C31.8 68.5 33.4 68.2 34.9 67.7C37.1 67 36.9 63.6 35.7 61.5C33.5 57.7 28.3 61.3 29 64.8Z" fill="#005164" fill-opacity="0.07"/>
<path d="M67.2 95.1C67.3 95.4 68.8 97 68.8 97C70 98 71.3 97.6 72.6 97C74.5 96.1 74 93.2 72.6 91.5C70.3 88.5 66.2 92.1 67.2 95.1Z" fill="#005164" fill-opacity="0.07"/>
<path d="M123.5 164.5C123.7 164.6 125 164.4 125 164.4C125.9 164.2 126.2 163.4 126.4 162.5C126.6 161.3 125 160.5 123.7 160.5C121.4 160.5 121.7 163.9 123.5 164.5Z" fill="#005164" fill-opacity="0.07"/>
</svg>
