<svg width="154" height="364" viewBox="0 0 154 364" fill="none" xmlns="http://www.w3.org/2000/svg">
<path fill-rule="evenodd" clip-rule="evenodd" d="M54.5904 11.8697C54.5532 11.7583 54.5162 11.6468 54.4795 11.5352C53.9522 9.86536 53.5128 8.15156 53.2052 6.34988C53.0294 5.471 52.9855 4.54819 52.9855 3.58143C53.0071 3.45188 53.0233 3.32499 53.0395 3.19879C53.0893 2.81137 53.1382 2.43031 53.337 1.99947C53.5567 1.4282 54.2598 0.900877 55.0069 0.856934C56.4134 0.897122 57.0482 1.81939 57.5498 2.54815L57.5502 2.54874C57.5969 2.61664 57.6425 2.68285 57.6874 2.74651C58.2147 3.53749 58.5663 4.41636 58.8739 5.25129C58.9627 5.49243 59.0479 5.7345 59.13 5.97734C59.1437 5.917 59.1568 5.85708 59.1698 5.79737C59.2582 5.39267 59.3444 4.99746 59.6209 4.54817C59.8846 3.9769 60.6756 3.40564 61.5105 3.44958C62.3454 3.58141 62.8288 4.06479 63.1804 4.54817C63.488 5.03155 63.7516 5.51493 63.8834 5.95436C64.235 6.87718 64.4547 7.84394 64.6305 8.76675C64.7441 9.4647 64.8397 10.1567 64.9218 10.8448C65.0427 10.105 65.1903 9.36668 65.3775 8.63494C65.5973 7.66818 65.8609 6.74537 66.2125 5.82255C66.3882 5.33917 66.608 4.8558 66.9156 4.41636L66.9345 4.38923C67.2413 3.95031 67.6841 3.31688 68.7172 3.27383C69.6756 3.36095 70.1158 3.96628 70.4658 4.44769L70.475 4.4603C70.7826 4.98763 70.9584 5.471 71.0902 5.99833C71.3539 7.00903 71.4417 7.97579 71.4857 8.94254C71.5736 10.8761 71.4417 12.8096 71.1781 14.6991C71.0378 15.7957 70.868 16.8922 70.6589 17.9822C71.2122 16.6757 71.8264 15.396 72.4524 14.1279C73.3313 12.4141 74.342 10.7443 75.4406 9.11835C76.0119 8.32736 76.6271 7.53638 77.3302 6.78934C77.6817 6.43779 78.0772 6.0423 78.6045 5.77864C78.6262 5.76783 78.6481 5.75672 78.6703 5.74543C78.9195 5.61916 79.2118 5.47104 79.6152 5.47104C80.0107 5.42709 80.582 5.60287 80.8896 5.91047C81.8353 7.00748 81.7064 8.03937 81.5962 8.92203C81.5783 9.06473 81.561 9.20353 81.5488 9.33807C81.4169 10.3488 81.1093 11.3155 80.8017 12.2383C80.1426 14.084 79.3076 15.8857 78.3409 17.5555L78.288 17.6446L78.2385 17.7278L78.3409 17.6434C79.835 16.413 81.4169 15.2704 83.0868 14.2597C83.9217 13.7324 84.8006 13.249 85.7673 12.8975C86.2507 12.7217 86.7341 12.5459 87.3493 12.458C87.8766 12.3702 88.9752 12.502 89.3707 13.4687C89.7969 14.8636 89.2665 15.7802 88.8038 16.5799C88.7418 16.6871 88.6808 16.7925 88.6237 16.8963C88.0964 17.7752 87.4372 18.5222 86.7781 19.2692C85.4158 20.7193 83.9656 21.9938 82.3837 23.1363C81.6242 23.6848 80.8496 24.2156 80.0567 24.7159C80.8881 24.4982 81.7238 24.2974 82.5595 24.103C84.449 23.7075 86.3825 23.3999 88.3161 23.2242C89.2828 23.1363 90.2935 23.0923 91.3042 23.1802C91.8315 23.2242 92.3589 23.312 92.9301 23.5318C93.4135 23.6636 94.3803 24.3228 94.2924 25.3335C94.0253 26.7831 93.1622 27.3386 92.3929 27.8336C92.2761 27.9088 92.1614 27.9826 92.0513 28.058C91.1724 28.6292 90.2496 28.9808 89.3268 29.3323C87.4811 30.0354 85.5916 30.4748 83.658 30.8264C79.9595 31.4216 76.0964 31.6466 72.3872 30.6659C71.7641 32.3458 70.4247 33.8948 68.7172 34.7814C68.2456 35.0368 67.7784 35.2571 67.3165 35.4452C70.8587 48.5021 73.0984 61.7694 74.9133 75.1216C76.715 88.7001 77.7696 102.367 78.2969 116.033C78.7521 128.901 78.6618 141.808 78.2095 154.68C80.4364 145.571 83.3213 136.647 86.9538 128.03C91.0406 118.186 95.8304 108.651 101.675 99.7739C107.174 90.8113 113.867 82.7445 120.83 74.9011C120.482 73.9353 120.825 73.0943 121.096 72.4278C121.144 72.3094 121.19 72.1965 121.23 72.0895C121.625 71.1666 122.153 70.3757 122.68 69.5847C123.289 68.7318 123.925 67.9059 124.581 67.0996C123.712 67.7694 122.815 68.4128 121.889 69.0134C121.098 69.5407 120.219 70.0241 119.296 70.4635C118.813 70.6832 118.329 70.859 117.802 70.9469C117.275 71.0348 116.484 71.1666 115.737 70.5074C115.122 69.7604 115.209 69.0134 115.341 68.4421C115.473 67.8708 115.737 67.3875 116 66.948C116.528 66.0691 117.143 65.3221 117.802 64.5751C119.12 63.1689 120.571 61.8945 122.109 60.708C123.07 59.9697 124.053 59.2578 125.063 58.5865C123.672 59.1594 122.253 59.6581 120.834 60.1368C118.989 60.7081 117.143 61.2354 115.209 61.5869C114.243 61.7627 113.276 61.8945 112.221 61.9385C111.694 61.9385 111.167 61.9385 110.595 61.7627C110.288 61.6748 109.98 61.5869 109.673 61.2793C109.321 61.0157 109.101 60.5323 109.101 60.0928C109.217 58.6225 110.049 57.9699 110.756 57.4149C110.852 57.3396 110.946 57.2661 111.035 57.1926C111.87 56.5774 112.749 56.094 113.628 55.6545C115.429 54.8196 117.275 54.2044 119.12 53.6771C119.256 53.6421 119.391 53.6077 119.526 53.5738C119.406 53.5644 119.285 53.5549 119.164 53.5453C117.231 53.3256 115.341 53.0619 113.408 52.6225C112.441 52.4028 111.518 52.1391 110.551 51.7436C110.068 51.5239 109.585 51.3042 109.101 50.9087C108.662 50.6011 107.959 49.7222 108.354 48.7555C109.046 47.4483 110.075 47.1839 110.939 46.9616C111.063 46.9298 111.183 46.8989 111.299 46.8659C112.3 46.6046 113.302 46.5591 114.261 46.5155L114.287 46.5143C116.264 46.4704 118.198 46.6462 120.131 46.9098C123.76 47.4938 127.389 48.4737 130.567 50.4885C131.025 49.8572 131.642 49.388 132.26 49.063C133.973 48.1402 135.951 48.0523 137.709 48.5357C139.378 49.063 140.96 49.854 142.367 50.9965C143.685 52.139 144.827 53.6331 145.355 55.3909C145.618 56.2697 145.75 57.2365 145.487 58.2472C145.469 58.3666 145.439 58.4908 145.399 58.6172C147.977 61.0813 149.884 64.1754 151.243 67.4753C152.034 69.321 152.605 71.2545 153.001 73.2319L153.023 73.3716C153.04 73.482 153.058 73.5927 153.076 73.7038L153.077 73.7085L153.078 73.7153C153.371 75.5454 153.677 77.4496 152.869 79.428C152.649 79.9114 152.078 80.6145 151.199 80.5705C150.491 80.4524 150.099 80.0522 149.741 79.6857C149.7 79.6431 149.658 79.601 149.617 79.5598C148.914 78.7249 148.431 77.8021 147.991 76.9232C147.286 75.4424 146.723 73.9616 146.209 72.4354C146.327 73.946 146.4 75.4566 146.365 76.9672C146.322 77.9339 146.278 78.9007 146.102 79.9114C146.014 80.3947 145.882 80.9221 145.618 81.4054C145.399 81.8449 144.784 82.6359 143.905 82.4601C142.595 82.103 142.146 81.1729 141.747 80.3488C141.705 80.2602 141.662 80.1724 141.62 80.0871C141.18 79.1643 140.916 78.2415 140.653 77.2748C140.169 75.3852 139.95 73.4517 139.818 71.5182C139.791 70.9224 139.772 70.3246 139.765 69.7261C139.626 70.2955 139.481 70.8634 139.335 71.4303C138.807 73.2759 138.236 75.1215 137.445 76.9232C137.412 76.9969 137.379 77.071 137.345 77.1452C136.982 77.9563 136.606 78.7949 136.083 79.5598C135.819 79.9993 135.511 80.4387 135.072 80.7902C134.72 81.1418 133.798 81.6252 133.007 81.1418C131.94 80.3039 131.831 79.301 131.735 78.4191L131.735 78.4183L131.735 78.4174C131.72 78.2824 131.706 78.1501 131.688 78.0218C131.6 77.0111 131.688 76.0004 131.864 75.0336C131.925 74.5883 132 74.1452 132.086 73.7045C131.927 74.0318 131.765 74.3576 131.6 74.6821C130.809 76.2641 129.931 77.8021 128.92 79.2522C128.437 79.9993 127.821 80.7024 127.162 81.3615C127.095 81.4137 127.029 81.4671 126.963 81.5207C126.64 81.7832 126.311 82.0505 125.8 82.1964C125.229 82.4601 124.394 82.3283 123.822 81.8449C122.846 80.7867 123.075 79.6909 123.254 78.8366C123.268 78.7685 123.282 78.7019 123.295 78.637C123.515 77.7142 123.866 76.8793 124.218 76.0444C124.322 75.818 124.429 75.5933 124.54 75.3703C124.515 75.3859 124.491 75.4017 124.467 75.4176C124.431 75.441 124.395 75.4647 124.359 75.4885C124.023 75.7104 123.672 75.9427 123.163 76.0444C122.864 76.1595 122.468 76.1781 122.084 76.0813C115.347 83.9554 108.838 92.0099 103.521 100.873C97.8518 109.705 93.2377 119.197 89.3268 128.952C85.3718 138.664 82.3397 148.771 80.1865 159.054C79.1143 164.152 78.2164 169.316 77.558 174.496L77.462 177.466C77.4417 180.61 77.3652 183.746 77.2888 186.88C77.1996 190.535 77.1105 194.189 77.1105 197.856C77.0019 211.316 77.4725 224.765 78.3952 238.183C78.9282 234.296 79.5828 230.432 80.3184 226.595C81.9882 218.07 84.0975 209.677 86.822 201.415C89.5904 193.154 93.2378 185.244 97.6321 177.73C101.863 170.637 106.995 164.17 112.768 158.293C112.267 157.594 111.915 156.812 111.738 156.066C111.255 154.352 111.342 152.594 111.606 150.924C111.782 150.089 112.002 149.254 112.353 148.419C112.373 148.384 112.393 148.348 112.413 148.312L112.462 148.223C110.839 144.724 110.295 140.82 110.42 136.994C110.464 134.973 110.683 132.951 111.167 130.974C111.231 130.751 111.293 130.527 111.355 130.304C111.845 128.544 112.337 126.777 113.935 125.217C114.375 124.822 115.253 124.338 116.22 124.866C116.883 125.307 117.083 125.842 117.26 126.313C117.294 126.405 117.327 126.494 117.363 126.579C117.67 127.678 117.714 128.689 117.758 129.743C117.782 130.869 117.741 131.969 117.663 133.064C118.024 132.166 118.419 131.279 118.857 130.403C119.296 129.524 119.78 128.645 120.351 127.81C120.659 127.371 120.966 126.975 121.449 126.58C121.845 126.228 122.856 125.745 123.691 126.316C124.821 127.29 124.845 128.333 124.867 129.262C124.869 129.38 124.872 129.497 124.877 129.612C124.921 130.666 124.745 131.633 124.57 132.6C124.218 134.533 123.647 136.423 122.944 138.225C122.905 138.32 122.867 138.415 122.828 138.51L122.988 138.312C124.262 136.818 125.58 135.412 127.03 134.094C127.777 133.435 128.524 132.82 129.403 132.248C129.843 131.985 130.282 131.721 130.897 131.545C131.381 131.369 132.523 131.282 133.095 132.116C133.78 133.412 133.442 134.377 133.14 135.24C133.093 135.373 133.048 135.503 133.007 135.632C132.682 136.526 132.206 137.345 131.754 138.123L131.644 138.312C131.599 138.384 131.554 138.455 131.508 138.526L131.557 138.488C132.963 137.39 134.413 136.379 135.995 135.456C136.786 135.017 137.621 134.577 138.587 134.314C139.071 134.182 139.598 134.05 140.257 134.182C140.96 134.27 141.664 134.929 141.795 135.632C141.985 136.924 141.386 137.723 140.88 138.399C140.801 138.505 140.724 138.607 140.653 138.708C140.039 139.41 139.337 140.024 138.635 140.638L138.632 140.641C138.49 140.756 138.348 140.87 138.205 140.983C138.508 140.927 138.826 140.887 139.159 140.861C139.686 140.861 140.477 140.861 141.092 141.52C141.707 142.179 141.62 143.19 141.312 143.717C141.048 144.289 140.653 144.684 140.257 145.08C139.51 145.783 138.675 146.354 137.84 146.881C136.973 147.407 136.093 147.896 135.208 148.356C136.13 148.151 137.062 147.978 138.016 147.848C138.983 147.716 139.95 147.585 140.96 147.585C141.488 147.585 141.971 147.628 142.542 147.716L142.581 147.726C143.107 147.857 143.87 148.047 144.256 148.991C144.52 149.958 144.124 150.573 143.773 151.056C143.421 151.539 142.982 151.891 142.586 152.199C141.751 152.814 140.873 153.253 139.95 153.649C138.148 154.44 136.302 155.011 134.457 155.45C133.556 155.662 132.65 155.854 131.739 156.018C132.953 156.09 134.167 156.205 135.38 156.329C137.313 156.549 139.203 156.901 141.136 157.384C142.103 157.648 143.026 157.911 143.993 158.351C144.476 158.57 144.959 158.79 145.399 159.186C145.618 159.361 145.882 159.625 146.058 160.021C146.278 160.372 146.278 160.943 146.102 161.339C145.407 162.613 144.373 162.869 143.476 163.092C143.429 163.103 143.382 163.115 143.336 163.127C143.292 163.138 143.248 163.149 143.205 163.16L143.152 163.174L143.114 163.184C142.103 163.404 141.092 163.492 140.126 163.492C138.148 163.536 136.215 163.36 134.281 163.053L134.153 163.03L134.193 163.053C135.863 164.019 137.489 165.118 139.027 166.304C139.818 166.92 140.565 167.535 141.268 168.326C141.62 168.721 141.971 169.117 142.235 169.688C142.367 169.952 142.498 170.259 142.498 170.699C142.542 171.094 142.323 171.622 142.015 171.929C140.877 172.802 139.838 172.626 138.953 172.477C138.812 172.454 138.676 172.431 138.544 172.413C137.533 172.237 136.61 171.885 135.687 171.49C133.842 170.743 132.128 169.776 130.502 168.721C127.408 166.645 124.396 164.241 122.333 160.999C121.63 161.286 120.898 161.339 120.219 161.339C118.461 161.295 116.835 160.899 115.253 160.284C114.813 160.117 114.406 159.884 114.035 159.604C108.469 165.44 103.543 171.86 99.4777 178.828C95.3031 186.299 91.6997 194.077 88.7995 202.118C85.9431 210.204 83.6141 218.509 81.9882 226.946C80.6508 233.887 79.6702 240.916 79.1442 247.936C79.3852 250.784 79.6452 253.629 79.9231 256.473C79.9512 256.239 79.9804 256.006 80.0107 255.773C80.5381 251.731 81.1093 247.688 81.9882 243.689C83.658 235.691 86.1189 227.781 90.1177 220.531C93.9408 213.192 100.313 207.172 107.827 203.568C111.562 201.723 115.561 200.492 119.516 199.526L125.448 198.076C127.213 197.634 128.977 197.157 130.441 196.409L130.523 196.332C130.56 196.298 130.597 196.264 130.634 196.23L130.674 196.286C130.735 196.253 130.794 196.22 130.853 196.186C131.381 195.878 132.084 196.054 132.391 196.581C132.655 197.021 132.567 197.592 132.216 197.944L132.172 197.988C127.03 202.953 122.416 208.93 120.087 215.873C117.539 222.904 114.375 229.803 109.98 235.911C105.674 242.107 99.6535 246.985 93.6772 251.335C90.733 253.576 87.8766 255.905 85.5916 258.674C85.501 258.798 85.4102 258.923 85.3192 259.047C84.3506 260.374 83.3704 261.717 82.6473 263.244L81.9882 264.43C81.8784 264.672 81.7685 264.925 81.6587 265.177C81.5488 265.43 81.4389 265.683 81.329 265.924C81.2135 266.129 81.0961 266.33 80.9784 266.527C81.4553 270.784 81.9691 275.036 82.5155 279.283C84.3611 292.774 86.6023 306.221 89.107 319.579C89.4249 321.245 89.7481 322.911 90.0769 324.576C90.3416 319.718 90.8679 314.903 91.6558 310.132C93.1938 300.508 96.0062 291.104 100.049 282.227C104.136 273.351 109.629 265.221 115.693 257.619C121.801 250.061 128.48 242.942 135.863 236.526L135.876 236.516L135.883 236.511C135.891 236.505 135.899 236.499 135.907 236.494C135.921 236.484 135.935 236.475 135.949 236.466C136.24 236.265 136.637 236.243 136.962 236.438C137.367 236.682 137.511 237.187 137.323 237.609C136.227 247.001 134.702 256.264 132.919 265.485C132.622 267.232 132.177 268.979 131.732 270.725L131.732 270.727C131.584 271.309 131.436 271.89 131.293 272.472C130.939 273.914 130.451 275.323 129.963 276.729L129.963 276.729C129.663 277.594 129.363 278.457 129.096 279.327C127.25 283.765 125.229 288.116 122.724 292.203C118.554 299.264 113.486 305.652 108.452 311.997L108.448 312C107.594 313.077 106.741 314.152 105.893 315.229C102.993 318.964 100.093 322.7 97.6321 326.698C97.1538 327.4 96.7448 328.148 96.3382 328.891C96.1845 329.173 96.031 329.453 95.8744 329.73C95.3031 330.741 94.7758 331.796 94.3363 332.85L93.6332 334.432C93.4186 334.826 93.2623 335.278 93.0693 335.835C93.0252 335.962 92.9792 336.095 92.9301 336.234C92.838 336.487 92.7378 336.737 92.6322 336.981C92.8179 337.846 93.0051 338.71 93.1938 339.574C93.7961 342.348 94.4211 345.092 95.05 347.853L95.0502 347.854L95.0513 347.858C95.9361 351.743 96.8286 355.661 97.676 359.744C97.9836 361.238 97.0169 362.688 95.5228 362.996C94.0287 363.303 92.5786 362.337 92.271 360.842C92.271 360.799 92.271 360.711 92.227 360.667L92.1831 360.447C91.2874 353.915 90.0767 347.263 88.821 340.578C87.4935 337.598 85.6658 334.837 83.4823 332.411C80.2305 328.939 76.3634 326.039 72.1888 323.622C63.7956 318.832 54.3917 316.152 44.9438 313.603C40.2418 312.241 35.5399 310.659 31.2334 308.242C26.9709 305.825 22.972 302.617 20.1596 298.486C18.8956 296.658 17.8725 294.736 16.8618 292.836C15.5888 290.444 14.3355 288.089 12.6453 286.007C11.1952 284.117 9.56925 282.359 7.67968 280.953C5.85309 279.605 3.68217 278.429 1.59289 278.149C1.29458 278.198 0.969708 278.073 0.780544 277.789C0.516883 277.525 0.648713 276.998 1.0442 276.734C1.06937 276.719 1.09445 276.704 1.11946 276.689C4.16276 273.458 8.98104 272.801 12.909 273.966C16.5754 274.991 19.6052 277.183 22.5378 279.305C22.8739 279.548 23.2088 279.791 23.5433 280.03C24.2867 280.592 25.0278 281.155 25.7681 281.717C31.4605 286.042 37.1062 290.332 43.4058 293.521C46.9652 295.323 50.7004 296.817 54.5235 297.827C56.6287 298.384 58.7872 298.834 60.9623 299.287L60.963 299.287C62.7377 299.657 64.5235 300.03 66.3003 300.464C70.2113 301.431 74.1662 302.485 77.9454 304.067C79.7073 304.805 81.431 305.695 83.0096 306.881C81.9813 300.059 81.0426 293.225 80.1766 286.381C78.2746 283.872 75.5232 281.791 72.9316 279.831L72.6722 279.635C69.2885 277.174 65.7291 274.933 62.0818 272.867C58.4345 270.802 54.6993 268.913 50.8762 267.199C49.8779 266.751 48.8706 266.313 47.8606 265.873L47.8591 265.872C45.0017 264.628 42.1224 263.375 39.363 261.882C35.6278 259.904 31.9805 257.575 28.9044 254.631C25.8284 251.643 23.3236 248.083 21.5658 244.172C19.9399 240.305 17.567 236.878 14.6228 233.977C13.1726 232.527 11.5907 231.165 9.87686 229.979C9.04193 229.363 8.16306 228.836 7.28419 228.309L5.92194 227.562L4.69152 226.946H4.64758C4.55969 226.903 4.4718 226.859 4.33997 226.771C4.20814 226.595 4.12026 226.243 4.1642 226.068C4.20814 225.76 4.8673 225.365 5.08701 225.452H6.58109L8.25095 225.496L11.5907 225.628C13.8318 225.76 16.029 225.98 18.2261 226.243C22.6205 226.815 27.0148 227.65 31.2774 228.968C35.5399 230.286 39.7145 232.132 43.23 234.988C46.6217 237.659 49.5634 240.862 52.4498 244.004L52.7657 244.348L61.5984 254.235C62.1362 254.837 62.6754 255.438 63.2148 256.039C65.6284 258.726 68.0445 261.417 70.3432 264.255C73.1556 267.726 75.7922 271.329 77.9893 275.197C78.3529 275.857 78.7127 276.521 79.062 277.192C76.4515 254.442 74.8766 231.602 74.0018 208.723C73.9256 208.645 73.8483 208.568 73.771 208.49L73.7704 208.49C73.2432 207.963 72.716 207.435 72.1448 206.952C71.0023 205.985 69.7719 205.15 68.4096 204.447C65.7291 203.041 62.8288 202.294 59.7088 202.118C56.5888 201.855 53.4249 201.547 50.3049 200.712C47.1849 199.877 44.3286 198.383 41.692 196.581C39.2872 194.938 37.0834 193.085 34.8973 191.246C32.2898 189.053 29.7075 186.881 26.8391 185.112C21.6537 181.729 16.0289 178.872 10.2723 176.675H10.2284C9.87685 176.543 9.65713 176.104 9.83291 175.752C9.96474 175.445 10.2723 175.269 10.6239 175.313C10.7013 175.324 10.7788 175.335 10.8562 175.346L10.8876 175.225C11.0552 175.288 11.2224 175.351 11.3894 175.415C16.0778 175.974 20.7685 175.308 25.5046 174.636C27.3915 174.368 29.2855 174.099 31.1895 173.907C38.1765 173.072 45.4272 173.951 52.0187 176.587C58.786 179.268 63.9713 184.629 67.8384 190.473C69.8158 193.418 71.4857 196.538 72.9358 199.701C73.2187 200.301 73.489 200.906 73.7491 201.518C73.7105 200.312 73.6738 199.106 73.6389 197.9C73.5265 193.515 73.486 189.148 73.4829 184.776C73.4753 184.742 73.4687 184.708 73.4632 184.673V184.629C72.5843 178.565 71.5296 172.544 69.7719 166.7C68.0581 160.855 65.817 155.143 63.0925 149.65C60.368 144.157 57.0722 138.972 53.381 134.05C51.762 131.891 50.0586 129.809 48.3039 127.762C48.4514 128.104 48.5903 128.456 48.723 128.821C48.8987 129.304 49.0306 129.787 49.1184 130.359L49.1216 130.395L49.1284 130.47C49.1763 130.993 49.2433 131.725 48.5472 132.38C47.7562 132.951 47.0092 132.819 46.4818 132.644C45.9106 132.468 45.4272 132.204 45.0317 131.897C44.1968 131.325 43.4497 130.622 42.7906 129.963C41.4283 128.557 40.2858 127.019 39.1872 125.437C38.5126 124.446 37.864 123.437 37.256 122.406C37.7337 123.824 38.1375 125.268 38.5281 126.711C39.0114 128.601 39.4069 130.491 39.6266 132.424C39.7585 133.391 39.8024 134.401 39.7585 135.412C39.7145 135.94 39.6706 136.467 39.4948 137.038C39.4069 137.302 39.2751 137.653 38.9675 137.961C38.7038 138.269 38.1765 138.488 37.7371 138.488C36.2795 138.296 35.6924 137.435 35.1868 136.693C35.1131 136.585 35.0412 136.479 34.9686 136.379C34.3974 135.5 34.0019 134.621 33.6064 133.698C32.8593 131.853 32.332 129.963 31.9365 128.074C31.8902 127.837 31.8454 127.599 31.8024 127.361C31.7741 127.569 31.7455 127.777 31.7168 127.986C31.4092 129.875 31.0137 131.809 30.4864 133.654C30.2227 134.577 29.8712 135.544 29.4317 136.423C29.212 136.862 28.9484 137.346 28.5089 137.785C28.2013 138.181 27.2785 138.796 26.3996 138.356C25.2015 137.622 24.9892 136.582 24.8059 135.684C24.7808 135.561 24.7563 135.441 24.7298 135.324C24.554 134.314 24.554 133.303 24.554 132.336C24.598 130.359 24.8616 128.425 25.2571 126.536C26.0212 123.077 27.1165 119.619 29.1492 116.632C28.3571 115.854 27.9749 114.955 27.7179 114.056C27.1906 112.254 27.2785 110.32 27.8498 108.563C28.3332 106.893 29.212 105.223 30.4864 103.861C31.7607 102.498 33.4745 101.488 35.4081 101.268C36.3748 101.136 37.3855 101.18 38.3962 101.532C38.4888 101.558 38.5854 101.591 38.6843 101.631C41.228 99.3097 44.3725 97.6784 47.5804 96.5221C49.5139 95.863 51.4474 95.3796 53.4688 95.072C53.686 95.0531 53.9036 95.0322 54.1219 95.0112L54.1229 95.0111C55.9366 94.8368 57.7967 94.6581 59.7967 95.5993C60.324 95.863 61.0711 96.5221 60.9392 97.5768C60.7267 98.4693 60.2265 98.8686 59.7963 99.2119L59.7528 99.2466C58.83 99.9058 57.9072 100.345 56.9404 100.741C55.8179 101.184 54.6799 101.566 53.5357 101.914C54.6325 101.917 55.7355 101.96 56.8525 102.059C57.8193 102.147 58.83 102.279 59.7967 102.542L59.8718 102.563C60.3344 102.688 60.8346 102.824 61.3347 103.158C61.8181 103.377 62.6091 104.168 62.3894 105.179C61.889 106.565 60.9164 106.973 60.0921 107.318C59.9755 107.367 59.8618 107.415 59.7528 107.464C58.786 107.86 57.8193 108.079 56.8525 108.255C54.93 108.605 52.964 108.737 51.0409 108.782C52.8444 109.428 54.6058 110.12 56.3252 110.979C57.2041 111.419 58.0829 111.902 58.9179 112.518C58.9595 112.55 59.0016 112.582 59.044 112.615C59.4049 112.892 59.7898 113.188 60.1043 113.66C60.4559 114.056 60.9393 115.066 60.324 115.901C59.3546 116.987 58.2826 117.012 57.3796 117.033H57.3788C57.2588 117.036 57.1416 117.039 57.0283 117.044C55.9736 117.044 55.0069 116.868 54.0401 116.692C53.8674 116.657 53.6954 116.62 53.524 116.582C53.6376 116.648 53.751 116.714 53.8643 116.78C55.4024 117.703 56.8964 118.67 58.3026 119.856C59.0057 120.427 59.7088 121.043 60.324 121.834C60.6317 122.229 60.9393 122.668 61.0271 123.328C61.2029 124.031 60.8074 124.91 60.1922 125.261C59.0594 125.903 58.1212 125.636 57.322 125.409C57.1912 125.372 57.064 125.336 56.9404 125.305C56.0615 124.998 55.2266 124.558 54.4356 124.119C54.172 123.972 53.912 123.822 53.6551 123.668C53.8842 123.998 54.0858 124.36 54.2598 124.778C54.4356 125.261 54.6993 126.008 54.3038 126.843C53.9083 127.634 52.9415 127.898 52.3263 127.854C51.6672 127.81 51.1838 127.59 50.7005 127.371C50.4069 127.231 50.1221 127.078 49.8448 126.915C51.5838 128.858 53.2756 130.848 54.875 132.907C58.7421 137.785 62.2136 143.058 65.1578 148.595C68.102 154.132 70.5189 159.933 72.4524 165.909C72.9194 167.352 73.3402 168.808 73.7223 170.274C73.8074 168.095 73.9054 165.918 74.0035 163.739V163.737L74.0036 163.734C74.1066 161.444 74.2098 159.153 74.2981 156.857C75.0012 143.278 75.3088 129.699 75.0012 116.077C74.6936 102.498 73.7708 88.9198 72.1888 75.3852C70.5954 62.1643 68.5378 48.9434 65.23 36.0948C64.3721 36.281 63.5401 36.3633 62.7409 36.3633C60.4377 36.3633 58.4812 35.6004 57.1489 34.5058C54.0243 36.4408 50.2433 37.1919 46.6136 37.1103C44.6362 37.0664 42.6587 36.8027 40.7692 36.3194C40.6384 36.2798 40.5075 36.2407 40.3765 36.2016L40.3758 36.2014L40.3748 36.2011C38.6122 35.6748 36.8301 35.1426 35.2762 33.507L35.2533 33.4726C35.0818 33.2164 34.8788 32.913 34.8368 32.4084C34.8368 31.8811 35.2323 31.3537 35.4959 31.178C36.0294 30.8351 36.4967 30.7234 36.9553 30.6138C37.0256 30.597 37.0957 30.5803 37.1658 30.5628C38.1614 30.3896 39.157 30.3444 40.1106 30.3011L40.1539 30.2991C41.881 30.2991 43.5745 30.3661 45.2344 30.5002C43.5109 29.753 41.8646 28.8885 40.3297 27.8383C40.1392 27.6941 39.9468 27.5517 39.7541 27.4091C38.3027 26.3347 36.8328 25.2466 35.9793 23.2682C35.8035 22.7408 35.6717 21.7741 36.4187 21.071C37.0735 20.6088 37.627 20.6192 38.1384 20.6288C38.2103 20.6302 38.2818 20.6315 38.3523 20.6315C39.4509 20.7194 40.4616 21.027 41.4283 21.3346C42.5541 21.7184 43.6352 22.1618 44.6976 22.6474C43.9151 21.9402 43.1575 21.2021 42.439 20.4118C41.7799 19.7087 41.1207 18.9617 40.5494 18.0828C40.5044 18.0078 40.4581 17.9328 40.4114 17.8571C40.1846 17.4896 39.9481 17.1063 39.8024 16.6327C39.6266 16.1493 39.4948 15.0507 40.3297 14.5234C41.5817 13.8191 42.5899 14.1599 43.4783 14.4602C43.5877 14.4972 43.6953 14.5336 43.8013 14.5673C44.768 14.9189 45.6469 15.4023 46.4818 15.8856C48.1517 16.8963 49.7336 18.0828 51.1838 19.3572C51.2432 19.4111 51.3025 19.4652 51.3618 19.5194C51.3316 19.4654 51.3016 19.4113 51.2717 19.3571C50.3488 17.6433 49.47 15.9296 48.7229 14.0839C48.3714 13.1611 48.0198 12.2383 47.8441 11.2276C47.8401 11.2035 47.8361 11.1796 47.8321 11.1557C47.7484 10.6559 47.6703 10.1888 47.7122 9.60168C47.7122 9.07436 48.0198 8.01971 48.9866 7.8C50.4287 7.60511 51.2486 8.30909 51.9368 8.90001C52.0245 8.97531 52.11 9.04877 52.1945 9.1183C52.9854 9.77744 53.6006 10.5684 54.2158 11.3594C54.3427 11.5285 54.4675 11.6986 54.5904 11.8697ZM58.1058 18.0614C59.1202 20.356 59.9251 22.7602 60.2733 25.2741C60.8702 24.9352 61.4972 24.646 62.1467 24.4119C61.0934 21.2449 60.2556 18.0073 59.6649 14.6991C59.4712 13.6826 59.3176 12.666 59.204 11.6348C59.1244 11.3229 59.0436 11.0114 58.9618 10.7003C58.5223 9.03043 58.039 7.36058 57.4238 5.82255C57.1161 5.03157 56.7646 4.28453 56.3691 3.62538C55.9736 2.96622 55.4024 2.39496 55.0947 2.4389C54.8311 2.39496 54.6114 2.92228 54.5235 3.71326C54.5235 4.50425 54.5674 5.33917 54.6993 6.13016C54.9629 7.80001 55.4024 9.46987 55.8418 11.1397C56.5201 13.452 57.2849 15.7643 58.1058 18.0614ZM59.367 25.8426C58.8251 22.7541 57.4686 19.7747 56.0176 16.9842C55.1387 15.3143 54.128 13.7324 52.9855 12.2822C52.4142 11.5791 51.799 10.8321 51.1398 10.2608C50.5246 9.68957 49.6457 9.20619 49.2942 9.29408C49.2503 9.1183 49.0305 10.129 49.2942 10.9639C49.47 11.8428 49.7776 12.7217 50.0852 13.5566C50.7443 15.3143 51.5793 16.9842 52.4581 18.654C54.0546 21.5744 55.7546 24.5638 57.9249 27.0107C58.3742 26.5856 58.8567 26.1949 59.367 25.8426ZM60.8113 12.4284C61.2008 14.4078 61.5063 16.3988 61.7777 18.393C62.1523 20.31 62.5809 22.2258 63.0699 24.1206C63.2084 24.083 63.3478 24.0478 63.488 24.0152C63.8675 23.9309 64.2453 23.8655 64.6199 23.819L64.611 23.6636C64.5883 23.2693 64.5656 22.8751 64.5426 22.4808C64.3902 21.3034 64.3267 20.1208 64.3187 18.9406C64.2128 17.4389 64.0883 15.9372 63.9274 14.4355C63.7077 12.5898 63.488 10.7882 63.0925 9.03041C63.0434 8.83411 62.9965 8.63782 62.9499 8.4425C62.7877 7.76336 62.6283 7.09598 62.3894 6.48169C62.1257 5.6907 61.5544 4.94366 61.3347 4.98761C61.159 4.85577 60.8074 5.47098 60.6756 6.30591C60.5437 7.14084 60.4998 8.01971 60.5437 8.94252C60.572 10.1006 60.6729 11.2587 60.8113 12.4284ZM68.0466 23.9371C67.3544 23.7926 66.6275 23.7237 65.8795 23.7326C65.6852 20.8649 65.932 17.9176 66.1748 15.0178L66.2125 14.5673C66.3882 12.7217 66.6958 10.8761 67.0474 9.07438C67.2232 8.1955 67.4429 7.31663 67.7505 6.48171C67.9702 5.69072 68.6294 4.81185 68.6733 4.89974C68.8051 4.81185 69.4203 5.55889 69.5961 6.39382C69.8598 7.22875 69.9477 8.10762 70.0355 9.03043C70.1674 10.8321 70.1234 12.7217 69.9477 14.5673C69.6463 17.7321 69.0864 20.9292 68.0466 23.9371ZM69.5607 24.3977C70.0275 24.5889 70.4698 24.8206 70.8818 25.0922C71.0334 24.9615 71.1827 24.8283 71.3298 24.6926C72.2621 23.3894 73.3149 22.2078 74.4379 21.1003C75.4055 19.7408 76.2664 18.2966 77.0665 16.8524C77.9454 15.1826 78.7364 13.4688 79.3076 11.711C79.6152 10.8321 79.8789 9.95328 79.9668 9.07441C80.1426 8.23948 80.0547 7.22878 79.7471 7.053C79.9228 6.92117 79 7.27272 78.4288 7.93187C77.8136 8.54706 77.2423 9.29408 76.6711 10.0411C75.5725 11.5352 74.6057 13.1612 73.6829 14.831C72.0562 17.881 70.3919 21.0815 69.5607 24.3977ZM72.3477 25.1138C73.2773 24.32 74.1233 23.4462 74.9042 22.5176C76.2862 21.2535 77.7637 20.0695 79.2197 18.9177C79.3633 18.8111 79.5065 18.7044 79.6494 18.598C81.0378 17.5638 82.4036 16.5465 83.8778 15.7099C84.7127 15.2265 85.5037 14.787 86.3386 14.4794C87.1296 14.0839 88.1403 14.1279 87.9206 14.1718C88.0963 14.4355 87.7887 15.4023 87.3054 16.1054C86.8659 16.8524 86.2507 17.5555 85.6355 18.2586C84.3611 19.6208 82.9549 20.8513 81.5048 22.0377C78.7689 24.1203 75.7675 26.089 72.4651 27.0976C72.2929 26.6381 72.0477 26.2168 71.7345 25.8485C71.9333 25.6001 72.1379 25.3553 72.3477 25.1138ZM72.7601 28.9369C72.7643 28.7855 72.762 28.6357 72.7535 28.4879C75.8905 27.0263 79.4172 26.2514 82.8671 25.5532C84.7127 25.2016 86.6023 24.938 88.4479 24.8061C89.3707 24.7182 90.2935 24.7182 91.1724 24.8061C92.0513 24.8061 92.9301 25.2895 92.7104 25.2456C92.7104 25.5971 92.0073 26.3002 91.2603 26.6957C90.5802 27.1358 89.7908 27.4666 89.0248 27.7876L88.7994 27.8822C87.0417 28.5413 85.24 29.0247 83.3944 29.4202C79.8695 30.0997 76.1394 30.4919 72.6405 29.8035C72.703 29.5149 72.7434 29.2252 72.7601 28.9369ZM56.996 27.9957C56.6639 28.391 56.3577 28.8084 56.0808 29.2454C55.5377 28.9847 55.0036 28.6995 54.4774 28.3944C53.3096 27.5152 52.0942 26.7067 50.8461 25.9454C49.717 25.0934 48.6176 24.1966 47.5365 23.3121C46.1303 22.0817 44.7241 20.8073 43.4497 19.4451C42.8345 18.742 42.2193 18.0389 41.7359 17.2918C41.2086 16.5887 41.0328 15.578 41.1646 15.7099C41.4283 15.4901 42.439 15.622 43.23 15.9296C43.997 16.1718 44.7641 16.5995 45.497 17.0081C45.5619 17.0443 45.6265 17.0803 45.6908 17.116C47.3167 18.0389 48.8108 19.1814 50.261 20.3679C52.8173 22.6047 55.3373 25.0593 56.996 27.9957ZM55.5005 30.4847C52.6401 28.411 49.455 26.7082 46.306 25.1138C44.5483 24.2349 42.7466 23.4439 40.9449 22.7848C39.319 22.1696 36.5066 21.6422 37.3416 22.8287C37.9128 24.2789 39.6266 25.5972 41.1207 26.6958C42.7027 27.7943 44.4165 28.7172 46.2182 29.4642C47.7422 30.1228 49.3147 30.6846 50.9217 31.0981C52.4397 31.3017 53.9499 31.5382 55.4577 31.7992C55.383 31.3546 55.3966 30.9108 55.5005 30.4847ZM45.8666 32.0568C48.1273 32.2127 50.3725 32.3994 52.6206 32.6077C53.1792 32.6825 53.7409 32.7367 54.3047 32.7675C54.8144 32.817 55.3246 32.8675 55.8353 32.9189C55.9955 33.2314 56.2007 33.5368 56.4499 33.8289C53.475 35.4038 49.9945 35.8233 46.6576 35.7042C44.812 35.6602 42.9663 35.3526 41.1646 34.8692C39.4508 34.3858 37.4734 33.6828 36.5066 32.5842C36.4714 32.5489 36.4361 32.4995 36.4094 32.4587L36.4187 32.4523C36.5945 32.3205 37.0779 32.1887 37.4734 32.1008C38.2902 31.9718 39.2331 31.927 40.1376 31.8839L40.1979 31.8811C42.0435 31.8371 43.977 31.925 45.8666 32.0568ZM36.3716 32.4867C36.3601 32.4963 36.3573 32.5005 36.3587 32.5002C36.3602 32.4999 36.366 32.4951 36.3716 32.4867ZM58.4254 32.3C58.2 32.0287 57.6727 31.3942 57.995 30.8704C59.2694 28.6293 61.5105 27.0034 64.0153 26.4321C66.0806 25.9927 68.146 26.2563 69.5082 27.1791C70.0355 27.5307 70.2992 28.058 70.2553 28.805C70.2113 30.2552 69.0688 31.7932 67.5308 32.6281C63.2682 34.8693 59.7967 33.7267 58.4784 32.3645C58.4638 32.3462 58.4458 32.3245 58.4254 32.3ZM134.115 67.0001C134.416 66.2592 134.739 65.5268 135.091 64.8089L135.116 64.7509C135.123 64.736 135.131 64.7221 135.14 64.7091C135.849 63.2746 136.673 61.8995 137.664 60.6329C136.902 60.4496 136.158 60.1914 135.449 59.8611C133.882 62.9429 132.189 65.9438 130.194 68.7937C129.567 69.7085 128.909 70.6078 128.219 71.4915C128.101 71.6906 127.983 71.8899 127.865 72.0894C126.986 73.5835 126.195 75.1215 125.536 76.6596C125.229 77.4505 124.921 78.2415 124.745 78.9886C124.526 79.7356 124.569 80.5705 124.833 80.7463C125.009 80.966 125.492 80.7463 126.151 80.219C126.723 79.6917 127.294 79.0765 127.777 78.3734C128.788 77.0111 129.711 75.561 130.546 74.0669C131.819 71.7559 133.015 69.3938 134.115 67.0001ZM134.281 69.6725C135.238 66.573 136.461 63.4067 138.386 60.7832C139.042 60.8988 139.707 60.9597 140.374 60.9642C140.236 64.3564 139.28 67.7678 138.324 71.0348C137.753 72.8804 137.137 74.6381 136.346 76.3519C135.951 77.1869 135.511 78.0218 135.028 78.7688C134.589 79.5159 133.754 80.175 133.71 79.9553C133.314 79.7356 133.095 78.7688 133.051 77.89C132.963 77.0111 133.051 76.0883 133.138 75.1655C133.358 73.3198 133.754 71.4742 134.281 69.6725ZM132.223 63.819C133.135 62.4295 134.007 61.0089 134.835 59.5533C134.319 59.2746 133.825 58.956 133.358 58.5987L133.352 58.5941C131.212 61.0229 129.109 63.4853 127.074 65.9813C125.932 67.4314 124.789 68.8816 123.822 70.3757C123.339 71.1227 122.856 71.9137 122.548 72.7047C122.244 73.2799 122.095 73.9593 122.144 74.3216C122.226 74.3552 122.303 74.4021 122.372 74.4624C122.429 74.5123 122.478 74.5679 122.519 74.6275C122.797 74.5855 123.247 74.3823 123.735 74.0669C124.394 73.5835 125.097 72.9683 125.712 72.3092C126.408 71.5636 127.09 70.79 127.749 69.9882C129.172 67.8626 130.691 65.8344 132.223 63.819ZM41.8377 107.508C43.0755 107.921 44.3489 108.205 45.6368 108.399C47.2614 108.874 48.8666 109.444 50.4368 110.013C52.1945 110.716 53.9522 111.419 55.5781 112.298C56.4131 112.737 57.2041 113.221 57.9072 113.748C58.6542 114.231 59.1376 115.066 59.0057 114.934C58.83 115.198 57.8632 115.462 57.0283 115.418C56.1494 115.462 55.2266 115.33 54.3038 115.154C52.4582 114.847 50.6565 114.319 48.8987 113.66C45.7517 112.465 42.5686 110.981 40.004 108.815C40.1645 108.323 40.2998 107.823 40.4083 107.315C40.8851 107.364 41.3617 107.429 41.8377 107.508ZM45.4471 107.137C44.5006 106.923 43.5431 106.748 42.5719 106.629C41.9106 106.467 41.2593 106.274 40.6216 106.043C40.6767 105.591 40.7102 105.135 40.7212 104.677C44.0278 103.747 47.6372 103.587 51.0959 103.465C52.9855 103.465 54.875 103.465 56.7207 103.685C57.6435 103.773 58.5663 103.949 59.4012 104.168C60.2801 104.344 61.0271 104.959 60.8514 104.871C60.8074 105.179 59.9725 105.794 59.1815 106.058C58.3905 106.409 57.5117 106.629 56.5888 106.805C54.7432 107.156 52.8976 107.332 51.008 107.376C49.1636 107.398 47.287 107.355 45.4471 107.137ZM39.6472 109.794C39.4002 110.406 39.1139 111.001 38.7918 111.576C39.9093 112.222 41.0066 112.903 42.0837 113.614C42.1629 113.624 42.2412 113.655 42.3072 113.704C42.494 113.849 42.6809 113.994 42.8681 114.139C44.3611 115.155 45.8147 116.228 47.2289 117.351C47.6291 117.669 48.0261 117.99 48.4192 118.317C49.191 118.88 49.966 119.437 50.7444 119.988C52.1945 120.955 53.6446 121.921 55.1387 122.756C55.8857 123.152 56.6328 123.547 57.4238 123.811C58.1708 124.075 59.0057 124.163 59.2694 123.943L59.288 123.925L59.3016 123.911L59.3184 123.895C59.4112 123.807 59.4391 123.781 59.4012 123.591C59.3573 123.372 59.1815 123.064 58.9618 122.756C58.5224 122.141 57.9072 121.57 57.248 120.999C55.9297 119.9 54.5235 118.933 53.0294 118.01C51.0464 116.738 49.0236 115.545 46.9609 114.405C44.3385 113.241 41.7819 111.805 39.6472 109.794ZM38.2211 112.516C37.9411 112.943 37.6407 113.355 37.3215 113.752C37.6361 114.059 37.9498 114.366 38.2629 114.673C39.5941 115.74 40.7793 116.948 41.8861 118.224C42.8368 119.145 43.7943 120.058 44.768 120.955C46.1303 122.229 47.5365 123.46 49.0306 124.558C49.7776 125.085 50.5246 125.613 51.3156 125.964C52.1066 126.36 52.8976 126.316 52.8536 126.14C52.9855 126.052 52.59 125.042 52.1066 124.382C51.6232 123.679 51.008 122.976 50.3489 122.317C49.0745 120.999 47.6683 119.724 46.2182 118.538C43.6423 116.43 40.9972 114.392 38.2211 112.516ZM35.1493 115.94C35.6499 115.541 36.1072 115.107 36.5328 114.655C38.6847 116.685 40.5286 119.117 42.3429 121.51L42.3463 121.514C42.5386 121.768 42.7305 122.021 42.9224 122.273C44.021 123.767 45.0317 125.349 45.9545 126.931C46.3939 127.722 46.8334 128.513 47.141 129.348C47.4925 130.095 47.5804 131.194 47.4925 131.15C47.4486 131.281 46.4818 131.15 45.8227 130.622C45.1196 130.183 44.4165 129.568 43.7573 128.952C42.439 127.678 41.2526 126.228 40.154 124.734C38.1586 122.02 36.3806 119.089 35.1493 115.94ZM119.457 149.543C122.154 148.332 124.472 146.492 126.576 144.452C128.525 142.789 130.511 141.185 132.567 139.675C133.973 138.62 135.38 137.653 136.874 136.818C137.621 136.423 138.368 136.027 139.115 135.852C139.466 135.764 139.818 135.72 140.038 135.764C140.213 135.808 140.257 135.852 140.301 136.027C140.433 136.335 140.038 137.126 139.51 137.697C138.983 138.312 138.368 138.884 137.709 139.455C136.39 140.554 134.984 141.564 133.534 142.575C133.192 142.803 132.849 143.03 132.505 143.255C131.551 143.752 130.617 144.277 129.711 144.816C126.637 146.685 123.642 148.751 120.874 151.05C120.436 150.519 119.963 150.014 119.457 149.543ZM126.986 142.004C124.604 144.684 121.933 147.282 118.694 148.88C118.413 148.652 118.123 148.434 117.825 148.227C119.371 144.982 121.815 142.069 124.218 139.323C125.492 137.917 126.767 136.555 128.173 135.324C128.876 134.709 129.579 134.138 130.326 133.654C131.029 133.127 132.04 132.995 131.82 133.083C132.04 133.347 131.908 134.314 131.557 135.105C131.249 135.94 130.809 136.731 130.326 137.522C129.359 139.06 128.217 140.554 126.986 142.004ZM127.063 147.913C125.121 149.089 123.205 150.324 121.335 151.637C121.636 152.04 121.917 152.455 122.177 152.881C122.918 152.539 123.661 152.2 124.404 151.861L124.412 151.857L124.421 151.853C127 150.674 129.579 149.496 132.084 148.244C133.754 147.409 135.424 146.53 136.962 145.519C137.753 145.036 138.456 144.508 139.071 143.893C139.73 143.322 139.994 142.575 139.774 142.531C139.73 142.355 138.675 142.355 137.884 142.619C137.049 142.839 136.171 143.146 135.336 143.498C134.531 143.828 133.746 144.197 132.967 144.59C131.034 145.78 129.054 146.872 127.063 147.913ZM122.836 154.107C123.082 154.614 123.304 155.134 123.488 155.672C127.045 155.661 130.635 154.975 134.061 154.044C135.863 153.517 137.621 152.946 139.291 152.243C140.126 151.891 140.916 151.452 141.62 150.924C142.323 150.485 142.806 149.65 142.718 149.562C142.806 149.518 141.751 149.167 140.916 149.21C140.038 149.21 139.115 149.298 138.236 149.386C136.39 149.65 134.589 150.045 132.787 150.485C129.388 151.408 125.829 152.411 122.836 154.107ZM128.985 161.766C127.504 161.273 126.065 160.653 124.706 159.858C124.404 159.753 124.1 159.653 123.795 159.561C123.645 159.931 123.419 160.282 123.101 160.556C125.201 163.389 128.183 165.56 131.205 167.491C132.831 168.458 134.501 169.337 136.215 169.996C137.049 170.347 137.928 170.655 138.807 170.787C139.642 171.006 140.609 170.962 140.829 170.699C140.96 170.875 140.653 169.908 139.994 169.337C139.422 168.677 138.719 168.062 137.972 167.491C136.522 166.304 134.94 165.294 133.358 164.283C131.929 163.422 130.474 162.552 128.985 161.766ZM124.03 158.335C124.487 158.609 124.957 158.861 125.437 159.092C126.757 159.47 128.024 159.956 129.257 160.508C130.988 160.995 132.776 161.329 134.545 161.602C136.39 161.822 138.28 161.954 140.126 161.91C141.048 161.866 141.971 161.822 142.806 161.602C143.641 161.471 144.52 161.031 144.652 160.68C144.827 160.812 144.168 160.064 143.333 159.757C142.542 159.405 141.664 159.098 140.741 158.878C138.939 158.395 137.093 158.043 135.204 157.779C131.469 157.296 127.602 156.813 123.998 157.384H123.954C123.944 157.386 123.934 157.387 123.924 157.389C123.954 157.575 123.979 157.764 123.998 157.955C124.018 158.072 124.029 158.2 124.03 158.335ZM116.814 139.61C116.471 141.476 116.041 143.329 115.468 145.151C115.383 145.711 115.317 146.271 115.275 146.829C115.637 146.979 115.991 147.145 116.337 147.325C118.792 144.665 120.334 141.182 121.581 137.741C122.197 135.983 122.68 134.138 123.031 132.336C123.163 131.413 123.295 130.491 123.251 129.612C123.295 128.777 123.031 127.81 122.724 127.634C122.9 127.502 122.021 127.986 121.537 128.733C121.079 129.344 120.688 130.054 120.304 130.748L120.233 130.879C120.199 130.94 120.165 131.001 120.131 131.062C119.296 132.732 118.593 134.489 117.934 136.247C117.55 137.357 117.167 138.48 116.814 139.61ZM113.952 146.736C114.317 145.476 114.616 144.196 114.866 142.905C114.935 142.476 115.013 142.048 115.099 141.623C115.432 139.656 115.667 137.666 115.869 135.676C116.044 133.742 116.176 131.765 116.132 129.831C116.132 128.074 115.561 125.393 114.946 126.536C113.803 127.546 113.144 129.612 112.661 131.369C112.221 133.215 111.914 135.148 111.826 137.082C111.669 140.541 111.933 144.07 113.092 147.324L113.11 147.306L113.117 147.299C113.127 147.288 113.137 147.278 113.148 147.268L113.16 147.256L113.175 147.242C113.193 147.224 113.213 147.207 113.232 147.189C113.39 146.992 113.653 146.83 113.952 146.736ZM72.8204 203.443C72.3908 202.388 71.9355 201.333 71.4417 200.317C69.9916 197.197 68.4096 194.165 66.4761 191.308C62.697 185.64 57.7753 180.586 51.5353 177.949C45.2075 175.357 38.3083 174.346 31.4531 175.181C29.6372 175.368 27.8088 175.631 25.9687 175.895L25.968 175.895C22.7064 176.363 19.4075 176.837 16.0773 176.907C27.3383 178.406 38.2926 181.566 48.635 186.255C53.7764 188.628 58.786 191.44 63.4001 194.824C66.8386 197.313 70.0576 200.168 72.8204 203.443ZM15.7377 176.913C15.5003 176.916 15.2628 176.917 15.0251 176.915C15.1574 176.974 15.2895 177.033 15.4214 177.092C15.5099 177.007 15.6184 176.944 15.7377 176.913ZM18.8074 178.714C21.872 180.274 24.8251 182.031 27.674 183.97C30.4167 185.701 32.8719 187.8 35.3102 189.885L35.3112 189.885C37.6387 191.875 39.9508 193.852 42.483 195.483C45.0756 197.197 47.8441 198.559 50.7883 199.306C53.7325 200.053 56.8525 200.317 59.9725 200.536C63.1364 200.668 66.4322 201.415 69.3325 202.865C69.8104 203.112 70.2789 203.377 70.7362 203.66C68.257 200.875 65.4369 198.377 62.4773 196.098C58.039 192.714 53.1612 189.858 48.1077 187.485C38.8938 183.079 28.9494 180.133 18.8074 178.714ZM81.3158 262.561L81.329 262.541C82.164 260.827 83.2626 259.245 84.3611 257.707C86.778 254.719 89.6783 252.302 92.6225 250.017C98.5988 245.578 104.355 240.964 108.574 234.9C112.837 228.924 116 222.201 118.373 215.213C120.084 210.234 122.602 205.53 125.883 201.368C120.512 204.092 115.395 207.401 111.342 211.874C108.117 215.247 105.709 219.258 103.272 223.317C102.09 225.285 100.901 227.264 99.6096 229.188C97.994 231.742 95.8967 234.104 93.9217 236.329C93.5867 236.706 93.2552 237.079 92.9301 237.449C90.7769 240.13 88.9313 243.074 87.3054 246.15C84.6504 251.349 82.6452 256.889 81.3158 262.561ZM122.071 201.029C121.361 201.177 120.655 201.33 119.955 201.503C116 202.382 112.177 203.481 108.574 205.15C101.323 208.446 95.2591 214.115 91.48 221.19C87.569 228.177 85.0642 235.999 83.4383 243.865C82.5595 247.82 81.9443 251.818 81.4169 255.817C81.3226 256.54 81.2395 257.264 81.1637 257.985C82.4138 253.669 84.0289 249.479 86.031 245.447C87.6569 242.283 89.5026 239.207 91.7437 236.438C92.2102 235.894 92.6732 235.363 93.1306 234.839L93.1314 234.838C95.0003 232.697 96.7734 230.665 98.2913 228.265C99.5069 226.434 100.651 224.528 101.804 222.609C104.276 218.492 106.785 214.314 110.112 210.687C113.554 206.835 117.676 203.687 122.071 201.029ZM79.7355 282.844C75.9709 277.136 71.2722 272.064 66.4761 267.155C60.8514 261.486 54.875 256.169 48.6351 251.159C42.3951 246.15 35.8475 241.536 29.0362 237.405C23.0176 233.817 16.7619 230.534 10.1204 228.418C10.3326 228.568 10.5441 228.721 10.7557 228.88C12.4695 230.154 14.1394 231.561 15.5895 233.099C18.5777 236.131 21.0385 239.822 22.6205 243.733C24.2903 247.512 26.6633 250.984 29.6514 253.884C32.6396 256.74 36.1551 259.025 39.8903 260.959C43.3894 262.833 47.0464 264.352 50.7491 265.89L51.3596 266.144C55.2705 267.814 59.0497 269.704 62.7409 271.769C66.4322 273.834 70.0356 276.075 73.4632 278.58C75.1769 279.811 76.8468 281.129 78.4727 282.579C78.9456 283.012 79.4145 283.454 79.8678 283.916L79.7355 282.844ZM78.9601 280.144C78.3056 278.703 77.5657 277.294 76.8029 275.944C74.6496 272.12 72.1009 268.561 69.3325 265.133C67.6622 263.066 65.896 261.094 64.1207 259.112L64.1203 259.111L64.1165 259.107C62.9507 257.805 61.7806 256.499 60.6316 255.158L51.8869 245.183C48.9427 241.887 45.9984 238.592 42.5709 235.911C39.1872 233.143 35.1444 231.341 30.9698 230.066C26.7951 228.748 22.4447 228.001 18.0943 227.474C15.8971 227.254 13.6999 227.078 11.5028 226.99L8.20701 226.903H7.82194C15.5912 228.818 22.7259 232.501 29.5196 236.482C36.4188 240.613 43.0103 245.227 49.3382 250.193C55.6221 255.202 61.6863 260.519 67.3111 266.276C71.4969 270.627 75.5345 275.15 78.9601 280.144ZM5.32626 226.903H5.13096C5.16025 226.961 5.23837 226.951 5.32626 226.903ZM4.66249 277.463C8.48612 279.002 11.3655 282.059 13.7439 285.172C15.4884 287.358 16.7658 289.834 18.0216 292.267C19.0118 294.186 19.9886 296.079 21.1703 297.783C23.807 301.782 27.5861 304.946 31.7607 307.319C35.9793 309.692 40.5494 311.274 45.2075 312.592C45.7407 312.735 46.2749 312.878 46.8096 313.02C55.661 315.38 64.6868 317.787 72.8919 322.304C77.1983 324.677 81.329 327.577 84.7127 331.224C85.8315 332.445 86.8638 333.747 87.7922 335.12C87.1582 331.751 86.5313 328.379 85.9461 325.017C85.7731 324.71 85.5964 324.407 85.4158 324.106C82.9989 320.195 79.835 316.635 75.4846 315.185C72.5426 314.086 69.46 313.308 66.3591 312.525L66.3571 312.524C64.8732 312.15 63.385 311.774 61.906 311.362C57.3359 310.132 52.7657 308.681 48.4153 306.704C44.0649 304.77 39.8903 302.397 36.0672 299.541C33.3133 297.484 30.8101 295.084 28.3443 292.72L28.3424 292.718C27.3858 291.801 26.4347 290.89 25.4768 290.005C22.0053 286.841 18.358 283.853 14.403 281.349C12.4256 280.118 10.3602 279.02 8.207 278.229C7.15236 277.833 6.05377 277.569 4.95518 277.481C4.85969 277.473 4.76186 277.467 4.66249 277.463ZM85.1521 320.283C84.5347 316.637 83.9462 312.989 83.3839 309.338C81.8608 307.626 79.517 306.371 77.3302 305.43C73.7268 303.848 69.8598 302.749 65.9488 301.738C64.1252 301.262 62.2821 300.844 60.4332 300.424L60.4315 300.424L60.4299 300.424C58.3594 299.954 56.2813 299.483 54.2159 298.926C50.3049 297.871 46.5258 296.289 42.8784 294.488C37.0548 291.611 31.8474 287.726 26.6971 283.884L26.6955 283.882L26.694 283.881L26.6929 283.88C25.3934 282.911 24.0975 281.944 22.7963 280.997C22.6632 280.905 22.5301 280.812 22.397 280.72L22.3131 280.662C19.1774 278.483 16.0222 276.292 12.4695 275.372C9.90192 274.63 7.05121 274.846 4.71458 275.974L4.77618 275.976C4.87935 275.98 4.98291 275.984 5.08701 275.987C6.36137 276.119 7.59179 276.427 8.69038 276.866C10.9754 277.701 13.1287 278.888 15.1061 280.206C19.105 282.843 22.7084 285.963 26.2239 289.17C27.0364 289.942 27.8344 290.718 28.6288 291.491C31.2283 294.019 33.7878 296.508 36.6824 298.662C40.4616 301.475 44.5044 303.848 48.8108 305.693C53.1173 307.539 57.6435 308.945 62.2136 310.088C63.7081 310.476 65.2119 310.821 66.719 311.168L66.7204 311.168C69.8215 311.881 72.9368 312.597 76.0119 313.691C79.8334 314.883 82.8997 317.641 85.233 320.784L85.1521 320.283ZM132.622 241.857C127.002 247.039 121.762 252.689 116.967 258.674C110.947 266.188 105.542 274.23 101.543 282.931C97.5442 291.631 94.7758 300.947 93.2378 310.439C92.4028 315.185 91.9634 319.975 91.6997 324.765C91.5891 326.792 91.5404 328.789 91.5535 330.806C93.0385 323.707 95.4706 316.879 97.9837 310.132C101.235 301.519 105.015 293.169 109.057 284.908C116.229 270.172 124.24 255.926 132.622 241.857ZM93.2924 331.064C93.6391 330.334 94.0119 329.617 94.4242 328.939C94.6777 328.523 94.9163 328.084 95.1553 327.645L95.1559 327.643C95.4967 327.016 95.8386 326.388 96.2259 325.819C98.6949 321.791 101.591 318.061 104.451 314.378L104.575 314.218C105.325 313.267 106.078 312.318 106.829 311.37C111.978 304.877 117.094 298.423 121.274 291.368C123.779 287.369 125.756 283.106 127.514 278.756C129.14 274.362 130.37 269.835 131.249 265.221C132.789 257.297 134.04 249.277 135.029 241.27C130.916 247.836 127.058 254.611 123.295 261.354C118.813 269.352 114.594 277.438 110.552 285.655C106.509 293.872 102.773 302.222 99.5217 310.747C97.0235 317.386 94.7119 324.158 93.2924 331.064ZM114.55 148.156C114.462 148.024 114.067 148.332 113.803 148.991C113.54 149.606 113.452 150.353 113.408 151.056C113.32 152.506 113.628 154 114.067 155.275C114.55 156.549 115.122 157.648 116.264 158.219C117.539 158.922 118.945 159.493 120.351 159.713C121.054 159.801 121.757 159.757 122.197 159.493C122.636 159.23 122.768 158.746 122.724 157.999C122.636 156.593 122.065 155.099 121.318 153.825C119.736 151.276 117.319 149.167 114.55 148.156ZM35.7157 103.597C37.034 103.289 38.4402 104.124 38.2644 104.344C38.2644 107.288 37.1219 110.276 35.1883 112.474C34.2216 113.616 33.0351 114.627 31.8486 115.11C31.4092 115.242 31.1895 115.198 30.794 114.89C30.3985 114.539 30.0909 113.968 29.9151 113.309C29.5196 111.99 29.5196 110.496 30.003 109.178C30.4424 107.772 31.1895 106.453 32.1562 105.443C33.123 104.432 34.3974 103.729 35.7157 103.597ZM33.7449 116.887C33.4094 117.074 33.0563 117.244 32.6836 117.395C32.622 117.422 32.5589 117.447 32.4945 117.469C32.4329 117.88 32.3873 118.292 32.356 118.707C32.4161 119.757 32.4117 120.8 32.3635 121.838C32.5056 123.829 32.8772 125.822 33.2988 127.766C33.7382 129.612 34.3095 131.413 35.0126 133.083C35.3641 133.918 35.7596 134.753 36.2869 135.5C36.7264 136.247 37.4734 136.906 37.781 136.906C37.7371 137.126 38.2204 136.247 38.1765 135.368C38.2204 134.489 38.1765 133.567 38.0886 132.644C37.9128 130.798 37.5613 128.909 37.1658 127.107C36.3245 123.615 35.4026 120.003 33.7449 116.887ZM31.4536 118.187C31.4465 117.995 31.437 117.803 31.425 117.612C30.8644 117.589 30.2955 117.43 29.8253 117.164C28.0591 120.032 27.1649 123.448 26.4875 126.755C26.136 128.601 25.9163 130.49 25.9163 132.336C25.9163 133.259 25.9602 134.182 26.136 135.061C26.2678 135.895 26.6194 136.862 27.0148 136.994C26.9709 137.17 27.7619 136.511 28.0695 135.676C28.465 134.885 28.7726 134.006 29.0802 133.127C29.6954 131.369 30.1348 129.524 30.4864 127.678C30.777 126.05 31.0591 124.389 31.2461 122.726C31.1736 121.214 31.2248 119.696 31.4536 118.187ZM39.6032 102.179C39.936 102.453 40.2383 102.805 40.4458 103.238C43.9368 102.89 47.4244 102.053 50.8762 101.18C52.7658 100.653 54.6553 100.082 56.4131 99.3345C58.039 98.6754 60.368 97.2252 59.0497 97.0055C57.6874 96.3024 55.5342 96.3903 53.6886 96.61C51.799 96.8297 49.8655 97.2692 48.0199 97.8844C45.0005 98.8908 42.0988 100.25 39.6032 102.179ZM143.026 58.9942C143.443 58.8949 143.743 58.5082 143.903 57.9924C143.871 57.8949 143.89 57.7783 143.949 57.7199C143.958 57.7062 143.968 57.694 143.978 57.6832C144.085 57.1123 144.04 56.4386 143.817 55.8303C143.421 54.4241 142.498 53.1937 141.312 52.2709C138.983 50.4692 135.643 49.2827 133.226 50.6889C132.04 51.392 131.513 52.3588 132.04 53.6771C132.381 54.7014 132.988 55.6727 133.798 56.4879C133.861 56.4858 133.924 56.5002 133.973 56.5334C134.049 56.6093 134.096 56.6997 134.114 56.7879C134.252 56.9127 134.396 57.0331 134.545 57.1486C136.83 59.0382 140.082 59.6973 143.026 58.9942ZM132.545 57.9356C130.944 59.8791 128.959 61.5486 126.999 63.1977C126.522 63.5982 126.048 63.9975 125.58 64.3993C124.13 65.5858 122.636 66.6844 121.054 67.6511C120.263 68.1345 119.472 68.6179 118.681 68.9694C117.978 69.3649 116.835 69.4967 116.879 69.4089C116.704 69.321 116.791 68.3542 117.275 67.6511C117.714 66.8602 118.285 66.1571 118.857 65.454C120.043 64.0479 121.449 62.7734 122.856 61.5869C125.368 59.5 128.084 57.583 131.033 56.1648C131.462 56.8199 131.974 57.4147 132.545 57.9356ZM144.164 60.2474C144.579 59.9791 144.907 59.6056 145.135 59.211C147.472 61.6472 149.154 64.6658 150.408 67.7829C151.111 69.6286 151.683 71.5182 152.034 73.4077C152.342 75.2973 152.605 77.4066 151.946 78.9446C151.771 79.2962 151.507 79.5159 151.375 79.4719C151.199 79.4719 150.804 79.1643 150.54 78.8567C149.969 78.1976 149.485 77.3626 149.046 76.4838C148.167 74.726 147.464 72.8804 146.849 71.0348C146.26 69.1804 145.682 67.3043 145.195 65.4066C145.089 64.9241 144.973 64.4434 144.845 63.965C144.564 62.7348 144.33 61.4956 144.164 60.2474ZM120.483 58.8624C123.882 57.8261 127.359 56.7506 130.362 54.9352C130.268 54.7252 130.183 54.5108 130.106 54.2923C130.017 54.0492 129.942 53.7688 129.893 53.4695C129.68 53.451 129.466 53.4366 129.252 53.4261C127.564 53.7211 125.876 53.8174 124.188 53.8063C122.603 54.091 121.036 54.5012 119.516 54.9514C117.714 55.5227 115.957 56.1819 114.287 57.0168C113.452 57.4562 112.661 57.8957 111.958 58.423C111.255 58.9064 110.639 59.6534 110.683 60.005C110.464 59.961 111.386 60.4005 112.265 60.3126C113.144 60.3126 114.067 60.2247 114.99 60.0928C116.835 59.8292 118.681 59.3458 120.483 58.8624ZM128.812 52.6223C127.441 52.5024 126.07 52.5255 124.71 52.652C122.915 52.5562 121.113 52.3477 119.34 52.1391C117.451 51.8755 115.605 51.5678 113.803 51.0845C112.88 50.8648 112.002 50.5572 111.211 50.2056C110.376 49.898 109.717 49.151 109.892 49.2828C109.98 48.9752 110.859 48.5357 111.694 48.36C112.529 48.1403 113.452 48.0524 114.375 48.0084C116.22 47.9205 118.11 48.0084 119.955 48.2281C123.464 48.6876 127.092 49.3852 130.197 51.1135C130.181 51.1474 130.165 51.1816 130.15 51.2162C129.951 51.6144 129.857 52.0646 129.835 52.5149C129.496 52.5588 129.155 52.5944 128.812 52.6223ZM144.814 67.6969C144.339 65.8392 143.951 63.9617 143.688 62.0498C143.541 61.5707 143.38 61.0979 143.2 60.6332C142.681 60.7615 142.154 60.852 141.623 60.9056C140.566 64.2529 140.581 67.9192 140.829 71.4303C141.004 73.3198 141.268 75.1655 141.751 76.9672L141.808 77.1558C142.053 77.9769 142.307 78.8253 142.674 79.5598C143.026 80.3508 143.597 81.1857 144.124 81.2736C144.344 81.4494 144.871 80.4826 145.003 79.6038C145.179 78.7249 145.267 77.8021 145.311 76.8353C145.399 74.9457 145.311 73.0562 145.179 71.1666C145.071 70.0203 144.959 68.8574 144.814 67.6969Z" fill="#FFFAEB"/>
</svg>
