<svg width="204" height="474" viewBox="0 0 204 474" fill="none" xmlns="http://www.w3.org/2000/svg">
<path fill-rule="evenodd" clip-rule="evenodd" d="M71.8609 5.78944C71.8114 5.64115 71.7622 5.49273 71.7134 5.34418C71.0114 3.12141 70.4265 0.840142 70.017 -1.55812C69.783 -2.728 69.7246 -3.95637 69.7246 -5.24324C69.7533 -5.41569 69.775 -5.5846 69.7965 -5.75259C69.8627 -6.26829 69.9278 -6.77552 70.1925 -7.34903C70.485 -8.10945 71.4209 -8.81138 72.4153 -8.86987C74.2876 -8.81638 75.1325 -7.58873 75.8002 -6.61867L75.8008 -6.61787C75.863 -6.5275 75.9236 -6.43936 75.9834 -6.35463C76.6854 -5.30174 77.1533 -4.13185 77.5628 -3.02047C77.681 -2.69947 77.7944 -2.37726 77.9036 -2.054C77.9219 -2.13432 77.9393 -2.21408 77.9567 -2.29356C78.0743 -2.83227 78.1891 -3.35834 78.5572 -3.9564C78.9081 -4.71682 79.961 -5.47724 81.0724 -5.41875C82.1838 -5.24327 82.8272 -4.59983 83.2952 -3.9564C83.7046 -3.31296 84.0556 -2.66953 84.2311 -2.08459C84.699 -0.856214 84.9915 0.430655 85.2255 1.65903C85.3767 2.58809 85.504 3.50917 85.6133 4.42522C85.7742 3.44043 85.9707 2.45762 86.2199 1.48358C86.5124 0.196707 86.8633 -1.03167 87.3313 -2.26004C87.5652 -2.90348 87.8577 -3.54691 88.2672 -4.13185L88.2924 -4.16797C88.7008 -4.75222 89.2902 -5.5954 90.6654 -5.6527C91.9411 -5.53673 92.527 -4.73096 92.993 -4.09015L93.0052 -4.07336C93.4147 -3.37143 93.6486 -2.728 93.8241 -2.02607C94.1751 -0.680704 94.2921 0.606165 94.3506 1.89303C94.4675 4.46677 94.2921 7.04051 93.9411 9.55576C93.7544 11.0153 93.5283 12.4749 93.25 13.926C93.9865 12.1868 94.8041 10.4833 95.6374 8.79537C96.8073 6.51411 98.1527 4.29133 99.615 2.12705C100.375 1.07416 101.194 0.0212649 102.13 -0.973134C102.598 -1.44109 103.125 -1.96753 103.827 -2.3185C103.855 -2.33289 103.885 -2.34768 103.914 -2.3627C104.246 -2.53079 104.635 -2.72796 105.172 -2.72796C105.698 -2.78645 106.459 -2.55247 106.868 -2.14302C108.127 -0.68276 107.956 0.690802 107.809 1.86573C107.785 2.05568 107.762 2.24043 107.746 2.41952C107.57 3.76488 107.161 5.05175 106.751 6.28013C105.874 8.73688 104.763 11.1351 103.476 13.3579L103.405 13.4765L103.339 13.5872L103.476 13.4749C105.464 11.837 107.57 10.3162 109.793 8.97083C110.904 8.2689 112.074 7.62547 113.361 7.15752C114.005 6.92354 114.648 6.68956 115.467 6.57258C116.169 6.45559 117.631 6.63107 118.158 7.91794C118.725 9.77466 118.019 10.9947 117.403 12.0593C117.32 12.2019 117.239 12.3423 117.163 12.4805C116.461 13.6503 115.584 14.6447 114.707 15.639C112.893 17.5694 110.963 19.2658 108.857 20.7866C107.846 21.5167 106.815 22.2232 105.76 22.8892C106.866 22.5994 107.979 22.3321 109.091 22.0734C111.606 21.547 114.18 21.1375 116.754 20.9036C118.041 20.7866 119.386 20.7281 120.731 20.8451C121.433 20.9036 122.135 21.0206 122.896 21.313C123.539 21.4885 124.826 22.3659 124.709 23.7113C124.354 25.6409 123.205 26.3803 122.181 27.0393C122.025 27.1394 121.872 27.2376 121.726 27.3379C120.556 28.0983 119.328 28.5663 118.099 29.0342C115.642 29.9701 113.127 30.5551 110.553 31.023C105.63 31.8153 100.488 32.1148 95.5506 30.8094C94.7212 33.0455 92.9383 35.1074 90.6654 36.2876C90.0376 36.6276 89.4157 36.9209 88.8009 37.1713C93.5159 54.5516 96.4973 72.2118 98.9131 89.9852C101.311 108.06 102.715 126.251 103.417 144.443C104.023 161.572 103.903 178.752 103.301 195.887C106.265 183.761 110.105 171.883 114.94 160.412C120.38 147.309 126.756 134.616 134.536 122.8C141.856 110.87 150.765 100.132 160.034 89.6918C159.571 88.4061 160.027 87.2866 160.388 86.3994C160.452 86.2418 160.513 86.0916 160.566 85.9491C161.092 84.7207 161.794 83.6678 162.496 82.6149C163.307 81.4796 164.154 80.3803 165.027 79.307C163.87 80.1986 162.676 81.055 161.443 81.8544C160.39 82.5564 159.22 83.1998 157.992 83.7847C157.349 84.0772 156.705 84.3112 156.003 84.4282C155.301 84.5452 154.248 84.7206 153.254 83.8432C152.435 82.8488 152.552 81.8544 152.728 81.094C152.903 80.3336 153.254 79.6901 153.605 79.1052C154.307 77.9353 155.126 76.9409 156.003 75.9465C157.758 74.0747 159.688 72.3784 161.736 70.7991C163.015 69.8162 164.324 68.8686 165.668 67.975C163.817 68.7377 161.928 69.4014 160.039 70.0386C157.583 70.7991 155.126 71.501 152.552 71.969C151.265 72.2029 149.978 72.3784 148.575 72.4369C147.873 72.4369 147.171 72.4369 146.41 72.2029C146.001 72.0859 145.591 71.969 145.182 71.5595C144.714 71.2085 144.421 70.5651 144.421 69.9802C144.576 68.023 145.683 67.1542 146.624 66.4155C146.752 66.3153 146.876 66.2174 146.995 66.1195C148.107 65.3006 149.276 64.6572 150.446 64.0723C152.845 62.9609 155.301 62.1419 157.758 61.44C157.938 61.3935 158.118 61.3477 158.299 61.3026C158.138 61.2901 157.977 61.2774 157.817 61.2646C155.243 60.9721 152.728 60.6212 150.154 60.0362C148.867 59.7438 147.639 59.3928 146.352 58.8664C145.708 58.5739 145.065 58.2814 144.421 57.755C143.837 57.3455 142.901 56.1756 143.427 54.8888C144.348 53.1487 145.717 52.7968 146.868 52.5009C147.032 52.4586 147.193 52.4174 147.346 52.3735C148.679 52.0257 150.013 51.9651 151.289 51.9071L151.324 51.9056C153.956 51.8471 156.53 52.081 159.103 52.432C163.934 53.2093 168.765 54.5137 172.995 57.1956C173.604 56.3554 174.426 55.7307 175.248 55.2981C177.529 54.0697 180.161 53.9528 182.501 54.5962C184.724 55.2981 186.83 56.351 188.701 57.8719C190.456 59.3927 191.977 61.3815 192.679 63.7213C193.03 64.8912 193.206 66.178 192.855 67.5234C192.831 67.6823 192.792 67.8477 192.738 68.0158C196.169 71.2959 198.709 75.4145 200.517 79.8071C201.57 82.2639 202.331 84.8376 202.857 87.4699L202.886 87.6557C202.909 87.8027 202.933 87.9501 202.957 88.0979L202.958 88.1043L202.959 88.1133C203.35 90.5493 203.756 93.084 202.682 95.7175C202.389 96.361 201.629 97.2969 200.459 97.2384C199.516 97.0812 198.995 96.5484 198.518 96.0606C198.463 96.0039 198.408 95.9478 198.353 95.893C197.417 94.7816 196.774 93.5532 196.189 92.3834C195.25 90.4122 194.5 88.4411 193.817 86.4095C193.973 88.4203 194.07 90.4311 194.024 92.4419C193.966 93.7287 193.907 95.0156 193.673 96.361C193.556 97.0044 193.381 97.7063 193.03 98.3498C192.738 98.9347 191.919 99.9876 190.749 99.7536C189.006 99.2783 188.408 98.0403 187.877 96.9432C187.82 96.8253 187.764 96.7085 187.707 96.5949C187.122 95.3666 186.771 94.1382 186.42 92.8513C185.777 90.3361 185.484 87.7623 185.309 85.1886C185.273 84.3956 185.248 83.5998 185.239 82.8032C185.053 83.5611 184.861 84.317 184.665 85.0716C183.963 87.5284 183.203 89.9851 182.15 92.3834C182.106 92.4815 182.062 92.5801 182.018 92.6789C181.534 93.7585 181.033 94.8749 180.337 95.893C179.986 96.478 179.576 97.0629 178.991 97.5308C178.523 97.9988 177.295 98.6422 176.242 97.9988C174.823 96.8835 174.677 95.5485 174.55 94.3746L174.55 94.3735L174.549 94.3724C174.53 94.1926 174.511 94.0166 174.487 93.8457C174.37 92.5004 174.487 91.155 174.721 89.8681C174.802 89.2753 174.902 88.6856 175.016 88.0989C174.805 88.5345 174.589 88.9683 174.37 89.4002C173.318 91.506 172.148 93.5533 170.802 95.4836C170.159 96.478 169.34 97.4139 168.463 98.2913C168.373 98.3607 168.286 98.4318 168.198 98.5031C167.767 98.8526 167.329 99.2084 166.649 99.4027C165.889 99.7536 164.777 99.5782 164.017 98.9347C162.717 97.5262 163.022 96.0675 163.26 94.9303C163.279 94.8397 163.298 94.751 163.315 94.6647C163.608 93.4363 164.075 92.3249 164.543 91.2135C164.682 90.9122 164.825 90.6131 164.972 90.3163C164.939 90.3371 164.907 90.3581 164.874 90.3793C164.827 90.4104 164.779 90.4419 164.731 90.4736C164.284 90.769 163.816 91.0782 163.14 91.2135C162.741 91.3668 162.215 91.3916 161.702 91.2627C152.735 101.744 144.071 112.466 136.993 124.263C129.447 136.02 123.305 148.655 118.099 161.64C112.835 174.568 108.799 188.021 105.932 201.709C104.505 208.495 103.31 215.369 102.434 222.265L102.306 226.218C102.279 230.403 102.177 234.577 102.075 238.749C101.956 243.614 101.838 248.478 101.838 253.359C101.693 271.276 102.32 289.179 103.548 307.039C104.257 301.865 105.129 296.722 106.108 291.614C108.331 280.266 111.138 269.094 114.765 258.097C118.45 247.1 123.305 236.571 129.155 226.569C134.786 217.127 141.617 208.519 149.302 200.696C148.636 199.766 148.166 198.725 147.931 197.731C147.288 195.45 147.405 193.11 147.756 190.888C147.99 189.776 148.282 188.665 148.75 187.553C148.776 187.506 148.803 187.458 148.829 187.41L148.894 187.292C146.735 182.634 146.01 177.437 146.176 172.345C146.235 169.654 146.527 166.963 147.171 164.331C147.256 164.034 147.339 163.737 147.422 163.439C148.074 161.097 148.728 158.744 150.856 156.668C151.441 156.142 152.611 155.499 153.898 156.2C154.78 156.789 155.046 157.5 155.281 158.128C155.327 158.249 155.371 158.368 155.418 158.482C155.828 159.944 155.886 161.289 155.945 162.693C155.977 164.192 155.922 165.656 155.818 167.113C156.299 165.918 156.824 164.737 157.407 163.571C157.992 162.401 158.636 161.231 159.396 160.12C159.805 159.535 160.215 159.008 160.858 158.482C161.385 158.014 162.73 157.37 163.842 158.131C165.346 159.428 165.378 160.816 165.407 162.052C165.411 162.21 165.414 162.366 165.421 162.518C165.479 163.922 165.245 165.209 165.011 166.495C164.543 169.069 163.783 171.585 162.847 173.983C162.796 174.109 162.745 174.236 162.693 174.363L162.906 174.1C164.602 172.111 166.357 170.239 168.287 168.484C169.281 167.607 170.276 166.788 171.446 166.028C172.031 165.677 172.616 165.326 173.435 165.092C174.078 164.858 175.599 164.741 176.359 165.852C177.272 167.576 176.822 168.861 176.419 170.01C176.358 170.187 176.297 170.36 176.242 170.532C175.809 171.722 175.177 172.812 174.575 173.848L174.429 174.1C174.369 174.195 174.308 174.29 174.247 174.384L174.312 174.334C176.184 172.871 178.114 171.526 180.22 170.298C181.273 169.713 182.384 169.128 183.671 168.777C184.314 168.601 185.016 168.426 185.894 168.601C186.83 168.718 187.766 169.596 187.941 170.532C188.194 172.252 187.397 173.316 186.722 174.215C186.617 174.356 186.515 174.492 186.42 174.626C185.603 175.56 184.669 176.378 183.735 177.195L183.73 177.199C183.542 177.353 183.352 177.504 183.162 177.654C183.566 177.58 183.989 177.526 184.431 177.492C185.133 177.492 186.186 177.492 187.005 178.37C187.824 179.247 187.707 180.593 187.298 181.295C186.947 182.055 186.42 182.581 185.894 183.108C184.899 184.044 183.788 184.804 182.677 185.506C181.522 186.205 180.351 186.857 179.173 187.469C180.4 187.196 181.641 186.966 182.911 186.793C184.197 186.618 185.484 186.442 186.83 186.442C187.532 186.442 188.175 186.501 188.935 186.617L188.986 186.63C189.687 186.805 190.703 187.058 191.217 188.314C191.568 189.601 191.041 190.42 190.573 191.063C190.105 191.706 189.52 192.174 188.994 192.584C187.883 193.403 186.713 193.988 185.484 194.514C183.086 195.567 180.629 196.328 178.173 196.912C176.973 197.195 175.767 197.45 174.555 197.668C176.171 197.763 177.786 197.917 179.401 198.082C181.975 198.375 184.49 198.843 187.064 199.486C188.351 199.837 189.579 200.188 190.866 200.773C191.509 201.065 192.153 201.358 192.738 201.884C193.03 202.118 193.381 202.469 193.615 202.996C193.907 203.464 193.907 204.224 193.673 204.751C192.748 206.447 191.372 206.788 190.178 207.084C190.116 207.099 190.054 207.115 189.992 207.13C189.933 207.145 189.875 207.16 189.817 207.175L189.748 207.193L189.696 207.207C188.351 207.5 187.005 207.617 185.718 207.617C183.086 207.675 180.512 207.441 177.939 207.032L177.769 207.002L177.822 207.032C180.044 208.319 182.209 209.781 184.256 211.36C185.309 212.179 186.303 212.998 187.239 214.051C187.707 214.578 188.175 215.104 188.526 215.864C188.702 216.215 188.877 216.625 188.877 217.21C188.935 217.736 188.643 218.438 188.234 218.848C186.719 220.009 185.335 219.776 184.157 219.577C183.97 219.546 183.789 219.515 183.613 219.491C182.267 219.257 181.039 218.789 179.81 218.263C177.354 217.268 175.072 215.981 172.908 214.578C168.79 211.814 164.781 208.614 162.035 204.298C161.099 204.681 160.125 204.751 159.221 204.751C156.881 204.692 154.716 204.166 152.611 203.347C152.025 203.124 151.482 202.814 150.989 202.442C143.58 210.209 137.022 218.755 131.611 228.031C126.054 237.975 121.258 248.329 117.397 259.033C113.595 269.796 110.495 280.851 108.331 292.082C106.55 301.32 105.245 310.677 104.545 320.022C104.866 323.812 105.212 327.6 105.582 331.385C105.619 331.074 105.658 330.764 105.698 330.454C106.4 325.073 107.161 319.691 108.331 314.368C110.553 303.722 113.829 293.193 119.152 283.542C124.241 273.773 132.723 265.76 142.725 260.963C147.697 258.507 153.02 256.869 158.285 255.582L166.181 253.652C168.53 253.064 170.879 252.428 172.827 251.433L172.937 251.331C172.986 251.285 173.034 251.24 173.084 251.195L173.138 251.269C173.218 251.225 173.297 251.181 173.376 251.136C174.078 250.727 175.014 250.961 175.423 251.663C175.774 252.248 175.657 253.008 175.189 253.476L175.131 253.535C168.287 260.144 162.145 268.1 159.045 277.342C155.652 286.701 151.441 295.884 145.591 304.015C139.859 312.263 131.845 318.755 123.89 324.546C119.971 327.53 116.169 330.63 113.127 334.315C113.007 334.481 112.886 334.646 112.765 334.812C111.475 336.579 110.171 338.366 109.208 340.398L108.331 341.978C108.184 342.299 108.038 342.635 107.892 342.972C107.746 343.308 107.599 343.645 107.453 343.966C107.299 344.239 107.143 344.506 106.986 344.769C107.621 350.435 108.305 356.096 109.033 361.749C111.489 379.706 114.473 397.605 117.807 415.388C118.23 417.605 118.66 419.822 119.098 422.039C119.45 415.572 120.151 409.163 121.199 402.811C123.247 390.001 126.99 377.484 132.372 365.668C137.812 353.852 145.123 343.03 153.196 332.911C161.326 322.85 170.217 313.374 180.044 304.834L180.062 304.821L180.071 304.813C180.082 304.806 180.093 304.798 180.103 304.791C180.122 304.778 180.14 304.766 180.159 304.754C180.546 304.486 181.074 304.458 181.507 304.717C182.047 305.041 182.238 305.713 181.988 306.275C180.529 318.777 178.499 331.108 176.125 343.381C175.73 345.707 175.138 348.032 174.546 350.357L174.545 350.359C174.348 351.133 174.151 351.908 173.961 352.682C173.49 354.602 172.84 356.476 172.191 358.348L172.19 358.349C171.791 359.5 171.393 360.649 171.036 361.807C168.58 367.715 165.889 373.506 162.555 378.946C157.005 388.346 150.258 396.849 143.556 405.294L143.552 405.299C142.415 406.732 141.28 408.163 140.151 409.597C136.291 414.569 132.43 419.541 129.155 424.864C128.518 425.798 127.973 426.793 127.432 427.783C127.228 428.157 127.023 428.531 126.815 428.9C126.054 430.245 125.352 431.649 124.767 433.053L123.832 435.159C123.546 435.682 123.338 436.284 123.081 437.026C123.022 437.195 122.961 437.372 122.896 437.557C122.773 437.894 122.64 438.226 122.499 438.552C122.746 439.703 122.995 440.853 123.247 442.002C124.048 445.695 124.88 449.348 125.717 453.023L125.718 453.024L125.719 453.03C126.897 458.201 128.085 463.416 129.213 468.851C129.622 470.84 128.336 472.77 126.347 473.18C124.358 473.589 122.428 472.302 122.018 470.314C122.018 470.255 122.018 470.138 121.96 470.08L121.901 469.787C120.709 461.092 119.097 452.238 117.426 443.34C115.659 439.373 113.226 435.697 110.319 432.468C105.991 427.847 100.843 423.986 95.2865 420.769C84.1141 414.393 71.5964 410.825 59.0202 407.432C52.7613 405.619 46.5024 403.513 40.77 400.296C35.0961 397.079 29.7731 392.809 26.0295 387.31C24.3469 384.877 22.985 382.318 21.6397 379.789C19.9452 376.605 18.2769 373.47 16.027 370.698C14.0967 368.183 11.9324 365.843 9.41718 363.971C6.98578 362.177 4.09603 360.611 1.31495 360.239C0.917858 360.304 0.485418 360.137 0.233618 359.76C-0.117347 359.409 0.0581357 358.707 0.584582 358.356C0.618077 358.335 0.651462 358.315 0.68476 358.295C4.73575 353.995 11.1495 353.119 16.378 354.671C21.2584 356.035 25.2914 358.953 29.1951 361.778C29.6426 362.102 30.0884 362.424 30.5335 362.743C31.5231 363.49 32.5096 364.24 33.4951 364.989C41.0722 370.746 48.5874 376.456 56.9729 380.701C61.7109 383.099 66.6829 385.088 71.7718 386.433C74.5741 387.174 77.4474 387.773 80.3427 388.376L80.3436 388.376C82.706 388.869 85.083 389.364 87.4483 389.943C92.6542 391.23 97.9187 392.633 102.949 394.739C105.295 395.721 107.589 396.906 109.69 398.484C108.321 389.403 107.072 380.307 105.919 371.196C103.387 367.857 99.7249 365.087 96.2753 362.478L95.9299 362.217C91.4259 358.941 86.6878 355.958 81.8328 353.208C76.9778 350.459 72.0058 347.944 66.9169 345.663C65.588 345.067 64.2472 344.483 62.9028 343.898L62.9008 343.897C59.0972 342.241 55.2645 340.573 51.5914 338.585C46.6194 335.953 41.7644 332.853 37.6698 328.933C33.5752 324.956 30.2411 320.218 27.9013 315.012C25.737 309.864 22.5784 305.302 18.6593 301.441C16.7289 299.511 14.6232 297.698 12.3419 296.118C11.2305 295.299 10.0606 294.597 8.89074 293.895L7.07743 292.901L5.43959 292.082H5.3811C5.26411 292.024 5.14712 291.965 4.97164 291.848C4.79616 291.614 4.67917 291.146 4.73767 290.912C4.79616 290.503 5.67357 289.976 5.96604 290.093H7.95484L10.1776 290.152L14.6232 290.327C17.6064 290.503 20.5311 290.795 23.4558 291.146C29.3052 291.907 35.1546 293.018 40.8285 294.773C46.5024 296.528 52.0594 298.984 56.7389 302.787C61.2536 306.342 65.1694 310.605 69.0116 314.788L69.4321 315.246L81.1894 328.407C81.9053 329.208 82.6231 330.008 83.3411 330.807C86.5538 334.385 89.7699 337.967 92.8297 341.744C96.5733 346.365 100.083 351.161 103.008 356.309C103.492 357.188 103.971 358.072 104.436 358.964C100.961 328.682 98.8643 298.28 97.6998 267.825C97.5984 267.721 97.4955 267.618 97.3926 267.515L97.3918 267.514C96.69 266.812 95.9882 266.111 95.228 265.467C93.7071 264.18 92.0693 263.069 90.256 262.133C86.6878 260.261 82.8272 259.267 78.6741 259.033C74.5211 258.682 70.3095 258.273 66.1564 257.161C62.0033 256.05 58.2012 254.061 54.6916 251.663C51.4905 249.475 48.557 247.008 45.6471 244.561C42.1762 241.641 38.7388 238.75 34.9206 236.396C28.0183 231.892 20.5311 228.09 12.8683 225.165H12.8098C12.3419 224.989 12.0494 224.404 12.2834 223.937C12.4589 223.527 12.8683 223.293 13.3363 223.352C13.4394 223.367 13.5425 223.382 13.6456 223.396L13.6872 223.235C13.9103 223.318 14.133 223.403 14.3553 223.488C20.5961 224.232 26.84 223.345 33.1443 222.451C35.6559 222.094 38.1771 221.736 40.7115 221.48C50.0121 220.368 59.6636 221.538 68.4377 225.048C77.4458 228.616 84.3481 235.752 89.4955 243.532C92.1278 247.451 94.3506 251.604 96.2809 255.816C96.6574 256.613 97.0172 257.419 97.3634 258.233C97.3121 256.628 97.2632 255.023 97.2168 253.418C97.0671 247.581 97.0132 241.768 97.0091 235.948C96.9989 235.903 96.9901 235.857 96.9828 235.811V235.752C95.8129 227.68 94.4091 219.667 92.0693 211.887C89.788 204.107 86.8048 196.503 83.1782 189.191C79.5516 181.879 75.1645 174.977 70.251 168.426C68.096 165.552 65.8285 162.78 63.4929 160.055C63.6892 160.511 63.8741 160.979 64.0507 161.465C64.2846 162.108 64.4601 162.752 64.5771 163.512L64.5813 163.561L64.5903 163.661C64.6541 164.357 64.7433 165.331 63.8167 166.203C62.7638 166.963 61.7694 166.788 61.0675 166.554C60.307 166.32 59.6636 165.969 59.1372 165.56C58.0258 164.799 57.0314 163.863 56.154 162.986C54.3406 161.114 52.8198 159.067 51.3574 156.961C50.4595 155.642 49.5961 154.299 48.7868 152.927C49.4227 154.814 49.9601 156.736 50.48 158.657C51.1235 161.173 51.6499 163.688 51.9424 166.262C52.1179 167.548 52.1764 168.894 52.1179 170.239C52.0594 170.941 52.0009 171.643 51.7669 172.403C51.6499 172.754 51.4744 173.222 51.065 173.632C50.714 174.041 50.0121 174.334 49.4271 174.334C47.4869 174.078 46.7054 172.932 46.0324 171.944C45.9344 171.8 45.8387 171.66 45.742 171.526C44.9816 170.356 44.4551 169.186 43.9287 167.958C42.9343 165.501 42.2324 162.986 41.7059 160.471C41.6443 160.155 41.5847 159.839 41.5274 159.522C41.4897 159.799 41.4517 160.076 41.4135 160.354C41.004 162.869 40.4775 165.443 39.7756 167.899C39.4247 169.128 38.9567 170.415 38.3718 171.584C38.0793 172.169 37.7283 172.813 37.1434 173.398C36.7339 173.924 35.5056 174.743 34.3357 174.158C32.7409 173.181 32.4582 171.796 32.2143 170.601C32.1808 170.437 32.1481 170.277 32.1129 170.122C31.8789 168.777 31.8789 167.431 31.8789 166.144C31.9374 163.512 32.2884 160.938 32.8148 158.423C33.8319 153.82 35.2899 149.216 37.9957 145.24C36.9413 144.205 36.4325 143.008 36.0905 141.811C35.3886 139.413 35.5056 136.839 36.266 134.499C36.9094 132.276 38.0793 130.054 39.7756 128.24C41.4719 126.427 43.7532 125.082 46.327 124.789C47.6138 124.614 48.9592 124.672 50.3046 125.14C50.4278 125.175 50.5563 125.219 50.688 125.272C54.0739 122.182 58.2597 120.011 62.5298 118.472C65.1035 117.594 67.6773 116.951 70.368 116.542C70.657 116.516 70.9467 116.489 71.2373 116.461L71.2386 116.461C73.6529 116.229 76.1289 115.991 78.7912 117.243C79.4931 117.594 80.4875 118.472 80.312 119.876C80.0291 121.064 79.3632 121.595 78.7905 122.052L78.7327 122.098C77.5043 122.976 76.2759 123.561 74.989 124.087C73.4949 124.678 71.9801 125.186 70.4569 125.648C71.917 125.652 73.3852 125.71 74.8721 125.842C76.1589 125.959 77.5043 126.135 78.7912 126.486L78.891 126.513C79.5069 126.68 80.1727 126.861 80.8385 127.304C81.4819 127.597 82.5348 128.65 82.2423 129.995C81.5762 131.84 80.2816 132.383 79.1844 132.843C79.0291 132.908 78.8777 132.972 78.7327 133.037C77.4458 133.563 76.1589 133.856 74.8721 134.09C72.3129 134.555 69.6959 134.731 67.1362 134.791C69.5368 135.652 71.8814 136.572 74.1701 137.716C75.34 138.301 76.5099 138.945 77.6213 139.764C77.6767 139.807 77.7327 139.85 77.7892 139.893C78.2695 140.263 78.7819 140.656 79.2006 141.284C79.6686 141.811 80.312 143.156 79.4931 144.268C78.2027 145.713 76.7756 145.746 75.5737 145.774H75.5726C75.4129 145.778 75.2569 145.782 75.106 145.789C73.7022 145.789 72.4153 145.555 71.1284 145.321C70.8985 145.274 70.6696 145.225 70.4415 145.174C70.5926 145.261 70.7436 145.349 70.8945 145.438C72.9418 146.666 74.9305 147.953 76.8024 149.532C77.7383 150.293 78.6742 151.111 79.4931 152.164C79.9025 152.691 80.312 153.276 80.429 154.153C80.663 155.089 80.1365 156.259 79.3176 156.727C77.8097 157.581 76.5609 157.226 75.497 156.924C75.3229 156.875 75.1536 156.827 74.9891 156.785C73.8192 156.376 72.7078 155.791 71.6549 155.206C71.3039 155.011 70.9579 154.811 70.6159 154.607C70.9209 155.045 71.1893 155.528 71.4209 156.084C71.6549 156.727 72.0058 157.721 71.4794 158.833C70.953 159.886 69.6661 160.237 68.8472 160.178C67.9698 160.12 67.3264 159.827 66.683 159.535C66.2921 159.349 65.913 159.145 65.544 158.929C67.8588 161.515 70.1107 164.164 72.2398 166.905C77.3873 173.398 82.0083 180.417 85.9274 187.787C89.8465 195.158 93.0637 202.879 95.6374 210.834C96.259 212.755 96.8191 214.693 97.3277 216.644C97.441 213.744 97.5715 210.846 97.702 207.945V207.943L97.7022 207.939C97.8394 204.891 97.9766 201.841 98.0942 198.784C99.0301 180.709 99.4395 162.635 99.0301 144.502C98.6206 126.427 97.3923 108.352 95.2865 90.3361C93.1655 72.7376 90.4265 55.139 86.0235 38.0359C84.8816 38.2837 83.774 38.3934 82.7102 38.3934C79.6443 38.3934 77.0401 37.3778 75.2665 35.9207C71.1074 38.4965 66.0744 39.4963 61.2429 39.3877C58.6107 39.3292 55.9785 38.9783 53.4632 38.3348C53.2892 38.2822 53.1149 38.2302 52.9405 38.1781L52.9396 38.1778L52.9383 38.1774C50.5921 37.4768 48.2198 36.7684 46.1515 34.5912L46.1209 34.5455C45.8927 34.2044 45.6225 33.8005 45.5665 33.1289C45.5665 32.4269 46.093 31.725 46.4439 31.491C47.154 31.0346 47.7761 30.8859 48.3865 30.7401C48.4801 30.7177 48.5734 30.6954 48.6667 30.6721C49.992 30.4416 51.3172 30.3814 52.5866 30.3238L52.6443 30.3211C54.9431 30.3211 57.1974 30.4104 59.407 30.5888C57.1128 29.5943 54.9214 28.4434 52.8783 27.0455C52.6246 26.8536 52.3686 26.664 52.1121 26.4742C50.18 25.044 48.2234 23.5957 47.0874 20.9621C46.8534 20.2602 46.6779 18.9733 47.6723 18.0374C48.5439 17.4222 49.2806 17.4361 49.9613 17.4489C50.0571 17.4507 50.1522 17.4525 50.246 17.4525C51.7084 17.5695 53.0537 17.9789 54.3406 18.3884C55.8392 18.8993 57.2782 19.4894 58.6925 20.1359C57.6508 19.1945 56.6423 18.212 55.686 17.16C54.8086 16.2241 53.9312 15.2297 53.1707 14.0598C53.1108 13.9599 53.0492 13.8601 52.987 13.7594C52.6851 13.2701 52.3703 12.76 52.1763 12.1295C51.9424 11.4861 51.7669 10.0237 52.8783 9.32179C54.5448 8.38434 55.8868 8.83799 57.0694 9.23775C57.215 9.28698 57.3582 9.33539 57.4993 9.38028C58.7862 9.84824 59.956 10.4917 61.0674 11.1351C63.2902 12.4805 65.396 14.0598 67.3263 15.7561C67.4054 15.8279 67.4844 15.8999 67.5633 15.9721C67.5231 15.9002 67.4831 15.8282 67.4433 15.7561C66.2149 13.4748 65.045 11.1936 64.0506 8.73682C63.5827 7.50847 63.1147 6.28004 62.8808 4.93471C62.8754 4.9027 62.8701 4.87082 62.8648 4.83903C62.7535 4.17374 62.6494 3.552 62.7053 2.77042C62.7053 2.0685 63.1147 0.664638 64.4016 0.372168C66.3213 0.112754 67.4126 1.04983 68.3287 1.83641C68.4454 1.93664 68.5593 2.03443 68.6717 2.12699C69.7245 3.00438 70.5434 4.05725 71.3624 5.11013C71.5312 5.33523 71.6974 5.56173 71.8609 5.78944ZM76.5404 14.0314C77.8906 17.0857 78.9621 20.286 79.4255 23.6323C80.2201 23.1812 81.0546 22.7962 81.9192 22.4846C80.5172 18.2689 79.402 13.9593 78.6157 9.55573C78.3579 8.20258 78.1534 6.84944 78.0021 5.47675C77.8962 5.06159 77.7887 4.64694 77.6797 4.2328C77.0948 2.01002 76.4514 -0.212751 75.6325 -2.26004C75.223 -3.31294 74.755 -4.30734 74.2286 -5.18475C73.7022 -6.06216 72.9417 -6.82258 72.5323 -6.76409C72.1813 -6.82258 71.8888 -6.12065 71.7718 -5.06776C71.7718 -4.01487 71.8303 -2.90348 72.0058 -1.85059C72.3568 0.372189 72.9417 2.59496 73.5267 4.81774C74.4295 7.89568 75.4476 10.9736 76.5404 14.0314ZM78.2192 24.389C77.4979 20.2779 75.6922 16.3119 73.7606 12.5974C72.5908 10.3747 71.2454 8.26887 69.7246 6.33856C68.9641 5.40266 68.1452 4.40826 67.2678 3.64784C66.4489 2.88741 65.279 2.24398 64.8111 2.36097C64.7526 2.12699 64.4601 3.47235 64.8111 4.58374C65.045 5.75362 65.4545 6.9235 65.8639 8.03489C66.7414 10.3747 67.8527 12.5974 69.0226 14.8202C71.1477 18.7076 73.4106 22.6868 76.2996 25.9439C76.8976 25.378 77.5399 24.8579 78.2192 24.389ZM80.1417 6.53314C80.6602 9.16793 81.0667 11.8181 81.4281 14.4727C81.9268 17.0245 82.4972 19.5746 83.1481 22.0968C83.3326 22.0468 83.5181 22 83.7046 21.9565C84.2098 21.8443 84.7127 21.7573 85.2114 21.6953L85.1995 21.4885C85.1693 20.9637 85.1391 20.4389 85.1085 19.914C84.9057 18.3468 84.8211 16.7726 84.8105 15.2017C84.6695 13.2027 84.5037 11.2037 84.2896 9.20477C83.9971 6.74801 83.7046 4.34976 83.1782 2.01C83.1129 1.7487 83.0505 1.48741 82.9884 1.22742C82.7725 0.323397 82.5603 -0.564962 82.2423 -1.38266C81.8913 -2.43555 81.1309 -3.42995 80.8384 -3.37146C80.6045 -3.54694 80.1365 -2.72802 79.961 -1.61664C79.7855 -0.50525 79.727 0.664632 79.7855 1.89301C79.8231 3.43454 79.9574 4.97607 80.1417 6.53314ZM89.7727 21.8525C88.8513 21.6602 87.8837 21.5686 86.888 21.5803C86.6294 17.7632 86.9579 13.8399 87.2812 9.97987L87.3313 9.38028C87.5652 6.92353 87.9747 4.46677 88.4427 2.06852C88.6766 0.898636 88.9691 -0.271246 89.3786 -1.38263C89.671 -2.43553 90.5484 -3.60541 90.6069 -3.48842C90.7824 -3.60541 91.6013 -2.61101 91.8353 -1.49962C92.1863 -0.388233 92.3033 0.781648 92.4203 2.01002C92.5957 4.40828 92.5372 6.92353 92.3033 9.38028C91.902 13.593 91.1569 17.8487 89.7727 21.8525ZM91.7881 22.4657C92.4096 22.7202 92.9982 23.0287 93.5468 23.3901C93.7485 23.2162 93.9472 23.0388 94.143 22.8582C95.384 21.1235 96.7855 19.5506 98.2802 18.0764C99.5683 16.2668 100.714 14.3444 101.779 12.422C102.949 10.1992 104.002 7.91796 104.763 5.5782C105.172 4.40832 105.523 3.23844 105.64 2.06856C105.874 0.957171 105.757 -0.388193 105.347 -0.622169C105.581 -0.797652 104.353 -0.329699 103.593 0.547712C102.774 1.3666 102.013 2.36096 101.253 3.35533C99.7906 5.34413 98.5036 7.5085 97.2753 9.73128C95.11 13.7911 92.8946 18.0514 91.7881 22.4657ZM95.498 23.4189C96.7354 22.3623 97.8615 21.1991 98.901 19.963C100.741 18.2804 102.707 16.7043 104.646 15.1712C104.837 15.0292 105.027 14.8873 105.217 14.7456C107.066 13.369 108.884 12.0148 110.846 10.9011C111.957 10.2577 113.01 9.67276 114.122 9.2633C115.174 8.73686 116.52 8.79535 116.227 8.85384C116.461 9.20481 116.052 10.4917 115.408 11.4276C114.823 12.422 114.005 13.3579 113.186 14.2938C111.489 16.1071 109.618 17.7449 107.687 19.3243C104.045 22.0964 100.05 24.7169 95.6543 26.0596C95.4251 25.448 95.0987 24.8871 94.6818 24.3968C94.9464 24.0662 95.2187 23.7403 95.498 23.4189ZM96.0469 28.5079C96.0525 28.3064 96.0495 28.107 96.0381 27.9103C100.214 25.9647 104.908 24.9331 109.501 24.0038C111.957 23.5358 114.473 23.1848 116.929 23.0094C118.158 22.8924 119.386 22.8924 120.556 23.0094C121.726 23.0094 122.896 23.6528 122.603 23.5943C122.603 24.0622 121.667 24.9981 120.673 25.5246C119.768 26.1104 118.717 26.5507 117.697 26.978L117.397 27.1039C115.057 27.9813 112.659 28.6248 110.202 29.1512C105.51 30.0557 100.545 30.5778 95.8877 29.6614C95.9709 29.2773 96.0247 28.8917 96.0469 28.5079ZM75.0631 27.2551C74.6209 27.7813 74.2134 28.3368 73.8448 28.9185C73.1219 28.5716 72.4109 28.1919 71.7105 27.7858C70.1561 26.6154 68.5382 25.5392 66.8768 24.5259C65.3738 23.3917 63.9104 22.198 62.4713 21.0206C60.5995 19.3828 58.7277 17.6864 57.0313 15.8731C56.2124 14.9372 55.3935 14.0013 54.7501 13.0069C54.0481 12.071 53.8142 10.7256 53.9897 10.9011C54.3406 10.6087 55.686 10.7841 56.7389 11.1936C57.7599 11.516 58.7809 12.0853 59.7566 12.6293C59.8429 12.6774 59.9289 12.7254 60.0145 12.7729C62.1788 14.0013 64.1676 15.5222 66.0979 17.1015C69.5007 20.0789 72.8551 23.3463 75.0631 27.2551ZM73.0724 30.5683C69.2648 27.8079 65.0251 25.5412 60.8335 23.4189C58.4937 22.249 56.0954 21.1961 53.6972 20.3187C51.5329 19.4998 47.7893 18.7978 48.9007 20.3772C49.6611 22.3075 51.9424 24.0623 53.9312 25.5247C56.0369 26.987 58.3182 28.2154 60.7165 29.2098C62.7452 30.0864 64.8383 30.8343 66.9774 31.3847C68.9981 31.6557 71.0083 31.9705 73.0154 32.318C72.916 31.7262 72.9341 31.1354 73.0724 30.5683ZM60.2485 32.6609C63.2577 32.8684 66.2464 33.1169 69.2389 33.3941C69.9825 33.4938 70.7302 33.5658 71.4806 33.6069C72.1591 33.6728 72.8382 33.74 73.518 33.8084C73.7313 34.2244 74.0044 34.631 74.3361 35.0197C70.3762 37.1162 65.7432 37.6746 61.3014 37.5159C58.8447 37.4574 56.3879 37.048 53.9897 36.4045C51.7084 35.7611 49.0762 34.8252 47.7893 33.3628C47.7424 33.3159 47.6954 33.2502 47.6598 33.1958L47.6723 33.1874C47.9063 33.0119 48.5497 32.8364 49.0762 32.7194C50.1634 32.5477 51.4185 32.488 52.6226 32.4307L52.7028 32.4269C55.1595 32.3684 57.7333 32.4854 60.2485 32.6609ZM47.6096 33.2331C47.5942 33.2459 47.5904 33.2515 47.5924 33.2511C47.5944 33.2507 47.602 33.2443 47.6096 33.2331ZM76.9658 32.9846C76.6657 32.6235 75.9638 31.7788 76.3929 31.0816C78.0892 28.0984 81.0724 25.9341 84.4066 25.1737C87.1558 24.5888 89.905 24.9397 91.7183 26.1681C92.4203 26.6361 92.7712 27.338 92.7127 28.3324C92.6542 30.2627 91.1334 32.31 89.0861 33.4214C83.4122 36.4046 78.7911 34.8837 77.0363 33.0704C77.0169 33.0461 76.9929 33.0172 76.9658 32.9846ZM177.717 79.1745C178.119 78.1884 178.549 77.2134 179.017 76.2578L179.05 76.1805C179.06 76.1607 179.071 76.1422 179.082 76.1249C180.026 74.2155 181.122 72.385 182.442 70.6991C181.428 70.4551 180.438 70.1113 179.493 69.6717C177.408 73.774 175.154 77.7684 172.499 81.562C171.664 82.7797 170.787 83.9768 169.869 85.1531C169.712 85.4181 169.555 85.6835 169.398 85.949C168.229 87.9378 167.176 89.9851 166.298 92.0324C165.889 93.0853 165.479 94.1382 165.245 95.1326C164.953 96.127 165.011 97.2384 165.362 97.4724C165.596 97.7648 166.24 97.4724 167.117 96.7704C167.878 96.0685 168.638 95.2496 169.281 94.3137C170.627 92.5004 171.855 90.5701 172.967 88.5813C174.661 85.505 176.253 82.3608 177.717 79.1745ZM177.939 82.7319C179.212 78.606 180.84 74.3914 183.403 70.8992C184.276 71.053 185.162 71.1341 186.049 71.14C185.866 75.6554 184.593 80.1965 183.32 84.5452C182.56 87.0019 181.741 89.3417 180.688 91.6229C180.161 92.7343 179.576 93.8457 178.933 94.8401C178.348 95.8345 177.237 96.7119 177.178 96.4195C176.652 96.127 176.359 94.8401 176.301 93.6702C176.184 92.5004 176.301 91.272 176.418 90.0436C176.71 87.5869 177.237 85.1301 177.939 82.7319ZM175.199 74.9401C176.413 73.0905 177.574 71.1996 178.676 69.2619C177.99 68.891 177.331 68.4669 176.71 67.9913L176.702 67.9851C173.853 71.2182 171.055 74.496 168.346 77.8184C166.825 79.7487 165.304 81.679 164.017 83.6678C163.374 84.6622 162.73 85.7151 162.321 86.768C161.915 87.5336 161.718 88.438 161.782 88.9204C161.892 88.9651 161.995 89.0274 162.087 89.1078C162.162 89.1741 162.228 89.2481 162.282 89.3276C162.652 89.2716 163.251 89.0012 163.9 88.5813C164.777 87.9379 165.713 87.119 166.532 86.2415C167.458 85.2491 168.366 84.2193 169.244 83.152C171.137 80.3227 173.16 77.6229 175.199 74.9401ZM54.8856 133.096C56.5332 133.645 58.2282 134.024 59.9427 134.282C62.1052 134.914 64.2419 135.672 66.3319 136.429C68.6717 137.365 71.0114 138.301 73.1757 139.471C74.2871 140.056 75.34 140.7 76.2759 141.401C77.2703 142.045 77.9137 143.156 77.7383 142.981C77.5043 143.332 76.2174 143.683 75.106 143.624C73.9362 143.683 72.7078 143.507 71.4794 143.273C69.0226 142.864 66.6244 142.162 64.2846 141.284C60.0956 139.694 55.8584 137.718 52.4448 134.836C52.6583 134.181 52.8384 133.514 52.9828 132.839C53.6176 132.904 54.252 132.99 54.8856 133.096ZM59.6901 132.602C58.4302 132.316 57.1557 132.084 55.8629 131.925C54.9826 131.71 54.1157 131.453 53.2668 131.145C53.3401 130.543 53.3848 129.937 53.3994 129.327C57.8008 128.089 62.6054 127.876 67.2093 127.714C69.7246 127.714 72.2398 127.714 74.6966 128.006C75.925 128.123 77.1533 128.357 78.2647 128.65C79.4346 128.884 80.429 129.703 80.195 129.586C80.1365 129.995 79.0251 130.814 77.9722 131.165C76.9193 131.633 75.7495 131.925 74.5211 132.159C72.0643 132.627 69.6076 132.861 67.0924 132.92C64.6372 132.949 62.1393 132.892 59.6901 132.602ZM51.9697 136.139C51.6409 136.953 51.2599 137.746 50.8312 138.51C52.3186 139.37 53.7792 140.276 55.2131 141.223C55.3184 141.236 55.4227 141.277 55.5105 141.343C55.7591 141.536 56.008 141.729 56.2572 141.922C58.2445 143.274 60.1794 144.703 62.0619 146.198C62.5946 146.621 63.1231 147.048 63.6463 147.483C64.6736 148.233 65.7053 148.974 66.7414 149.708C68.6717 150.995 70.602 152.281 72.5908 153.393C73.5852 153.919 74.5796 154.446 75.6325 154.797C76.6269 155.148 77.7383 155.265 78.0892 154.972L78.114 154.948L78.1321 154.93L78.1545 154.909C78.278 154.792 78.3152 154.756 78.2647 154.504C78.2062 154.212 77.9722 153.802 77.6798 153.393C77.0948 152.574 76.2759 151.813 75.3985 151.053C73.6437 149.591 71.7719 148.304 69.7831 147.075C67.1435 145.381 64.4509 143.793 61.7052 142.276C58.2145 140.727 54.8112 138.816 51.9697 136.139ZM50.0715 139.761C49.6988 140.329 49.2989 140.879 48.8739 141.407C49.2928 141.816 49.7103 142.224 50.1271 142.633C51.899 144.053 53.4767 145.661 54.95 147.36C56.2155 148.586 57.49 149.801 58.7862 150.995C60.5995 152.691 62.4713 154.329 64.4601 155.791C65.4545 156.493 66.4489 157.195 67.5018 157.663C68.5547 158.189 69.6076 158.131 69.5491 157.897C69.7246 157.78 69.1981 156.435 68.5547 155.557C67.9113 154.621 67.0923 153.685 66.2149 152.808C64.5186 151.053 62.6468 149.357 60.7165 147.777C57.2878 144.972 53.7667 142.259 50.0715 139.761ZM45.9825 144.32C46.6489 143.788 47.2577 143.211 47.8241 142.609C50.6885 145.311 53.143 148.548 55.558 151.733L55.5626 151.739C55.8185 152.077 56.074 152.414 56.3294 152.749C57.7918 154.738 59.1372 156.844 60.3655 158.95C60.9504 160.003 61.5354 161.056 61.9449 162.167C62.4128 163.161 62.5298 164.624 62.4128 164.565C62.3543 164.741 61.0675 164.565 60.1901 163.863C59.2541 163.278 58.3182 162.459 57.4408 161.64C55.686 159.944 54.1067 158.014 52.6443 156.025C49.9882 152.413 47.6216 148.511 45.9825 144.32ZM158.206 189.049C161.797 187.437 164.881 184.988 167.682 182.273C170.277 180.058 172.92 177.923 175.657 175.913C177.529 174.509 179.401 173.222 181.39 172.111C182.384 171.585 183.379 171.058 184.373 170.824C184.841 170.707 185.309 170.649 185.601 170.707C185.835 170.766 185.894 170.824 185.952 171.058C186.128 171.468 185.601 172.52 184.899 173.281C184.197 174.1 183.379 174.86 182.501 175.621C180.746 177.083 178.874 178.428 176.944 179.774C176.489 180.077 176.032 180.379 175.574 180.679C174.305 181.34 173.062 182.039 171.855 182.757C167.764 185.245 163.777 187.994 160.092 191.054C159.51 190.348 158.88 189.676 158.206 189.049ZM168.229 179.013C165.057 182.581 161.502 186.04 157.191 188.167C156.816 187.863 156.431 187.573 156.034 187.297C158.091 182.978 161.345 179.1 164.543 175.445C166.24 173.573 167.936 171.76 169.808 170.122C170.744 169.303 171.68 168.543 172.674 167.899C173.61 167.197 174.955 167.022 174.663 167.139C174.955 167.49 174.78 168.777 174.312 169.83C173.903 170.941 173.318 171.994 172.674 173.047C171.387 175.094 169.866 177.083 168.229 179.013ZM168.331 186.879C165.745 188.444 163.195 190.088 160.706 191.836C161.107 192.372 161.481 192.925 161.827 193.492C162.813 193.037 163.802 192.586 164.791 192.134L164.802 192.129L164.814 192.123C168.247 190.555 171.68 188.987 175.014 187.319C177.237 186.208 179.459 185.038 181.507 183.693C182.56 183.049 183.496 182.347 184.314 181.528C185.192 180.768 185.543 179.774 185.25 179.715C185.192 179.481 183.788 179.481 182.735 179.832C181.624 180.125 180.454 180.534 179.342 181.002C178.272 181.441 177.227 181.932 176.189 182.456C173.616 184.04 170.981 185.493 168.331 186.879ZM162.704 195.124C163.031 195.799 163.326 196.491 163.572 197.207C168.307 197.193 173.085 196.28 177.646 195.041C180.044 194.339 182.384 193.578 184.607 192.642C185.718 192.174 186.771 191.589 187.707 190.888C188.643 190.303 189.286 189.191 189.169 189.074C189.286 189.016 187.883 188.548 186.771 188.606C185.601 188.606 184.373 188.723 183.203 188.84C180.746 189.191 178.348 189.718 175.95 190.303C171.425 191.532 166.687 192.867 162.704 195.124ZM170.889 205.32C168.917 204.663 167.002 203.837 165.193 202.78C164.791 202.639 164.387 202.507 163.981 202.384C163.781 202.877 163.479 203.344 163.057 203.708C165.852 207.479 169.821 210.37 173.844 212.94C176.008 214.227 178.231 215.397 180.512 216.274C181.624 216.742 182.794 217.151 183.963 217.327C185.075 217.619 186.362 217.561 186.654 217.21C186.83 217.444 186.42 216.157 185.543 215.397C184.782 214.519 183.846 213.7 182.852 212.94C180.922 211.36 178.816 210.015 176.71 208.67C174.808 207.523 172.871 206.365 170.889 205.32ZM164.293 200.752C164.902 201.117 165.527 201.452 166.166 201.76C167.924 202.263 169.609 202.91 171.251 203.645C173.555 204.292 175.936 204.737 178.29 205.102C180.746 205.394 183.262 205.57 185.718 205.511C186.947 205.453 188.175 205.394 189.286 205.102C190.398 204.926 191.568 204.341 191.743 203.873C191.977 204.049 191.1 203.054 189.988 202.645C188.935 202.177 187.766 201.767 186.537 201.475C184.139 200.832 181.682 200.364 179.167 200.013C174.195 199.369 169.048 198.726 164.251 199.486H164.192C164.179 199.489 164.166 199.491 164.152 199.492C164.192 199.74 164.226 199.992 164.251 200.247C164.277 200.403 164.291 200.573 164.293 200.752ZM154.687 175.827C154.231 178.311 153.659 180.778 152.896 183.203C152.783 183.948 152.696 184.693 152.639 185.437C153.121 185.636 153.593 185.857 154.053 186.097C157.321 182.556 159.373 177.92 161.034 173.339C161.853 171 162.496 168.543 162.964 166.145C163.14 164.916 163.315 163.688 163.257 162.518C163.315 161.407 162.964 160.12 162.555 159.886C162.789 159.71 161.619 160.354 160.975 161.348C160.365 162.161 159.844 163.107 159.334 164.031L159.239 164.204C159.193 164.286 159.148 164.367 159.103 164.448C157.992 166.671 157.056 169.011 156.179 171.351C155.668 172.828 155.157 174.323 154.687 175.827ZM150.878 185.312C151.365 183.635 151.763 181.932 152.096 180.213C152.187 179.641 152.29 179.073 152.405 178.507C152.848 175.888 153.162 173.239 153.43 170.59C153.664 168.016 153.839 165.384 153.781 162.81C153.781 160.471 153.02 156.902 152.201 158.423C150.68 159.769 149.803 162.518 149.16 164.858C148.575 167.314 148.165 169.888 148.048 172.462C147.839 177.066 148.191 181.764 149.733 186.095L149.757 186.071L149.767 186.061C149.78 186.048 149.794 186.034 149.808 186.02L149.824 186.005L149.844 185.986C149.868 185.963 149.894 185.939 149.92 185.916C150.13 185.653 150.481 185.438 150.878 185.312ZM96.1272 260.796C95.5553 259.392 94.9493 257.988 94.2921 256.635C92.3618 252.482 90.256 248.446 87.6822 244.643C82.6517 237.098 76.1004 230.371 67.7943 226.861C59.3711 223.41 50.1875 222.065 41.0625 223.176C38.6453 223.426 36.2114 223.775 33.7621 224.126L33.7612 224.127C29.4195 224.75 25.0284 225.38 20.5954 225.474C35.5852 227.469 50.1666 231.675 63.9336 237.917C70.7774 241.075 77.4458 244.819 83.5876 249.323C88.1648 252.636 92.4496 256.436 96.1272 260.796ZM20.1434 225.481C19.8274 225.486 19.5112 225.487 19.1948 225.485C19.3709 225.563 19.5468 225.641 19.7224 225.72C19.8401 225.607 19.9846 225.523 20.1434 225.481ZM24.2294 227.879C28.3088 229.956 32.2398 232.294 36.032 234.875C39.6829 237.179 42.951 239.973 46.1967 242.748L46.198 242.75C49.2962 245.398 52.3738 248.029 55.7445 250.2C59.1956 252.482 62.8808 254.295 66.7999 255.289C70.719 256.284 74.872 256.635 79.0251 256.927C83.2367 257.103 87.6237 258.097 91.4843 260.027C92.1206 260.355 92.7441 260.708 93.3529 261.085C90.0528 257.378 86.2989 254.053 82.3593 251.019C76.4514 246.515 69.9585 242.713 63.2317 239.555C50.9669 233.689 37.7298 229.767 24.2294 227.879ZM107.436 339.49L107.453 339.462C108.565 337.181 110.027 335.075 111.489 333.028C114.706 329.05 118.567 325.833 122.486 322.791C130.441 316.884 138.104 310.742 143.72 302.67C149.393 294.714 153.605 285.765 156.764 276.464C159.041 269.836 162.393 263.574 166.76 258.035C159.61 261.66 152.799 266.064 147.405 272.019C143.111 276.509 139.905 281.848 136.662 287.25C135.088 289.87 133.506 292.505 131.787 295.065C129.636 298.466 126.845 301.61 124.216 304.571C123.77 305.073 123.328 305.57 122.896 306.062C120.029 309.63 117.573 313.549 115.408 317.644C111.874 324.565 109.205 331.939 107.436 339.49ZM161.686 257.583C160.741 257.78 159.801 257.984 158.87 258.214C153.605 259.384 148.516 260.846 143.72 263.069C134.068 267.456 125.996 275.002 120.965 284.419C115.759 293.72 112.425 304.132 110.261 314.602C109.091 319.867 108.272 325.19 107.57 330.513C107.445 331.475 107.334 332.438 107.233 333.398C108.897 327.653 111.047 322.075 113.712 316.708C115.876 312.497 118.333 308.402 121.316 304.717C121.937 303.992 122.554 303.286 123.163 302.589L123.164 302.587C125.651 299.737 128.011 297.032 130.032 293.837C131.65 291.4 133.174 288.863 134.708 286.308C137.999 280.828 141.339 275.267 145.767 270.439C150.348 265.312 155.835 261.121 161.686 257.583ZM105.332 366.488C100.321 358.89 94.0664 352.139 87.6823 345.604C80.195 338.059 72.2398 330.981 63.9337 324.312C55.6275 317.644 46.9119 311.502 37.8453 306.004C29.8338 301.228 21.5067 296.857 12.666 294.041C12.9485 294.24 13.2301 294.445 13.5118 294.656C15.793 296.352 18.0158 298.224 19.9461 300.271C23.9237 304.307 27.1994 309.221 29.3052 314.427C31.5279 319.457 34.6866 324.078 38.6642 327.939C42.6418 331.741 47.3213 334.783 52.2933 337.357C56.951 339.852 61.819 341.874 66.7477 343.921L67.5603 344.259C72.7663 346.482 77.7968 348.997 82.7103 351.746C87.6237 354.495 92.4203 357.479 96.9828 360.813C99.2641 362.451 101.487 364.205 103.651 366.136C104.281 366.713 104.905 367.3 105.508 367.915L105.332 366.488ZM104.3 362.894C103.429 360.976 102.444 359.101 101.428 357.303C98.5621 352.214 95.1695 347.476 91.4844 342.914C89.2611 340.161 86.9101 337.536 84.5469 334.898L84.5463 334.897L84.5413 334.891C82.9895 333.159 81.432 331.42 79.9025 329.635L68.2622 316.357C64.3431 311.97 60.424 307.583 55.8615 304.015C51.3574 300.33 45.976 297.932 40.419 296.235C34.8621 294.48 29.0712 293.486 23.2803 292.784C20.3556 292.492 17.4309 292.258 14.5062 292.141L10.1191 292.024H9.60655C19.9484 294.574 29.4454 299.476 38.4887 304.775C47.6723 310.274 56.4464 316.416 64.8696 323.026C73.2342 329.694 81.3064 336.772 88.7936 344.434C94.3655 350.226 99.74 356.247 104.3 362.894ZM6.28451 292.024H6.02453C6.06353 292.102 6.16752 292.089 6.28451 292.024ZM5.40094 359.325C10.4907 361.374 14.3235 365.443 17.4894 369.587C19.8115 372.498 21.5119 375.792 23.1835 379.032C24.5016 381.586 25.8018 384.105 27.3749 386.375C30.8845 391.697 35.915 395.909 41.4719 399.068C47.0874 402.226 53.1707 404.332 59.3711 406.087C60.081 406.277 60.792 406.467 61.5038 406.656C73.2861 409.798 85.3004 413.002 96.2224 419.014C101.955 422.173 107.453 426.033 111.957 430.888C113.447 432.513 114.821 434.247 116.056 436.074C115.213 431.589 114.378 427.102 113.599 422.625C113.369 422.217 113.134 421.813 112.893 421.412C109.676 416.206 105.464 411.468 99.6735 409.538C95.7575 408.075 91.6542 407.039 87.5264 405.997L87.5239 405.997C85.5485 405.498 83.5676 404.998 81.5989 404.449C75.5155 402.811 69.4321 400.881 63.6412 398.249C57.8503 395.675 52.2933 392.516 47.2044 388.714C43.5385 385.975 40.2066 382.781 36.9242 379.635L36.9217 379.632C35.6483 378.412 34.3824 377.198 33.1073 376.021C28.4862 371.809 23.6312 367.832 18.3668 364.498C15.7345 362.86 12.9853 361.398 10.1191 360.345C8.71526 359.818 7.25291 359.467 5.79055 359.35C5.66345 359.339 5.53323 359.331 5.40094 359.325ZM112.542 416.324C111.72 411.471 110.937 406.615 110.188 401.754C108.161 399.476 105.041 397.805 102.13 396.552C97.3338 394.447 92.1863 392.984 86.9803 391.639C84.5529 391.005 82.0995 390.448 79.6385 389.89L79.6362 389.89L79.634 389.889C76.8779 389.264 74.1117 388.637 71.3624 387.895C66.1564 386.491 61.1259 384.386 56.2709 381.987C48.519 378.158 41.5873 372.987 34.7317 367.872L34.7295 367.871L34.7275 367.869L34.726 367.868C32.9962 366.577 31.2712 365.291 29.5391 364.03C29.362 363.907 29.1849 363.784 29.0077 363.661L28.8961 363.583C24.722 360.684 20.5221 357.767 15.793 356.543C12.3752 355.554 8.58061 355.841 5.47029 357.343L5.55228 357.346C5.68962 357.351 5.82746 357.357 5.96604 357.361C7.66236 357.537 9.3002 357.946 10.7625 358.531C13.8042 359.643 16.6704 361.222 19.3027 362.977C24.6256 366.487 29.4222 370.64 34.1017 374.91C35.1832 375.936 36.2456 376.97 37.3029 377.998C40.7632 381.363 44.1702 384.677 48.0233 387.544C53.0538 391.288 58.4352 394.447 64.1676 396.903C69.9 399.36 75.9249 401.232 82.0083 402.753C83.9976 403.269 85.9994 403.729 88.0055 404.191L88.0074 404.191C92.1353 405.14 96.2822 406.093 100.375 407.549C105.462 409.136 109.544 412.808 112.65 416.99L112.542 416.324ZM175.731 311.93C168.25 318.828 161.274 326.349 154.892 334.315C146.878 344.317 139.683 355.022 134.361 366.604C129.038 378.185 125.352 390.586 123.305 403.221C122.194 409.538 121.609 415.914 121.258 422.29C121.111 424.989 121.046 427.646 121.063 430.332C123.04 420.882 126.277 411.793 129.623 402.811C133.951 391.347 138.982 380.233 144.363 369.236C153.91 349.621 164.573 330.657 175.731 311.93ZM123.378 430.674C123.839 429.703 124.336 428.749 124.884 427.847C125.222 427.293 125.539 426.708 125.858 426.123L125.858 426.122C126.312 425.287 126.767 424.45 127.283 423.694C130.569 418.332 134.424 413.367 138.231 408.464L138.397 408.251C139.395 406.985 140.397 405.722 141.397 404.46C148.25 395.816 155.061 387.226 160.624 377.834C163.959 372.511 166.591 366.838 168.931 361.047C171.095 355.197 172.733 349.172 173.903 343.03C175.952 332.483 177.617 321.806 178.934 311.148C173.459 319.888 168.324 328.907 163.315 337.883C157.349 348.529 151.733 359.292 146.352 370.23C140.97 381.169 135.998 392.283 131.67 403.63C128.344 412.468 125.267 421.482 123.378 430.674ZM151.675 187.202C151.558 187.027 151.031 187.436 150.68 188.314C150.329 189.133 150.212 190.127 150.154 191.063C150.037 192.993 150.446 194.982 151.031 196.678C151.675 198.375 152.435 199.837 153.956 200.598C155.652 201.533 157.524 202.294 159.396 202.586C160.332 202.703 161.268 202.645 161.853 202.294C162.438 201.943 162.613 201.299 162.555 200.305C162.438 198.433 161.677 196.444 160.683 194.748C158.577 191.355 155.36 188.548 151.675 187.202ZM46.7364 127.889C48.4912 127.48 50.363 128.591 50.1291 128.884C50.1291 132.803 48.6082 136.78 46.0345 139.705C44.7476 141.226 43.1683 142.571 41.5889 143.215C41.004 143.39 40.7115 143.332 40.1851 142.922C39.6586 142.454 39.2492 141.694 39.0152 140.817C38.4887 139.062 38.4888 137.073 39.1322 135.318C39.7171 133.446 40.7115 131.691 41.9984 130.346C43.2853 129.001 44.9816 128.065 46.7364 127.889ZM44.1131 145.58C43.6665 145.829 43.1965 146.056 42.7003 146.256C42.6183 146.293 42.5343 146.325 42.4486 146.354C42.3667 146.901 42.306 147.451 42.2643 148.002C42.3442 149.401 42.3385 150.789 42.2743 152.171C42.4635 154.82 42.9581 157.474 43.5192 160.061C44.1042 162.518 44.8646 164.916 45.8005 167.139C46.2685 168.25 46.7949 169.362 47.4968 170.356C48.0818 171.351 49.0762 172.228 49.4856 172.228C49.4271 172.52 50.0706 171.351 50.0121 170.181C50.0706 169.011 50.0121 167.782 49.8951 166.554C49.6611 164.097 49.1932 161.582 48.6667 159.184C47.5468 154.536 46.3197 149.728 44.1131 145.58ZM41.063 147.31C41.0536 147.055 41.041 146.799 41.025 146.545C40.2788 146.515 39.5216 146.303 38.8956 145.948C36.5446 149.767 35.3543 154.313 34.4527 158.716C33.9847 161.172 33.6922 163.688 33.6922 166.144C33.6922 167.373 33.7507 168.601 33.9847 169.771C34.1602 170.882 34.6281 172.169 35.1546 172.345C35.0961 172.579 36.149 171.701 36.5584 170.59C37.0849 169.537 37.4944 168.367 37.9038 167.197C38.7227 164.858 39.3077 162.401 39.7756 159.944C40.1625 157.777 40.538 155.565 40.7868 153.353C40.6904 151.339 40.7585 149.319 41.063 147.31ZM51.9112 126.001C52.3542 126.366 52.7566 126.836 53.0328 127.412C57.6798 126.948 62.3222 125.834 66.9169 124.672C69.4321 123.97 71.9473 123.21 74.2871 122.215C76.4514 121.338 79.5516 119.408 77.7968 119.115C75.9834 118.179 73.1172 118.296 70.6605 118.589C68.1452 118.881 65.5715 119.466 63.1147 120.285C59.0956 121.625 55.2331 123.434 51.9112 126.001ZM189.579 68.5178C190.134 68.3856 190.534 67.8708 190.746 67.1842C190.703 67.0545 190.73 66.8992 190.807 66.8215C190.819 66.8033 190.833 66.7871 190.847 66.7726C190.989 66.0127 190.929 65.1159 190.632 64.3062C190.105 62.4344 188.877 60.7966 187.298 59.5682C184.197 57.1699 179.752 55.5906 176.535 57.4624C174.955 58.3983 174.253 59.6852 174.955 61.44C175.41 62.8035 176.218 64.0964 177.296 65.1815C177.38 65.1788 177.463 65.198 177.529 65.2421C177.63 65.3431 177.692 65.4634 177.716 65.5809C177.9 65.747 178.092 65.9072 178.29 66.061C181.331 68.5763 185.66 69.4537 189.579 68.5178ZM175.628 67.1085C173.497 69.6956 170.855 71.9179 168.245 74.1131C167.611 74.6462 166.979 75.1778 166.357 75.7126C164.426 77.2919 162.438 78.7542 160.332 80.0411C159.279 80.6845 158.226 81.328 157.173 81.7959C156.237 82.3224 154.716 82.4979 154.775 82.3809C154.541 82.2639 154.658 80.977 155.301 80.0411C155.886 78.9883 156.647 78.0524 157.407 77.1166C158.986 75.2447 160.858 73.5483 162.73 71.9689C166.074 69.191 169.689 66.6393 173.616 64.7515C174.186 65.6235 174.868 66.4153 175.628 67.1085ZM191.094 70.1858C191.646 69.8287 192.082 69.3316 192.386 68.8063C195.497 72.0492 197.736 76.0673 199.406 80.2166C200.342 82.6733 201.102 85.1886 201.57 87.7038C201.98 90.2191 202.331 93.0268 201.453 95.0741C201.219 95.542 200.868 95.8345 200.693 95.776C200.459 95.776 199.932 95.3666 199.581 94.9571C198.821 94.0797 198.178 92.9683 197.593 91.7984C196.423 89.4587 195.487 87.0019 194.668 84.5452C193.884 82.0767 193.114 79.5795 192.466 77.0534C192.325 76.4111 192.17 75.7713 192.001 75.1345C191.627 73.4969 191.315 71.8474 191.094 70.1858ZM159.571 68.3423C164.096 66.9628 168.725 65.5313 172.721 63.1147C172.597 62.8351 172.483 62.5497 172.382 62.2589C172.262 61.9353 172.163 61.562 172.098 61.1638C171.814 61.1391 171.529 61.1199 171.244 61.1059C168.998 61.4986 166.751 61.6268 164.504 61.612C162.394 61.9909 160.307 62.537 158.285 63.1363C155.886 63.8968 153.547 64.7742 151.324 65.8856C150.212 66.4705 149.159 67.0555 148.224 67.7574C147.288 68.4008 146.469 69.3952 146.527 69.8632C146.235 69.8047 147.463 70.3896 148.633 70.2726C149.803 70.2726 151.031 70.1556 152.26 69.9802C154.716 69.6292 157.173 68.9858 159.571 68.3423ZM170.659 60.036C168.834 59.8764 167.009 59.9071 165.198 60.0756C162.81 59.948 160.41 59.6704 158.051 59.3928C155.535 59.0418 153.079 58.6324 150.68 57.9889C149.452 57.6965 148.282 57.287 147.229 56.8191C146.118 56.4096 145.24 55.4152 145.474 55.5907C145.591 55.1812 146.761 54.5963 147.873 54.3623C148.984 54.0698 150.212 53.9529 151.441 53.8944C153.897 53.7774 156.413 53.8944 158.87 54.1868C163.54 54.7984 168.369 55.7271 172.502 58.0276C172.481 58.0727 172.46 58.1183 172.44 58.1643C172.175 58.6943 172.049 59.2937 172.021 59.893C171.569 59.9515 171.115 59.9988 170.659 60.036ZM191.959 80.1021C191.327 77.6292 190.81 75.13 190.46 72.5852C190.265 71.9473 190.05 71.3181 189.811 70.6995C189.12 70.8702 188.419 70.9907 187.712 71.0621C186.304 75.5176 186.324 80.398 186.654 85.0716C186.888 87.5869 187.239 90.0436 187.883 92.4419L187.958 92.6929C188.284 93.7859 188.622 94.9153 189.111 95.893C189.579 96.9459 190.339 98.0573 191.041 98.1743C191.334 98.4083 192.036 97.1214 192.211 95.9515C192.445 94.7816 192.562 93.5532 192.621 92.2664C192.738 89.7511 192.621 87.2359 192.445 84.7206C192.301 83.1947 192.152 81.6468 191.959 80.1021Z" fill="#FFFAEB"/>
</svg>
