<svg width="393" height="684" viewBox="0 0 393 684" fill="none" xmlns="http://www.w3.org/2000/svg">
<path opacity="0.12" d="M-11.8883 41.9274C61.1101 71.4971 5.96907 141.539 8.88302 190.299C12.843 254.74 88.3817 272.362 59.6904 345.316C46.6897 378.321 25.769 391.463 26.6656 431.785C27.2633 461.43 36.9765 493.464 25.8437 522.436C12.6189 557.158 -49.7697 615.476 -82.2715 635.339C-100.278 646.39 -177.76 644.225 -169.018 678.573C-139.206 677.901 -107.152 673.421 -75.7711 676.408C-61.7991 677.677 -48.3501 686.041 -31.0905 682.606C-7.77883 677.976 5.07245 660.13 29.0565 650.124C48.0346 642.283 80.1628 648.929 95.8534 640.566C117.148 629.291 110.05 603.529 114.906 576.797C122.976 532.591 140.459 509.593 184.692 494.136C221.901 481.143 232.959 483.084 236.769 438.431C243.12 364.955 183.72 347.034 142.85 301.036C129.999 286.55 118.268 265.269 113.262 247.721C104.147 215.612 106.239 224.2 128.206 211.058C148.305 199.035 170.197 202.993 190.968 193.808C223.619 179.322 232.66 135.565 261.949 118.839C291.387 102.112 406.152 114.956 390.91 45.5116C379.404 -7.72894 213.682 3.39706 170.495 3.47173C127.16 3.47173 13.1419 -15.6441 -11.8883 41.9274Z" fill="#C4C4C4"/>
</svg>
