<svg width="346" height="621" viewBox="0 0 346 621" fill="none" xmlns="http://www.w3.org/2000/svg">
<path d="M344 620.89C319.5 595.39 314.6 557.89 309.9 521.59C304.6 480.79 299.5 442.29 269 419.79C249.3 405.29 225.2 402.59 199.6 399.79C178.1 397.39 156 394.89 136.9 384.79C90.6 360.09 78.3 298.99 82.2 249.99C83.6 232.09 86.6 213.99 89.5 196.49C94.8 164.49 100.2 131.29 96.2 98.7899C89.8 47.8899 49.8 -2.7101 0.3 3.0899L0 0.489902C51.1 -5.6101 92.3 46.2899 98.7 98.4899C102.8 131.39 97.3 164.69 92 196.89C89.1 214.39 86.2 232.39 84.8 250.19C81 298.39 93 358.39 138.1 382.39C156.7 392.29 178.6 394.69 199.8 397.09C224.6 399.89 250.3 402.69 270.5 417.59C302 440.79 307.3 481.69 312.5 521.19C317.2 557.09 322 594.09 345.9 618.99L344 620.89Z" fill="#FFF3CC"/>
</svg>
