<svg width="48" height="48" viewBox="0 0 48 48" fill="none" xmlns="http://www.w3.org/2000/svg">
<path d="M11.1986 11.336C12.1276 13.7976 13.1081 16.3887 14.037 18.7854H40.4597C40.7178 16.7126 40.9242 13.9271 41.079 11.336H11.1986Z" fill="#00BAFF"/>
<path d="M41.3887 4.34009H9.28918C9.65043 5.24697 10.0633 6.21863 10.4245 7.31985H41.1822C41.2854 6.15385 41.3371 5.11742 41.3887 4.34009Z" fill="#00BAFF"/>
<path d="M18.0624 26.4292C20.9523 27.336 39.2212 23.9028 39.9437 22.413C39.9953 22.2834 40.0985 21.9595 40.1501 21.6356H14.9143C16.1013 24.2267 17.185 26.1053 18.0624 26.4292Z" fill="#00BAFF"/>
<path d="M47.2719 0.97166C44.6399 0.97166 43.6594 4.79352 43.2466 9.32793H41.1823H10.4246H9.23763C6.86371 4.14575 4.23176 0 0.774103 0C0.361248 0 0 0.453441 0 0.97166C0 1.48988 0.361248 1.94332 0.774103 1.94332C3.19963 1.94332 5.41872 5.18219 7.37978 9.32793H7.07014C6.60568 9.32793 6.29604 9.78138 6.29604 10.2996C6.29604 10.8826 6.65729 11.2713 7.07014 11.2713H8.2571C9.08281 13.1498 9.85691 15.0931 10.5794 16.9717C10.7858 17.5547 11.0439 18.1377 11.2503 18.6559H10.9923C10.5278 18.6559 10.2182 19.1093 10.2182 19.6275C10.2182 20.2105 10.5794 20.5992 10.9923 20.5992H12.076C14.3467 26.1053 16.5142 30.3158 19.3526 30.3158C24.2552 30.3158 34.525 28.6316 39.8405 26.4291C35.9184 30.7045 28.1774 32.583 22.1394 34.0729C16.3078 35.498 13.4694 36.2753 13.1598 38.413C13.0565 39.0607 13.2114 39.6437 13.5726 40.1619C14.5015 41.4575 16.8238 41.6518 18.1656 41.6518V42.8826C17.3915 43.2713 16.8238 44.2429 16.8238 45.3441C16.8238 46.834 17.8044 48 18.9397 48C20.1267 48 21.0556 46.7692 21.0556 45.3441C21.0556 44.2429 20.4879 43.2713 19.7138 42.8826V41.6518H37.3118V42.8826C36.5377 43.2713 35.97 44.2429 35.97 45.3441C35.97 46.834 36.9505 48 38.0859 48C39.2728 48 40.2018 46.7692 40.2018 45.3441C40.2018 44.2429 39.6341 43.2713 38.86 42.8826V41.6518H43.0401C43.5046 41.6518 43.8142 41.1984 43.8142 40.6802C43.8142 40.0972 43.453 39.7085 43.0401 39.7085H38.0859H18.9397H18.8881C16.7722 39.8381 14.8628 39.3846 14.708 38.8664C15.0692 37.9595 19.301 36.9231 22.3974 36.1457C30.9641 34.0729 42.5241 31.2227 43.8658 21.9595C43.8658 21.8947 43.8658 21.83 43.9175 21.83V21.7652C43.9691 21.5061 44.0207 21.1822 44.0207 20.8583H44.6916C45.156 20.8583 45.4657 20.4049 45.4657 19.8866C45.4657 19.3036 45.1044 18.915 44.6916 18.915H44.1755C44.2271 17.8785 44.3303 16.7125 44.3819 15.417C44.4335 14.1862 44.5367 12.8259 44.5883 11.5304H45.156C45.6205 11.5304 45.9301 11.0769 45.9301 10.5587C45.9301 9.97571 45.5689 9.58704 45.156 9.58704H44.7948C45.156 6.15385 45.8269 3.23887 47.2203 3.23887C47.6848 3.23887 47.9944 2.78543 47.9944 2.26721C48.046 1.4251 47.7364 0.97166 47.2719 0.97166ZM13.9339 20.7935H14.9144H40.1502H42.4209C42.3692 21.0526 42.3692 21.3117 42.3176 21.5061C42.3176 21.5709 42.266 21.7004 42.266 21.7652C42.1628 22.4777 42.008 22.996 41.8016 23.2551C39.9953 25.5223 26.3195 28.502 19.4042 28.502C17.5463 28.502 15.7401 25.004 13.9339 20.7935ZM42.8337 15.1579C42.7821 16.3239 42.7305 17.6194 42.6273 18.7854H40.4598H14.0371H13.1081C12.7469 17.9433 12.4373 17.0364 12.076 16.1943C11.4567 14.5749 10.7858 12.9555 10.1149 11.336H11.1987H41.0791H43.0917C42.9885 12.6316 42.9369 13.8623 42.8337 15.1579Z" fill="#004643"/>
</svg>
