<svg width="96" height="96" viewBox="0 0 96 96" fill="none" xmlns="http://www.w3.org/2000/svg">
<path d="M22.3973 22.6721C24.2551 27.5952 26.2162 32.7773 28.074 37.5709H80.9195C81.4355 33.4251 81.8484 27.8543 82.158 22.6721H22.3973Z" fill="#00BAFF"/>
<path d="M82.7773 8.68018H18.5784C19.3009 10.4939 20.1266 12.4373 20.8491 14.6397H82.3645C82.5709 12.3077 82.6741 10.2348 82.7773 8.68018Z" fill="#00BAFF"/>
<path d="M36.1247 52.8583C41.9047 54.6721 78.4423 47.8057 79.8873 44.8259C79.9905 44.5668 80.197 43.919 80.3002 43.2713H29.8287C32.2026 48.4535 34.3701 52.2105 36.1247 52.8583Z" fill="#00BAFF"/>
<path d="M94.5438 1.94332C89.2799 1.94332 87.3188 9.58704 86.4931 18.6559H82.3646H20.8492H18.4753C13.7274 8.2915 8.46353 0 1.54821 0C0.722496 0 0 0.906883 0 1.94332C0 2.97976 0.722496 3.88664 1.54821 3.88664C6.39925 3.88664 10.8374 10.3644 14.7596 18.6559H14.1403C13.2114 18.6559 12.5921 19.5628 12.5921 20.5992C12.5921 21.7652 13.3146 22.5425 14.1403 22.5425H16.5142C18.1656 26.2996 19.7138 30.1862 21.1588 33.9433C21.5717 35.1093 22.0877 36.2753 22.5006 37.3117H21.9845C21.0556 37.3117 20.4363 38.2186 20.4363 39.2551C20.4363 40.4211 21.1588 41.1984 21.9845 41.1984H24.152C28.6934 52.2105 33.0284 60.6316 38.7052 60.6316C48.5105 60.6316 69.05 57.2632 79.681 52.8583C71.8368 61.4089 56.3547 65.166 44.2787 68.1457C32.6155 70.9959 26.9388 72.5506 26.3195 76.8259C26.1131 78.1215 26.4227 79.2874 27.1452 80.3239C29.0031 82.915 33.6477 83.3036 36.3312 83.3036V85.7652C34.783 86.5425 33.6477 88.4858 33.6477 90.6883C33.6477 93.668 35.6087 96 37.8794 96C40.2534 96 42.1112 93.5385 42.1112 90.6883C42.1112 88.4858 40.9759 86.5425 39.4277 85.7652V83.3036H74.6235V85.7652C73.0753 86.5425 71.94 88.4858 71.94 90.6883C71.94 93.668 73.901 96 76.1718 96C78.5457 96 80.4035 93.5385 80.4035 90.6883C80.4035 88.4858 79.2682 86.5425 77.72 85.7652V83.3036H86.0803C87.0092 83.3036 87.6285 82.3968 87.6285 81.3603C87.6285 80.1943 86.906 79.417 86.0803 79.417H76.1718H37.8794H37.7762C33.5445 79.6761 29.7256 78.7692 29.4159 77.7328C30.1384 75.919 38.6019 73.8462 44.7948 72.2915C61.9283 68.1457 85.0481 62.4453 87.7317 43.919C87.7317 43.7895 87.7317 43.6599 87.8349 43.6599V43.5304C87.9381 43.0121 88.0413 42.3644 88.0413 41.7166H89.3831C90.312 41.7166 90.9313 40.8097 90.9313 39.7733C90.9313 38.6073 90.2088 37.83 89.3831 37.83H88.351C88.4542 35.7571 88.6606 33.4251 88.7638 30.834C88.867 28.3725 89.0735 25.6518 89.1767 23.0607H90.312C91.241 23.0607 91.8602 22.1538 91.8602 21.1174C91.8602 19.9514 91.1377 19.1741 90.312 19.1741H89.5895C90.312 12.3077 91.6538 6.47773 94.4406 6.47773C95.3695 6.47773 95.9888 5.57085 95.9888 4.53441C96.092 2.8502 95.4727 1.94332 94.5438 1.94332ZM27.8677 41.587H29.8288H80.3003H84.8417C84.7385 42.1053 84.7385 42.6235 84.6353 43.0121C84.6353 43.1417 84.5321 43.4008 84.5321 43.5304C84.3256 44.9555 84.016 45.9919 83.6031 46.5101C79.9907 51.0445 52.639 57.004 38.8084 57.004C35.0927 57.004 31.4802 50.0081 27.8677 41.587ZM85.6674 30.3158C85.5642 32.6478 85.461 35.2389 85.2546 37.5708H80.9196H28.0741H26.2163C25.4938 35.8866 24.8745 34.0729 24.152 32.3887C22.9135 29.1498 21.5717 25.9109 20.2299 22.6721H22.3974H82.1581H86.1835C85.9771 25.2632 85.8738 27.7247 85.6674 30.3158Z" fill="#004643"/>
</svg>
