<svg width="195" height="60" viewBox="0 0 195 60" fill="none" xmlns="http://www.w3.org/2000/svg">
<g opacity="0.8">
<path d="M17.4979 14.1702C18.9493 17.2471 20.4814 20.486 21.9328 23.4819H63.2183C63.6215 20.8908 63.9441 17.409 64.186 14.1702H17.4979Z" fill="#00BAFF"/>
<path d="M64.6698 5.42523H14.5143C15.0788 6.55884 15.7239 7.77341 16.2883 9.14993H64.3472C64.5085 7.69244 64.5891 6.39689 64.6698 5.42523Z" fill="#00BAFF"/>
<path d="M28.2224 33.0366C32.738 34.1702 61.2831 29.8787 62.412 28.0163C62.4926 27.8544 62.6539 27.4495 62.7345 27.0447H23.3036C25.1583 30.2835 26.8516 32.6317 28.2224 33.0366Z" fill="#00BAFF"/>
<path d="M73.8623 1.21457C69.7499 1.21457 68.2178 5.9919 67.5728 11.6599H64.3473H16.2884H14.4338C10.7246 5.18219 6.61213 0 1.20954 0C0.56445 0 0 0.566802 0 1.21457C0 1.86235 0.56445 2.42915 1.20954 2.42915C4.99942 2.42915 8.46675 6.47773 11.5309 11.6599H11.0471C10.3214 11.6599 9.83756 12.2267 9.83756 12.8745C9.83756 13.6032 10.402 14.0891 11.0471 14.0891H12.9017C14.1919 16.4372 15.4014 18.8664 16.5303 21.2146C16.8529 21.9433 17.256 22.6721 17.5786 23.3198H17.1754C16.4497 23.3198 15.9659 23.8866 15.9659 24.5344C15.9659 25.2632 16.5303 25.749 17.1754 25.749H18.8688C22.4167 32.6316 25.8034 37.8947 30.2384 37.8947C37.8988 37.8947 53.9453 35.7895 62.2508 33.0364C56.1225 38.3806 44.0271 40.7287 34.5927 42.5911C25.4809 44.3725 21.0459 45.3441 20.5621 48.0162C20.4008 48.8259 20.6427 49.5547 21.2072 50.2024C22.6586 51.8219 26.2873 52.0648 28.3838 52.0648V53.6032C27.1742 54.0891 26.2873 55.3036 26.2873 56.6802C26.2873 58.5425 27.8193 60 29.5933 60C31.4479 60 32.8994 58.4615 32.8994 56.6802C32.8994 55.3036 32.0124 54.0891 30.8029 53.6032V52.0648H58.2996V53.6032C57.0901 54.0891 56.2031 55.3036 56.2031 56.6802C56.2031 58.5425 57.7352 60 59.5092 60C61.3638 60 62.8152 58.4615 62.8152 56.6802C62.8152 55.3036 61.9283 54.0891 60.7187 53.6032V52.0648H67.2502C67.9759 52.0648 68.4597 51.498 68.4597 50.8502C68.4597 50.1215 67.8953 49.6356 67.2502 49.6356H59.5092H29.5933H29.5127C26.2066 49.7976 23.2231 49.2308 22.9812 48.583C23.5456 47.4494 30.1578 46.1538 34.9959 45.1822C48.3814 42.5911 66.4439 39.0283 68.5404 27.4494C68.5404 27.3684 68.5404 27.2875 68.621 27.2875V27.2065C68.7017 26.8826 68.7823 26.4777 68.7823 26.0729H69.8306C70.5563 26.0729 71.0401 25.5061 71.0401 24.8583C71.0401 24.1296 70.4756 23.6437 69.8306 23.6437H69.0242C69.1048 22.3482 69.2661 20.8907 69.3467 19.2713C69.4274 17.7328 69.5886 16.0324 69.6693 14.413H70.5563C71.282 14.413 71.7658 13.8462 71.7658 13.1984C71.7658 12.4696 71.2014 11.9838 70.5563 11.9838H69.9918C70.5563 7.69231 71.6045 4.04858 73.7817 4.04858C74.5074 4.04858 74.9912 3.48178 74.9912 2.83401C75.0719 1.78138 74.5881 1.21457 73.8623 1.21457ZM21.7717 25.9919H23.3037H62.7346H66.2826C66.2019 26.3158 66.2019 26.6397 66.1213 26.8826C66.1213 26.9636 66.0407 27.1255 66.0407 27.2065C65.8794 28.0972 65.6375 28.7449 65.315 29.0688C62.4927 31.9028 41.1242 35.6275 30.319 35.6275C27.4162 35.6275 24.5939 31.2551 21.7717 25.9919ZM66.9277 18.9474C66.847 20.4049 66.7664 22.0243 66.6051 23.4818H63.2184H21.9329H20.4815C19.917 22.4292 19.4332 21.2955 18.8688 20.2429C17.9011 18.2186 16.8529 16.1943 15.8046 14.17H17.498H64.1861H67.3308C67.1696 15.7895 67.0889 17.3279 66.9277 18.9474Z" fill="#004643"/>
<path d="M90.0415 23.3585V22.5278C90.0415 21.9462 90.3323 21.6555 90.9138 21.6555H94.4446C95.0262 21.6555 95.3169 21.9462 95.3169 22.5278V22.8601C95.3169 23.9124 95.5246 24.6324 95.94 25.0201C96.3554 25.4078 97.1169 25.6016 98.2246 25.6016H100.177C101.257 25.6016 102.005 25.3939 102.42 24.9785C102.863 24.5631 103.085 23.7878 103.085 22.6524V22.1539C103.085 21.3508 102.752 20.7416 102.088 20.3262C101.451 19.8831 100.648 19.6201 99.6785 19.537C98.7092 19.4539 97.6569 19.3016 96.5215 19.0801C95.4138 18.8308 94.3754 18.5262 93.4062 18.1662C92.4369 17.7785 91.62 17.0447 90.9554 15.9647C90.3185 14.857 90 13.4447 90 11.7278V10.2739C90 8.11392 90.6092 6.43853 91.8277 5.24776C93.0462 4.05699 94.7354 3.46161 96.8954 3.46161H101.049C103.237 3.46161 104.94 4.05699 106.158 5.24776C107.377 6.43853 107.986 8.11392 107.986 10.2739V11.0631C107.986 11.6447 107.695 11.9355 107.114 11.9355H103.583C103.002 11.9355 102.711 11.6447 102.711 11.0631V10.8139C102.711 9.73392 102.503 9.00007 102.088 8.61238C101.672 8.22468 100.911 8.03084 99.8031 8.03084H98.1831C97.0477 8.03084 96.2723 8.25238 95.8569 8.69545C95.4692 9.11084 95.2754 9.94161 95.2754 11.1878V11.977C95.2754 13.2785 96.4108 14.0262 98.6815 14.2201C101.035 14.4139 103.126 14.8847 104.954 15.6324C105.923 16.0478 106.726 16.7955 107.363 17.8755C108.028 18.9278 108.36 20.2847 108.36 21.9462V23.3585C108.36 25.5185 107.751 27.1939 106.532 28.3847C105.314 29.5755 103.625 30.1708 101.465 30.1708H96.9369C94.7769 30.1708 93.0877 29.5755 91.8692 28.3847C90.6508 27.1939 90.0415 25.5185 90.0415 23.3585Z" fill="#004643"/>
<path d="M117.086 30.1708H113.555C112.973 30.1708 112.683 29.8801 112.683 29.2985V9.85853C112.683 9.27699 112.973 8.98622 113.555 8.98622H117.086C117.667 8.98622 117.958 9.27699 117.958 9.85853V11.2293H118.124C118.456 10.5647 119.01 10.0247 119.786 9.6093C120.589 9.19392 121.503 8.98622 122.527 8.98622H123.69C126.1 8.98622 127.83 9.87238 128.883 11.6447C129.824 9.87238 131.444 8.98622 133.743 8.98622H134.947C137.08 8.98622 138.686 9.56776 139.766 10.7308C140.873 11.8939 141.427 13.5693 141.427 15.757V29.2985C141.427 29.8801 141.136 30.1708 140.555 30.1708H137.024C136.443 30.1708 136.152 29.8801 136.152 29.2985V16.0062C136.152 15.1201 135.972 14.497 135.612 14.137C135.252 13.7493 134.629 13.5555 133.743 13.5555H132.704C130.793 13.5555 129.838 14.6216 129.838 16.7539V29.2985C129.838 29.8801 129.533 30.1708 128.924 30.1708H125.435C124.853 30.1708 124.563 29.8801 124.563 29.2985V16.0062C124.563 15.1201 124.369 14.497 123.981 14.137C123.621 13.7493 122.998 13.5555 122.112 13.5555H120.824C118.913 13.5555 117.958 14.6078 117.958 16.7124V29.2985C117.958 29.8801 117.667 30.1708 117.086 30.1708Z" fill="#004643"/>
<path d="M153.26 30.1708H152.263C150.075 30.1708 148.386 29.5893 147.195 28.4262C146.004 27.2631 145.409 25.5878 145.409 23.4001V15.757C145.409 13.5693 146.004 11.8939 147.195 10.7308C148.386 9.56776 150.075 8.98622 152.263 8.98622H161.858C162.467 8.98622 162.772 9.27699 162.772 9.85853V29.2985C162.772 29.8801 162.467 30.1708 161.858 30.1708H158.369C157.787 30.1708 157.496 29.8801 157.496 29.2985V27.9278H157.33C157.026 28.6755 156.486 29.2431 155.71 29.6308C154.935 29.9908 154.118 30.1708 153.26 30.1708ZM157.496 22.4447V14.0124C157.496 13.7078 157.33 13.5555 156.998 13.5555H153.093C152.207 13.5555 151.584 13.7493 151.224 14.137C150.864 14.497 150.684 15.1201 150.684 16.0062V23.1508C150.684 24.037 150.864 24.6739 151.224 25.0616C151.584 25.4216 152.207 25.6016 153.093 25.6016H154.63C156.541 25.6016 157.496 24.5493 157.496 22.4447Z" fill="#004643"/>
<path d="M171.727 30.1708H168.196C167.614 30.1708 167.324 29.8801 167.324 29.2985V9.85853C167.324 9.27699 167.614 8.98622 168.196 8.98622H171.727C172.308 8.98622 172.599 9.27699 172.599 9.85853V11.2708H172.765C173.07 10.5231 173.61 9.95545 174.385 9.56776C175.16 9.18007 175.977 8.98622 176.836 8.98622H178.331C178.885 8.98622 179.162 9.27699 179.162 9.85853V12.7247C179.162 13.057 179.093 13.2924 178.954 13.4308C178.844 13.5416 178.636 13.5831 178.331 13.5555H175.465C173.554 13.5555 172.599 14.6355 172.599 16.7955V29.2985C172.599 29.8801 172.308 30.1708 171.727 30.1708Z" fill="#004643"/>
<path d="M182.262 13.5555H180.601C180.268 13.5555 180.033 13.5001 179.894 13.3893C179.784 13.2785 179.728 13.057 179.728 12.7247V9.85853C179.728 9.27699 180.019 8.98622 180.601 8.98622H182.262C182.567 8.98622 182.719 8.83392 182.719 8.5293V4.58315C182.719 4.00161 183.024 3.71084 183.633 3.71084H187.122C187.704 3.71084 187.994 4.00161 187.994 4.58315V8.5293C187.994 8.83392 188.161 8.98622 188.493 8.98622H191.733C192.314 8.98622 192.605 9.27699 192.605 9.85853V12.7247C192.605 13.0293 192.536 13.2508 192.397 13.3893C192.287 13.5001 192.065 13.5555 191.733 13.5555H188.493C188.161 13.5555 187.994 13.7078 187.994 14.0124V23.1924C187.994 24.0508 188.188 24.6739 188.576 25.0616C188.964 25.4216 189.601 25.6016 190.487 25.6016H192.148C192.73 25.6016 193.021 25.8924 193.021 26.4739V29.3401C193.021 29.6447 192.951 29.8662 192.813 30.0047C192.702 30.1155 192.481 30.1708 192.148 30.1708H189.614C187.427 30.1708 185.724 29.5893 184.505 28.4262C183.314 27.2631 182.719 25.6016 182.719 23.4416V14.0124C182.719 13.7078 182.567 13.5555 182.262 13.5555Z" fill="#004643"/>
<path d="M90 48.6825V47.8147C90 47.5616 90.13 47.4351 90.3899 47.4351H91.6431C91.9031 47.4351 92.033 47.5616 92.033 47.8147V48.5198C92.033 50.1468 92.8592 50.9604 94.5117 50.9604H96.9625C98.6149 50.9604 99.4411 50.1288 99.4411 48.4656V47.5436C99.4411 46.2419 98.3364 45.3922 96.127 44.9945C95.1986 44.8318 94.2703 44.642 93.342 44.4251C92.4137 44.2081 91.6246 43.7923 90.9747 43.1777C90.3249 42.5449 90 41.6862 90 40.6015V39.2727C90 38.0253 90.362 37.0491 91.0861 36.3441C91.8288 35.6209 92.8407 35.2594 94.1218 35.2594H97.2131C98.4756 35.2594 99.4782 35.6209 100.221 36.3441C100.964 37.0491 101.335 38.0253 101.335 39.2727V39.9507C101.335 40.2219 101.214 40.3574 100.973 40.3574H99.6917C99.4504 40.3574 99.3297 40.2219 99.3297 39.9507V39.4626C99.3297 37.8174 98.5035 36.9949 96.8511 36.9949H94.4838C92.8314 36.9949 92.0052 37.8536 92.0052 39.571V40.6557C92.0052 41.5777 92.6272 42.2105 93.8711 42.554C94.4281 42.6986 95.0408 42.8342 95.7092 42.9607C96.3776 43.0692 97.046 43.2229 97.7144 43.4217C98.4014 43.6025 99.0233 43.8375 99.5803 44.1268C100.137 44.3979 100.583 44.8228 100.917 45.4013C101.27 45.9617 101.446 46.6487 101.446 47.4622V48.6825C101.446 49.9299 101.075 50.9152 100.332 51.6383C99.5896 52.3433 98.587 52.6959 97.3245 52.6959H94.1218C92.8592 52.6959 91.8567 52.3433 91.114 51.6383C90.3713 50.9152 90 49.9299 90 48.6825Z" fill="black"/>
<path d="M107.008 52.6959H105.754C105.494 52.6959 105.364 52.5693 105.364 52.3162V34.012C105.364 33.7589 105.494 33.6323 105.754 33.6323H107.008C107.267 33.6323 107.397 33.7589 107.397 34.012V40.3032H107.509C107.973 39.3451 108.92 38.866 110.35 38.866H111.909C113.172 38.866 114.156 39.2185 114.861 39.9236C115.567 40.6286 115.919 41.6139 115.919 42.8794V52.3162C115.919 52.5693 115.79 52.6959 115.53 52.6959H114.276C114.016 52.6959 113.886 52.5693 113.886 52.3162V42.9607C113.886 41.3879 113.107 40.6015 111.547 40.6015H109.987C109.152 40.6015 108.511 40.8184 108.066 41.2523C107.62 41.6862 107.397 42.3009 107.397 43.0963V52.3162C107.397 52.5693 107.267 52.6959 107.008 52.6959Z" fill="black"/>
<path d="M125.854 52.6959H123.459C122.178 52.6959 121.166 52.3433 120.423 51.6383C119.699 50.9332 119.337 49.948 119.337 48.6825V42.8794C119.337 41.6139 119.699 40.6286 120.423 39.9236C121.166 39.2185 122.178 38.866 123.459 38.866H125.854C127.135 38.866 128.138 39.2185 128.862 39.9236C129.604 40.6286 129.976 41.6139 129.976 42.8794V48.6825C129.976 49.948 129.604 50.9332 128.862 51.6383C128.138 52.3433 127.135 52.6959 125.854 52.6959ZM123.682 50.9604H125.631C127.191 50.9604 127.971 50.183 127.971 48.6283V42.9336C127.971 41.3789 127.191 40.6015 125.631 40.6015H123.682C122.122 40.6015 121.342 41.3789 121.342 42.9336V48.6283C121.342 50.183 122.122 50.9604 123.682 50.9604Z" fill="black"/>
<path d="M135.184 56.655H133.93C133.671 56.655 133.541 56.5285 133.541 56.2754V39.2456C133.541 38.9925 133.671 38.866 133.93 38.866H135.184C135.444 38.866 135.574 38.9925 135.574 39.2456V40.3032H135.685C136.149 39.3451 137.096 38.866 138.526 38.866H140.197C141.459 38.866 142.434 39.2185 143.121 39.9236C143.826 40.6286 144.179 41.6139 144.179 42.8794V48.6825C144.179 49.948 143.826 50.9332 143.121 51.6383C142.434 52.3433 141.459 52.6959 140.197 52.6959H138.526C137.096 52.6959 136.149 52.2168 135.685 51.2586H135.574V56.2754C135.574 56.5285 135.444 56.655 135.184 56.655ZM138.164 50.9604H139.807C141.385 50.9604 142.174 50.174 142.174 48.6011V42.9607C142.174 41.3879 141.385 40.6015 139.807 40.6015H138.164C137.328 40.6015 136.688 40.8184 136.242 41.2523C135.796 41.6862 135.574 42.3009 135.574 43.0963V48.4656C135.574 49.261 135.796 49.8757 136.242 50.3095C136.688 50.7434 137.328 50.9604 138.164 50.9604Z" fill="black"/>
<path d="M149.381 56.655H148.127C147.867 56.655 147.737 56.5285 147.737 56.2754V39.2456C147.737 38.9925 147.867 38.866 148.127 38.866H149.381C149.641 38.866 149.771 38.9925 149.771 39.2456V40.3032H149.882C150.346 39.3451 151.293 38.866 152.723 38.866H154.394C155.656 38.866 156.631 39.2185 157.318 39.9236C158.023 40.6286 158.376 41.6139 158.376 42.8794V48.6825C158.376 49.948 158.023 50.9332 157.318 51.6383C156.631 52.3433 155.656 52.6959 154.394 52.6959H152.723C151.293 52.6959 150.346 52.2168 149.882 51.2586H149.771V56.2754C149.771 56.5285 149.641 56.655 149.381 56.655ZM152.361 50.9604H154.004C155.582 50.9604 156.371 50.174 156.371 48.6011V42.9607C156.371 41.3879 155.582 40.6015 154.004 40.6015H152.361C151.525 40.6015 150.884 40.8184 150.439 41.2523C149.993 41.6862 149.771 42.3009 149.771 43.0963V48.4656C149.771 49.261 149.993 49.8757 150.439 50.3095C150.884 50.7434 151.525 50.9604 152.361 50.9604Z" fill="black"/>
<path d="M162.074 36.5881V34.0391C162.074 33.786 162.194 33.6594 162.436 33.6594H163.717C163.977 33.6594 164.107 33.786 164.107 34.0391V36.5881C164.107 36.8412 163.977 36.9678 163.717 36.9678H162.436C162.194 36.9678 162.074 36.8412 162.074 36.5881ZM162.074 52.3162V39.2456C162.074 38.9925 162.194 38.866 162.436 38.866H163.717C163.977 38.866 164.107 38.9925 164.107 39.2456V52.3162C164.107 52.5693 163.977 52.6959 163.717 52.6959H162.463C162.204 52.6959 162.074 52.5693 162.074 52.3162Z" fill="black"/>
<path d="M169.724 52.6959H168.471C168.211 52.6959 168.081 52.5693 168.081 52.3162V39.2456C168.081 38.9925 168.211 38.866 168.471 38.866H169.724C169.984 38.866 170.114 38.9925 170.114 39.2456V40.3032H170.225C170.689 39.3451 171.636 38.866 173.066 38.866H174.626C175.888 38.866 176.872 39.2185 177.578 39.9236C178.283 40.6286 178.636 41.6139 178.636 42.8794V52.3162C178.636 52.5693 178.506 52.6959 178.246 52.6959H176.993C176.733 52.6959 176.603 52.5693 176.603 52.3162V42.9607C176.603 41.3879 175.823 40.6015 174.264 40.6015H172.704C171.868 40.6015 171.228 40.8184 170.782 41.2523C170.337 41.6862 170.114 42.3009 170.114 43.0963V52.3162C170.114 52.5693 169.984 52.6959 169.724 52.6959Z" fill="black"/>
<path d="M187.707 51.9637H186.148C184.885 51.9637 183.901 51.6112 183.196 50.9061C182.49 50.2011 182.137 49.2158 182.137 47.9503V42.8794C182.137 41.6139 182.499 40.6286 183.223 39.9236C183.966 39.2185 184.978 38.866 186.259 38.866H192.302C192.562 38.866 192.692 38.9925 192.692 39.2456V52.6959C192.692 53.9433 192.321 54.9195 191.578 55.6246C190.854 56.3477 189.852 56.7092 188.571 56.7092H183.446C183.168 56.7092 183.028 56.5827 183.028 56.3296V55.3263C183.028 55.0732 183.168 54.9466 183.446 54.9466H188.32C189.879 54.9466 190.659 54.1693 190.659 52.6145V50.5265H190.548C190.065 51.4846 189.118 51.9637 187.707 51.9637ZM190.659 47.7334V40.8456C190.659 40.6829 190.566 40.6015 190.381 40.6015H186.51C184.95 40.6015 184.17 41.3879 184.17 42.9607V47.869C184.17 49.4418 184.95 50.2282 186.51 50.2282H188.069C188.905 50.2282 189.545 50.0112 189.991 49.5774C190.436 49.1435 190.659 48.5288 190.659 47.7334Z" fill="black"/>
<path d="M82.5 49.6154C82.2116 49.6154 81.9231 49.4563 81.9231 49.2971V10.7029C81.9231 10.5438 82.2116 10.3846 82.5 10.3846C82.7885 10.3846 83.0769 10.5438 83.0769 10.7029V49.2971C83.0769 49.4563 82.7885 49.6154 82.5 49.6154Z" fill="#004643"/>
</g>
</svg>
